<?xml version="1.0" encoding="utf-8"?>
<!-- Generator: Adobe Illustrator 22.0.1, SVG Export Plug-In . SVG Version: 6.00 Build 0)  -->
<svg version="1.1" id="katman_1" xmlns="http://www.w3.org/2000/svg" xmlns:xlink="http://www.w3.org/1999/xlink" x="0px" y="0px"
	 viewBox="0 0 854 728" style="enable-background:new 0 0 854 728;" xml:space="preserve">
<style type="text/css">
	.st0{fill:url(#SVGID_1_);}
	.st1{fill:url(#SVGID_2_);}
	.st2{fill:url(#SVGID_3_);}
	.st3{fill:#F2F2F2;}
</style>
<g>
	
		<radialGradient id="SVGID_1_" cx="449.1246" cy="304.0817" r="121.2108" gradientTransform="matrix(1 4.900000e-03 -4.900000e-03 1 -30.5247 32.5004)" gradientUnits="userSpaceOnUse">
		<stop  offset="0" style="stop-color:#1CCDFF"/>
		<stop  offset="8.705235e-02" style="stop-color:#19C4F9"/>
		<stop  offset="0.7056" style="stop-color:#0787D1"/>
		<stop  offset="1" style="stop-color:#006FC1"/>
	</radialGradient>
	<path class="st0" d="M427.5,220.4c-56.3-0.3-102.4,45.3-102.7,101.7c-0.3,56.3,45.3,102.4,101.7,102.7
		c56.3,0.3,102.4-45.3,102.7-101.7C529.5,266.8,483.9,220.7,427.5,220.4z M426.6,413.8c-50.3-0.2-91-41.3-90.7-91.6
		c0.2-50.3,41.3-91,91.6-90.7c50.3,0.2,91,41.3,90.7,91.6C517.9,373.4,476.8,414.1,426.6,413.8z"/>
	
		<radialGradient id="SVGID_2_" cx="449.1227" cy="304.0855" r="121.2083" gradientTransform="matrix(1 4.900000e-03 -4.900000e-03 1 -30.5247 32.5004)" gradientUnits="userSpaceOnUse">
		<stop  offset="0" style="stop-color:#1CCDFF"/>
		<stop  offset="8.705235e-02" style="stop-color:#19C4F9"/>
		<stop  offset="0.7056" style="stop-color:#0787D1"/>
		<stop  offset="1" style="stop-color:#006FC1"/>
	</radialGradient>
	<path class="st1" d="M518.5,248h-5.1c17.5,20.2,28,46.5,27.9,75.2c-0.3,63-51.8,114-114.8,113.6c-63-0.3-114-51.8-113.6-114.8
		l-9.5,0c-0.3,68.2,54.9,124,123.1,124.3c68.2,0.3,124-54.9,124.3-123.1c0.1-28.5-9.5-54.8-25.6-75.9
		C522.9,247.8,520.7,248,518.5,248z"/>
	<radialGradient id="SVGID_3_" cx="427.8276" cy="318.3188" r="54.2598" gradientUnits="userSpaceOnUse">
		<stop  offset="0" style="stop-color:#4FAEC9"/>
		<stop  offset="7.827026e-02" style="stop-color:#48A6C4"/>
		<stop  offset="0.7028" style="stop-color:#16699B"/>
		<stop  offset="1" style="stop-color:#03518B"/>
	</radialGradient>
	<path class="st2" d="M468.5,300h-7v-9c0-18.3-15.2-33.1-33.9-33.1c-18.7,0-33.9,14.8-33.9,33.1v9h-6.4c-3.7,0-6.7,3-6.7,6.7V372
		c0,3.7,3,6.7,6.7,6.7h81.3c3.7,0,6.7-3,6.7-6.7v-65.3C475.2,303,472.2,300,468.5,300z M448.1,300H407v-9c0-10.9,9.2-19.7,20.5-19.7
		c11.3,0,20.6,8.8,20.6,19.7V300z"/>
	<path class="st3" d="M428.1,320.5h-0.4c-4.6,0-8.4,3.8-8.4,8.4v0.4c0,3.3,1.9,6.1,4.7,7.5v19.5c0,2.2,1.8,4,4,4c2.2,0,4-1.8,4-4
		v-19.5c2.8-1.4,4.7-4.2,4.7-7.5V329C436.5,324.3,432.7,320.5,428.1,320.5z"/>
</g>
</svg>
