<?xml version="1.0" encoding="utf-8"?>
<!-- Generator: Adobe Illustrator 22.0.1, SVG Export Plug-In . SVG Version: 6.00 Build 0)  -->
<svg version="1.1" id="katman_1" xmlns="http://www.w3.org/2000/svg" xmlns:xlink="http://www.w3.org/1999/xlink" x="0px" y="0px"
	 viewBox="0 0 1002 892" style="enable-background:new 0 0 1002 892;" xml:space="preserve">
<style type="text/css">
	.st0{fill:url(#SVGID_1_);}
	.st1{fill:url(#SVGID_2_);}
	.st2{fill:url(#SVGID_3_);}
	.st3{fill:url(#SVGID_4_);}
	.st4{fill:url(#SVGID_5_);}
	.st5{fill:url(#SVGID_6_);}
	.st6{fill:url(#SVGID_7_);}
	.st7{fill:url(#SVGID_8_);}
	.st8{fill:url(#SVGID_9_);}
	.st9{fill:url(#SVGID_10_);}
	.st10{fill:url(#SVGID_11_);}
	.st11{fill:url(#SVGID_12_);}
</style>
<g>
	<linearGradient id="SVGID_1_" gradientUnits="userSpaceOnUse" x1="357.8546" y1="372.5955" x2="270.3215" y2="397.0533">
		<stop  offset="0" style="stop-color:#03518B"/>
		<stop  offset="0.2972" style="stop-color:#16699B"/>
		<stop  offset="0.9217" style="stop-color:#48A6C4"/>
		<stop  offset="1" style="stop-color:#4FAEC9"/>
	</linearGradient>
	<path class="st0" d="M358.8,397h9.6c0.3,0,0.6,0,0.9,0.1c5.2-7.3,8.4-16.5,8.4-24.7c0-17.3-14-31.3-31.3-31.3
		c-17.3,0-31.3,14-31.3,31.3c0,13.9,9,30.2,21.5,36.2c3.1,1.5,6.4,2.3,9.8,2.3c2.8,0,5.5-0.6,8.1-1.6c-0.5-0.3-0.9-0.8-1.3-1.2
		c-1-1.2-1.5-2.6-1.5-4.2C351.7,400.1,354.9,397,358.8,397z"/>
	<linearGradient id="SVGID_2_" gradientUnits="userSpaceOnUse" x1="356.432" y1="367.5039" x2="268.8989" y2="391.9617">
		<stop  offset="0" style="stop-color:#03518B"/>
		<stop  offset="0.2972" style="stop-color:#16699B"/>
		<stop  offset="0.9217" style="stop-color:#48A6C4"/>
		<stop  offset="1" style="stop-color:#4FAEC9"/>
	</linearGradient>
	<path class="st1" d="M305.2,393.7h2.4c2.8,0,5-2.2,5-4.9v-22.8c0-1.7-0.9-3.3-2.3-4.1c0.8-3.3,2-6.5,3.6-9.3
		c6.4-11.5,18.9-19,33-19c17.6,0,32.8,11.8,36.6,28.4c-0.4,0.3-0.8,0.6-1.1,1c-0.8,0.9-1.2,2-1.2,3.2v20.8v2c0,2.2,1.5,4.1,3.6,4.7
		c-0.6,1.8-2,3.5-4.1,4.9c-2.4,1.6-5.4,2.6-8.8,3c-0.5-0.6-1.1-1.1-1.8-1.4c-0.5-0.2-1.1-0.3-1.7-0.3h-9.6c-2.3,0-4.2,1.9-4.2,4.1v0
		c0,2.3,1.9,4.1,4.2,4.1h9.6c0.9,0,1.7-0.3,2.3-0.7c0.6-0.4,1-0.8,1.4-1.4c4.2-0.5,8-1.8,11.1-3.8c3.4-2.3,5.6-5.2,6.2-8.5
		c2.3-0.4,4.1-2.4,4.1-4.8v-22.8c0-2.4-1.8-4.4-4.2-4.8c-4.2-19.4-21.9-33.4-42.4-33.4c-18.3,0-34.3,11.1-40.6,27.2
		c-0.8,2-1.4,4-1.9,6.1c-1.4,0.2-2.7,1.1-3.4,2.2c-0.2,1.4-0.5,2.7-0.8,4.1v21.3C300.1,391.5,302.4,393.7,305.2,393.7z"/>
	<linearGradient id="SVGID_3_" gradientUnits="userSpaceOnUse" x1="376.5256" y1="439.418" x2="288.9925" y2="463.8758">
		<stop  offset="0" style="stop-color:#03518B"/>
		<stop  offset="0.2972" style="stop-color:#16699B"/>
		<stop  offset="0.9217" style="stop-color:#48A6C4"/>
		<stop  offset="1" style="stop-color:#4FAEC9"/>
	</linearGradient>
	<path class="st2" d="M368,417.9c-1.1-0.5-2.3-0.9-3.5-1.2c-1.5-0.4-3.1-0.7-4.6-0.9c-2.6-0.3-5.4-0.6-5.4-0.6
		c-2.6,1-5.3,1.6-8.1,1.6c-3.4,0-6.7-0.8-9.8-2.3c-25.9,4.6-45.5,27.3-45.5,54.5h110.7C401.7,446,387.8,426.3,368,417.9z"/>
</g>
<g>
	<g>
		<radialGradient id="SVGID_4_" cx="540.4719" cy="388.185" r="73.7996" gradientUnits="userSpaceOnUse">
			<stop  offset="0" style="stop-color:#B0D692"/>
			<stop  offset="0.4657" style="stop-color:#8BC541"/>
			<stop  offset="0.9394" style="stop-color:#388E38"/>
		</radialGradient>
		<path class="st3" d="M527.2,337.8h6.3c0.2,0,0.4,0,0.6,0c3.4-4.8,5.5-10.8,5.5-16.2c0-11.3-9.2-20.5-20.5-20.5
			c-11.3,0-20.5,9.2-20.5,20.5c0,9.1,5.9,19.8,14.1,23.7c2,1,4.2,1.5,6.4,1.5c1.8,0,3.6-0.4,5.3-1c-0.3-0.2-0.6-0.5-0.8-0.8
			c-0.6-0.8-1-1.7-1-2.8C522.6,339.8,524.7,337.8,527.2,337.8z"/>
		<radialGradient id="SVGID_5_" cx="540.4719" cy="388.185" r="73.7996" gradientUnits="userSpaceOnUse">
			<stop  offset="0" style="stop-color:#B0D692"/>
			<stop  offset="0.4657" style="stop-color:#8BC541"/>
			<stop  offset="0.9394" style="stop-color:#388E38"/>
		</radialGradient>
		<path class="st4" d="M492.1,335.6h1.5c1.8,0,3.3-1.4,3.3-3.2v-14.9c0-1.1-0.6-2.1-1.5-2.7c0.5-2.2,1.3-4.2,2.4-6.1
			c4.2-7.5,12.4-12.5,21.6-12.5c11.5,0,21.5,7.8,24,18.6c-0.3,0.2-0.5,0.4-0.7,0.6c-0.5,0.6-0.8,1.3-0.8,2.1v13.6v1.3
			c0,1.4,1,2.7,2.3,3.1c-0.4,1.2-1.3,2.3-2.7,3.2c-1.6,1-3.6,1.7-5.7,2c-0.3-0.4-0.7-0.7-1.2-0.9c-0.3-0.1-0.7-0.2-1.1-0.2h-6.3
			c-1.5,0-2.8,1.2-2.8,2.7v0c0,1.5,1.3,2.7,2.8,2.7h6.3c0.6,0,1.1-0.2,1.5-0.4c0.4-0.2,0.7-0.5,0.9-0.9c2.7-0.3,5.3-1.2,7.3-2.5
			c2.2-1.5,3.6-3.4,4.1-5.5c1.5-0.3,2.7-1.6,2.7-3.1v-14.9c0-1.6-1.2-2.9-2.8-3.2c-2.8-12.7-14.3-21.9-27.8-21.9
			c-12,0-22.5,7.3-26.6,17.8c-0.5,1.3-0.9,2.6-1.2,4c-0.9,0.1-1.7,0.7-2.2,1.4c-0.1,0.9-0.3,1.8-0.5,2.7v13.9
			C488.8,334.2,490.3,335.6,492.1,335.6z"/>
		<radialGradient id="SVGID_6_" cx="540.4719" cy="388.185" r="73.7996" gradientUnits="userSpaceOnUse">
			<stop  offset="0" style="stop-color:#B0D692"/>
			<stop  offset="0.4657" style="stop-color:#8BC541"/>
			<stop  offset="0.9394" style="stop-color:#388E38"/>
		</radialGradient>
		<path class="st5" d="M531.8,350.9c-0.3-0.1-0.5-0.2-0.8-0.2c-1-0.3-2-0.5-3-0.6c-1.7-0.2-3.5-0.4-3.5-0.4c-1.7,0.7-3.5,1-5.3,1
			c-2.2,0-4.4-0.6-6.4-1.5c-8.5,1.5-15.9,6-21.3,12.3c-7.8,9.2-1,23.4,11.1,23.4H521c-0.2-1.6-0.3-3.3-0.3-5
			C520.7,368.9,524.9,358.8,531.8,350.9z"/>
	</g>
	<radialGradient id="SVGID_7_" cx="531.5668" cy="381.0609" r="129.1209" gradientUnits="userSpaceOnUse">
		<stop  offset="0" style="stop-color:#B0D692"/>
		<stop  offset="0.4657" style="stop-color:#8BC541"/>
		<stop  offset="0.9394" style="stop-color:#388E38"/>
	</radialGradient>
	<path class="st6" d="M625.7,337.8h6.3c0.2,0,0.4,0,0.6,0c3.4-4.8,5.5-10.8,5.5-16.2c0-11.3-9.2-20.5-20.5-20.5
		c-11.3,0-20.5,9.2-20.5,20.5c0,9.1,5.9,19.8,14.1,23.7c2,1,4.2,1.5,6.4,1.5c1.8,0,3.6-0.4,5.3-1c-0.3-0.2-0.6-0.5-0.8-0.8
		c-0.6-0.8-1-1.7-1-2.8C621.1,339.8,623.2,337.8,625.7,337.8z"/>
	<radialGradient id="SVGID_8_" cx="531.5668" cy="381.0609" r="129.1209" gradientUnits="userSpaceOnUse">
		<stop  offset="0" style="stop-color:#B0D692"/>
		<stop  offset="0.4657" style="stop-color:#8BC541"/>
		<stop  offset="0.9394" style="stop-color:#388E38"/>
	</radialGradient>
	<path class="st7" d="M590.6,335.6h1.5c1.8,0,3.3-1.4,3.3-3.2v-14.9c0-1.1-0.6-2.1-1.5-2.7c0.5-2.2,1.3-4.2,2.4-6.1
		c4.2-7.5,12.4-12.5,21.6-12.5c11.5,0,21.5,7.8,24,18.6c-0.3,0.2-0.5,0.4-0.7,0.6c-0.5,0.6-0.8,1.3-0.8,2.1v13.6v1.3
		c0,1.4,1,2.7,2.3,3.1c-0.4,1.2-1.3,2.3-2.7,3.2c-1.6,1-3.6,1.7-5.7,2c-0.3-0.4-0.7-0.7-1.2-0.9c-0.3-0.1-0.7-0.2-1.1-0.2h-6.3
		c-1.5,0-2.8,1.2-2.8,2.7v0c0,1.5,1.3,2.7,2.8,2.7h6.3c0.6,0,1.1-0.2,1.5-0.4c0.4-0.2,0.7-0.5,0.9-0.9c2.7-0.3,5.3-1.2,7.3-2.5
		c2.2-1.5,3.6-3.4,4.1-5.5c1.5-0.3,2.7-1.6,2.7-3.1v-14.9c0-1.6-1.2-2.9-2.8-3.2c-2.8-12.7-14.3-21.9-27.8-21.9
		c-12,0-22.5,7.3-26.6,17.8c-0.5,1.3-0.9,2.6-1.2,4c-0.9,0.1-1.7,0.7-2.2,1.4c-0.1,0.9-0.3,1.8-0.5,2.7v13.9
		C587.3,334.2,588.8,335.6,590.6,335.6z"/>
	<radialGradient id="SVGID_9_" cx="531.5668" cy="381.0609" r="129.1209" gradientUnits="userSpaceOnUse">
		<stop  offset="0" style="stop-color:#B0D692"/>
		<stop  offset="0.4657" style="stop-color:#8BC541"/>
		<stop  offset="0.9394" style="stop-color:#388E38"/>
	</radialGradient>
	<path class="st8" d="M648.4,365.7c-3.9-6.3-9.7-11.3-16.6-14.2c-0.7-0.3-1.5-0.6-2.3-0.8c-1-0.3-2-0.5-3-0.6
		c-1.7-0.2-3.5-0.4-3.5-0.4c-1.7,0.7-3.5,1-5.3,1c-2.2,0-4.4-0.6-6.4-1.5c-1.6,0.3-3.2,0.7-4.7,1.2c7.2,8,11.6,18.2,11.6,29.5
		c0,1.7-0.1,3.3-0.3,5h19.9C647.4,384.8,653.6,374,648.4,365.7z"/>
	<g>
		<radialGradient id="SVGID_10_" cx="550.3587" cy="520.2092" r="173.7254" gradientUnits="userSpaceOnUse">
			<stop  offset="0" style="stop-color:#B0D692"/>
			<stop  offset="0.4657" style="stop-color:#8BC541"/>
			<stop  offset="0.9394" style="stop-color:#388E38"/>
		</radialGradient>
		<path class="st9" d="M560.1,414c2.8,1.4,5.9,2.1,9,2.1c2.6,0,5.1-0.5,7.4-1.4c-0.4-0.3-0.8-0.7-1.2-1.1c-0.9-1.1-1.4-2.4-1.4-3.9
			c0-3.5,2.9-6.3,6.5-6.3h8.8c0.3,0,0.6,0,0.9,0.1c4.8-6.7,7.7-15.1,7.7-22.6c0-15.8-12.8-28.7-28.7-28.7
			c-15.8,0-28.7,12.8-28.7,28.7C540.5,393.5,548.7,408.5,560.1,414z"/>
		<radialGradient id="SVGID_11_" cx="550.3587" cy="520.2092" r="173.7254" gradientUnits="userSpaceOnUse">
			<stop  offset="0" style="stop-color:#B0D692"/>
			<stop  offset="0.4657" style="stop-color:#8BC541"/>
			<stop  offset="0.9394" style="stop-color:#388E38"/>
		</radialGradient>
		<path class="st10" d="M612.2,375.1c0-2.2-1.7-4.1-3.9-4.4c-3.9-17.8-20-30.5-38.8-30.5c-16.8,0-31.4,10.1-37.1,24.9
			c-0.7,1.8-1.3,3.7-1.7,5.6c-1.3,0.2-2.4,1-3.1,2c-0.2,1.3-0.5,2.5-0.7,3.7v19.5c0,2.5,2.1,4.5,4.6,4.5h2.2c2.5,0,4.6-2,4.6-4.5
			v-20.8c0-1.6-0.9-3-2.1-3.8c0.7-3,1.8-5.9,3.3-8.6c5.9-10.5,17.3-17.4,30.2-17.4c16.1,0,30,10.8,33.5,26c-0.4,0.2-0.7,0.5-1,0.9
			c-0.7,0.8-1.1,1.8-1.1,2.9v19v1.8c0,2,1.4,3.7,3.3,4.3c-0.6,1.7-1.8,3.2-3.8,4.5c-2.2,1.5-5,2.4-8,2.8c-0.4-0.6-1-1-1.6-1.3
			c-0.5-0.2-1-0.3-1.5-0.3h-8.8c-2.1,0-3.9,1.7-3.9,3.8v0c0,2.1,1.8,3.8,3.9,3.8h8.8c0.8,0,1.5-0.2,2.1-0.6c0.5-0.3,0.9-0.8,1.2-1.3
			c3.8-0.4,7.4-1.6,10.2-3.5c3.1-2.1,5.1-4.8,5.7-7.7c2.1-0.4,3.8-2.2,3.8-4.4V375.1z"/>
		<radialGradient id="SVGID_12_" cx="550.3587" cy="520.2092" r="173.7254" gradientUnits="userSpaceOnUse">
			<stop  offset="0" style="stop-color:#B0D692"/>
			<stop  offset="0.4657" style="stop-color:#8BC541"/>
			<stop  offset="0.9394" style="stop-color:#388E38"/>
		</radialGradient>
		<path class="st11" d="M581.5,420.5c-2.4-0.3-4.9-0.6-4.9-0.6c-2.4,0.9-4.9,1.4-7.4,1.4c-3.1,0-6.2-0.8-9-2.1
			c-16.3,2.9-29.9,13.7-36.8,28.2c-4.8,10.1,2.5,21.7,13.7,21.7h64.4c10.9,0,18.4-11.3,13.8-21.2c-5.3-11.4-14.6-20.5-26.2-25.4
			c-1-0.4-2.1-0.8-3.2-1.1C584.3,421,582.9,420.7,581.5,420.5z"/>
	</g>
</g>
</svg>
