<?xml version="1.0" encoding="utf-8"?>
<!-- Generator: Adobe Illustrator 22.0.1, SVG Export Plug-In . SVG Version: 6.00 Build 0)  -->
<svg version="1.1" id="katman_1" xmlns="http://www.w3.org/2000/svg" xmlns:xlink="http://www.w3.org/1999/xlink" x="0px" y="0px"
	 viewBox="0 0 774 752" style="enable-background:new 0 0 774 752;" xml:space="preserve">
<style type="text/css">
	.st0{fill:url(#SVGID_1_);}
	.st1{fill:url(#SVGID_2_);}
	.st2{fill:url(#SVGID_3_);}
</style>
<radialGradient id="SVGID_1_" cx="395.378" cy="369.7741" r="85.1454" gradientUnits="userSpaceOnUse">
	<stop  offset="0" style="stop-color:#B0D692"/>
	<stop  offset="0.4657" style="stop-color:#8BC541"/>
	<stop  offset="0.9394" style="stop-color:#388E38"/>
</radialGradient>
<path class="st0" d="M340.6,369.6c0,0,84.3-8.5,108-107c0,0,18.9,139.7-72.7,214.5c0,0,21.2-49.2,23.8-77.9
	c2.4-26.5-32.6-27.7-50.6-29.1C343.9,369.7,340.6,369.6,340.6,369.6z"/>
<linearGradient id="SVGID_2_" gradientUnits="userSpaceOnUse" x1="372.9518" y1="309.2544" x2="414.1101" y2="309.2544">
	<stop  offset="0" style="stop-color:#B0D692"/>
	<stop  offset="0.4657" style="stop-color:#8BC541"/>
	<stop  offset="0.9394" style="stop-color:#388E38"/>
</linearGradient>
<circle class="st1" cx="393.5" cy="309.3" r="20.6"/>
<linearGradient id="SVGID_3_" gradientUnits="userSpaceOnUse" x1="421.7975" y1="236.325" x2="475.3145" y2="236.325">
	<stop  offset="0" style="stop-color:#E85E2C"/>
	<stop  offset="0.3398" style="stop-color:#EB7633"/>
	<stop  offset="1" style="stop-color:#F2AE43"/>
</linearGradient>
<polygon class="st2" points="448.6,210.9 453.8,231.8 475.3,230.3 457.1,241.8 465.1,261.8 448.6,248 432,261.8 440,241.8 
	421.8,230.3 443.3,231.8 "/>
</svg>
