<?xml version="1.0" encoding="utf-8"?>
<!-- Generator: Adobe Illustrator 22.0.1, SVG Export Plug-In . SVG Version: 6.00 Build 0)  -->
<svg version="1.1" id="katman_1" xmlns="http://www.w3.org/2000/svg" xmlns:xlink="http://www.w3.org/1999/xlink" x="0px" y="0px"
	 viewBox="0 0 1042 1004" style="enable-background:new 0 0 1042 1004;" xml:space="preserve">
<style type="text/css">
	.st0{fill:url(#SVGID_1_);}
	.st1{fill:url(#SVGID_2_);}
	.st2{fill:url(#SVGID_3_);}
	.st3{fill:url(#SVGID_4_);}
</style>
<g>
	<linearGradient id="SVGID_1_" gradientUnits="userSpaceOnUse" x1="408.665" y1="503.8718" x2="614.2908" y2="503.8718">
		<stop  offset="0" style="stop-color:#03518B"/>
		<stop  offset="0.2972" style="stop-color:#16699B"/>
		<stop  offset="0.9217" style="stop-color:#48A6C4"/>
		<stop  offset="1" style="stop-color:#4FAEC9"/>
	</linearGradient>
	<path class="st0" d="M595.1,454.6c-2.9,1.5-4.1,5.1-2.6,8c6.5,12.8,9.9,26.7,9.9,41.2c0,50.1-40.8,90.9-90.9,90.9
		s-90.9-40.8-90.9-90.9s40.8-90.9,90.9-90.9c13.3,0,26.1,2.8,38.1,8.3c3,1.4,6.5,0.1,7.9-2.9c1.4-3,0.1-6.5-2.9-7.9
		c-13.6-6.3-28.1-9.5-43.1-9.5c-56.7,0-102.8,46.1-102.8,102.8c0,56.7,46.1,102.8,102.8,102.8c56.7,0,102.8-46.1,102.8-102.8
		c0-16.4-3.8-32.1-11.2-46.6C601.6,454.3,598,453.1,595.1,454.6z"/>
	<linearGradient id="SVGID_2_" gradientUnits="userSpaceOnUse" x1="444.4768" y1="503.8718" x2="578.4789" y2="503.8718">
		<stop  offset="0" style="stop-color:#03518B"/>
		<stop  offset="0.2972" style="stop-color:#16699B"/>
		<stop  offset="0.9217" style="stop-color:#48A6C4"/>
		<stop  offset="1" style="stop-color:#4FAEC9"/>
	</linearGradient>
	<path class="st1" d="M535.6,447.5c1-3.1-0.7-6.5-3.9-7.5c-6.5-2.1-13.4-3.1-20.3-3.1c-36.9,0-67,30.1-67,67c0,36.9,30.1,67,67,67
		c36.9,0,67-30.1,67-67c0-7.1-1.1-14.1-3.3-20.8c-1-3.1-4.4-4.8-7.5-3.8c-3.1,1-4.8,4.4-3.8,7.5c1.8,5.5,2.7,11.2,2.7,17.1
		c0,30.4-24.7,55.1-55.1,55.1c-30.4,0-55.1-24.7-55.1-55.1c0-30.4,24.7-55.1,55.1-55.1c5.7,0,11.3,0.9,16.6,2.6
		C531.3,452.4,534.6,450.6,535.6,447.5z"/>
	<linearGradient id="SVGID_3_" gradientUnits="userSpaceOnUse" x1="480.2885" y1="503.8718" x2="542.6672" y2="503.8718">
		<stop  offset="0" style="stop-color:#03518B"/>
		<stop  offset="0.2972" style="stop-color:#16699B"/>
		<stop  offset="0.9217" style="stop-color:#48A6C4"/>
		<stop  offset="1" style="stop-color:#4FAEC9"/>
	</linearGradient>
	<path class="st2" d="M511.5,484.6c3.3,0,6-2.7,6-6c0-3.3-2.7-6-6-6c-17.2,0-31.2,14-31.2,31.2c0,17.2,14,31.2,31.2,31.2
		c17.2,0,31.2-14,31.2-31.2c0-3.3-2.7-6-6-6s-6,2.7-6,6c0,10.6-8.6,19.3-19.3,19.3c-10.6,0-19.3-8.6-19.3-19.3
		C492.2,493.3,500.9,484.6,511.5,484.6z"/>
	<linearGradient id="SVGID_4_" gradientUnits="userSpaceOnUse" x1="506.7505" y1="412.9879" x2="702.5604" y2="412.9879">
		<stop  offset="0" style="stop-color:#03518B"/>
		<stop  offset="0.2972" style="stop-color:#16699B"/>
		<stop  offset="0.9217" style="stop-color:#48A6C4"/>
		<stop  offset="1" style="stop-color:#4FAEC9"/>
	</linearGradient>
	<path class="st3" d="M702.6,357.1l-36.9-2.9l-2.9-36.9l-37.5,37.5l-1.8,25.1l-88.9,85.9c-3.3,3.2-4.2,7.8-2.8,11.9l-23.4,22.6
		c-1.8,1.8-2.1,4.7-0.5,6.7c1,1.1,2.3,1.7,3.6,1.7c1.2,0,2.4-0.4,3.3-1.3l23.6-22.8c1.3,0.5,2.7,0.8,4.1,0.8c2.8,0,5.7-1.1,7.9-3.2
		l88.6-85.6l26.2-1.9L702.6,357.1z"/>
</g>
</svg>
