<?xml version="1.0" encoding="utf-8"?>
<!-- Generator: Adobe Illustrator 22.0.1, SVG Export Plug-In . SVG Version: 6.00 Build 0)  -->
<svg version="1.1" id="katman_1" xmlns="http://www.w3.org/2000/svg" xmlns:xlink="http://www.w3.org/1999/xlink" x="0px" y="0px"
	 viewBox="0 0 652.4 648" style="enable-background:new 0 0 652.4 648;" xml:space="preserve">
<style type="text/css">
	.st0{fill:url(#SVGID_1_);}
	.st1{fill:url(#SVGID_2_);}
	.st2{fill:url(#SVGID_3_);}
	.st3{fill:url(#SVGID_4_);}
	.st4{fill:url(#SVGID_5_);}
	.st5{fill:url(#SVGID_6_);}
	.st6{fill:url(#SVGID_7_);}
	.st7{fill:url(#SVGID_8_);}
	.st8{fill:url(#SVGID_9_);}
	.st9{fill:url(#SVGID_10_);}
	.st10{fill:url(#SVGID_11_);}
	.st11{fill:url(#SVGID_12_);}
	.st12{fill:url(#SVGID_13_);}
	.st13{fill:url(#SVGID_14_);}
	.st14{fill:url(#SVGID_15_);}
	.st15{fill:url(#SVGID_16_);}
	.st16{fill:url(#SVGID_17_);}
	.st17{fill:url(#SVGID_18_);}
	.st18{fill:url(#SVGID_19_);}
</style>
<g>
	<radialGradient id="SVGID_1_" cx="326.195" cy="324" r="108.4553" gradientUnits="userSpaceOnUse">
		<stop  offset="0" style="stop-color:#4FAEC9"/>
		<stop  offset="0.3541" style="stop-color:#1392B4"/>
		<stop  offset="0.7359" style="stop-color:#09699A"/>
		<stop  offset="1" style="stop-color:#03518B"/>
	</radialGradient>
	<path class="st0" d="M441.4,287H211c-18.6,0-33.7,15.1-33.7,33.7v6.7c0,18.6,15.1,33.7,33.7,33.7h230.3c18.6,0,33.7-15.1,33.7-33.7
		v-6.7C475,302.1,459.9,287,441.4,287z M471.7,327.4c0,16.7-13.6,30.3-30.3,30.3H211c-16.7,0-30.3-13.6-30.3-30.3v-6.7
		c0-16.7,13.6-30.3,30.3-30.3h230.3c16.7,0,30.3,13.6,30.3,30.3V327.4z"/>
</g>
<g>
	<linearGradient id="SVGID_2_" gradientUnits="userSpaceOnUse" x1="221.3201" y1="305.5723" x2="221.3201" y2="352.4495">
		<stop  offset="0" style="stop-color:#03518B"/>
		<stop  offset="0.2972" style="stop-color:#16699B"/>
		<stop  offset="0.9217" style="stop-color:#48A6C4"/>
		<stop  offset="1" style="stop-color:#4FAEC9"/>
	</linearGradient>
	<path class="st1" d="M225.9,301.1c-0.6-2-2.4-3.5-4.6-3.5c-2.2,0-4.1,1.5-4.6,3.5h-0.7c-0.3,0-0.6,0-0.9,0c-0.3,0-0.6,0-0.8,0.1
		c-6.6,0.9-11.8,6.6-11.8,13.4v33.1h37.8v-46.6H225.9z M215.4,303.7c0.2,0,0.3,0,0.5,0h3.5c-0.2-0.4-0.4-0.8-0.4-1.3
		c0-0.5,0.1-0.9,0.4-1.3c0.4-0.6,1.1-1,1.9-1c0.8,0,1.4,0.4,1.9,1c0.2,0.4,0.4,0.8,0.4,1.3c0,0.5-0.1,0.9-0.4,1.3h3.2v1.6h-10.9
		V303.7z M237.7,345.2H205v-30.5c0-5,3.4-9.2,7.9-10.5v2.4c0,0.3,0.1,0.7,0.4,0.9c0.2,0.2,0.6,0.4,0.9,0.4h13.5
		c0.3,0,0.7-0.1,0.9-0.4c0.2-0.2,0.4-0.6,0.4-0.9v-2.9h8.8V345.2z"/>
	<linearGradient id="SVGID_3_" gradientUnits="userSpaceOnUse" x1="215.5246" y1="305.5759" x2="215.5246" y2="352.4494">
		<stop  offset="0" style="stop-color:#03518B"/>
		<stop  offset="0.2972" style="stop-color:#16699B"/>
		<stop  offset="0.9217" style="stop-color:#48A6C4"/>
		<stop  offset="1" style="stop-color:#4FAEC9"/>
	</linearGradient>
	<path class="st2" d="M210.5,320.7h10.1c0.7,0,1.3-0.6,1.3-1.3c0-0.7-0.6-1.3-1.3-1.3h-10.1c-0.7,0-1.3,0.6-1.3,1.3
		C209.2,320.2,209.8,320.7,210.5,320.7z"/>
	<linearGradient id="SVGID_4_" gradientUnits="userSpaceOnUse" x1="217.24" y1="305.5759" x2="217.24" y2="352.4494">
		<stop  offset="0" style="stop-color:#03518B"/>
		<stop  offset="0.2972" style="stop-color:#16699B"/>
		<stop  offset="0.9217" style="stop-color:#48A6C4"/>
		<stop  offset="1" style="stop-color:#4FAEC9"/>
	</linearGradient>
	<path class="st3" d="M224,332.9h-13.6c-0.7,0-1.3,0.6-1.3,1.3c0,0.7,0.6,1.3,1.3,1.3H224c0.7,0,1.3-0.6,1.3-1.3
		C225.3,333.5,224.7,332.9,224,332.9z"/>
	<linearGradient id="SVGID_5_" gradientUnits="userSpaceOnUse" x1="230.9286" y1="305.5759" x2="230.9286" y2="352.4494">
		<stop  offset="0" style="stop-color:#03518B"/>
		<stop  offset="0.2972" style="stop-color:#16699B"/>
		<stop  offset="0.9217" style="stop-color:#48A6C4"/>
		<stop  offset="1" style="stop-color:#4FAEC9"/>
	</linearGradient>
	<path class="st4" d="M228.1,317.2c-0.3,0-0.6,0.1-0.8,0.3c-0.3,0.2-0.4,0.5-0.5,0.9s0.1,0.7,0.3,0.9h0l2,2.5c0.2,0.3,0.6,0.5,1,0.5
		c0,0,0.1,0,0.1,0c0.4,0,0.8-0.3,1-0.6l3.6-6l0,0c0.2-0.3,0.2-0.6,0.1-1c-0.1-0.3-0.3-0.6-0.6-0.8c-0.2-0.1-0.4-0.2-0.7-0.2
		c-0.4,0-0.9,0.2-1.1,0.6l-2.7,4.4l-0.9-1.1C228.9,317.4,228.5,317.2,228.1,317.2z"/>
	<linearGradient id="SVGID_6_" gradientUnits="userSpaceOnUse" x1="230.929" y1="305.5759" x2="230.929" y2="352.4494">
		<stop  offset="0" style="stop-color:#03518B"/>
		<stop  offset="0.2972" style="stop-color:#16699B"/>
		<stop  offset="0.9217" style="stop-color:#48A6C4"/>
		<stop  offset="1" style="stop-color:#4FAEC9"/>
	</linearGradient>
	<path class="st5" d="M234.6,330.5c-0.5-0.5-1.3-0.5-1.8,0l-1.9,1.8l-1.9-1.8c-0.5-0.5-1.3-0.5-1.8,0c-0.5,0.5-0.5,1.3,0,1.8
		l1.9,1.8l-1.9,1.8c-0.2,0.2-0.4,0.6-0.4,0.9c0,0.3,0.1,0.7,0.4,0.9c0.2,0.3,0.6,0.4,0.9,0.4c0.3,0,0.6-0.1,0.9-0.4l1.9-1.8l1.9,1.8
		c0.2,0.2,0.6,0.4,0.9,0.4c0.3,0,0.7-0.1,0.9-0.4c0.5-0.5,0.5-1.3,0-1.8l-1.9-1.8l1.9-1.8C235.1,331.9,235.1,331,234.6,330.5z"/>
</g>
<g>
	<linearGradient id="SVGID_7_" gradientUnits="userSpaceOnUse" x1="266.1085" y1="310.0946" x2="266.1085" y2="332.8507">
		<stop  offset="0" style="stop-color:#03518B"/>
		<stop  offset="0.2972" style="stop-color:#16699B"/>
		<stop  offset="0.9217" style="stop-color:#48A6C4"/>
		<stop  offset="1" style="stop-color:#4FAEC9"/>
	</linearGradient>
	<path class="st6" d="M266.3,321.6l7.3-7.3h-4.7l-7.1,7.5v-7.5h-1.9c-0.5,0-1,0.2-1.4,0.6c-0.4,0.4-0.6,0.8-0.6,1.4v16.3h3.8V326
		c0-0.6,0.3-1.1,1-1.3c0.7-0.2,1.4,0.2,2.2,1.2l4.6,6.5h4.5L266.3,321.6z"/>
	<linearGradient id="SVGID_8_" gradientUnits="userSpaceOnUse" x1="283.8603" y1="310.0842" x2="283.8603" y2="332.8573">
		<stop  offset="0" style="stop-color:#03518B"/>
		<stop  offset="0.2972" style="stop-color:#16699B"/>
		<stop  offset="0.9217" style="stop-color:#48A6C4"/>
		<stop  offset="1" style="stop-color:#4FAEC9"/>
	</linearGradient>
	<path class="st7" d="M288.6,319.9c-1.2-1.3-2.8-1.9-4.9-1.9c-2,0-3.6,0.7-4.7,2c-1.1,1.3-1.6,3-1.6,5.3c0,2.4,0.6,4.2,1.7,5.4
		c1.1,1.3,2.7,2,4.7,2c1.6,0,3-0.4,4.1-1.2c1.1-0.8,1.8-1.9,2.2-3.4h-2.6c-0.4,0-0.8,0.1-1,0.3c-0.2,0.2-0.4,0.3-0.4,0.4
		c-0.1,0.1-0.2,0.2-0.3,0.3c-0.1,0.1-0.2,0.1-0.3,0.2c-0.4,0.2-0.9,0.4-1.5,0.4c-0.9,0-1.6-0.3-2.1-0.8c-0.5-0.5-0.8-1.3-0.8-2.4
		h9.1c0-0.1,0.1-0.2,0.1-0.4v-0.6C290.3,323.1,289.8,321.2,288.6,319.9z M281.1,324c0-0.9,0.3-1.6,0.8-2.1c0.5-0.5,1.1-0.7,1.9-0.7
		c0.8,0,1.5,0.2,2,0.7c0.4,0.5,0.7,1.2,0.7,2.1H281.1z"/>
	<linearGradient id="SVGID_9_" gradientUnits="userSpaceOnUse" x1="299.7619" y1="310.0877" x2="299.7619" y2="332.8508">
		<stop  offset="0" style="stop-color:#03518B"/>
		<stop  offset="0.2972" style="stop-color:#16699B"/>
		<stop  offset="0.9217" style="stop-color:#48A6C4"/>
		<stop  offset="1" style="stop-color:#4FAEC9"/>
	</linearGradient>
	<path class="st8" d="M303.9,319.3c-1.3-0.8-2.7-1.2-4.3-1.2c-1.5,0.1-2.9,0.5-4.2,1.3c-1.3,0.8-1.9,2.4-1.9,4.8v8.2h3.7v-9
		c0-0.8,0.2-1.5,0.7-1.9c0.5-0.4,1.1-0.6,1.7-0.6s1.2,0.2,1.7,0.6c0.5,0.4,0.8,1,0.8,1.9v7.2c0,0.5,0.2,1,0.5,1.3
		c0.3,0.3,0.8,0.5,1.3,0.5h1.9v-8.2C305.9,321.7,305.2,320.1,303.9,319.3z"/>
	<linearGradient id="SVGID_10_" gradientUnits="userSpaceOnUse" x1="316.7522" y1="310.0949" x2="316.7522" y2="332.8494">
		<stop  offset="0" style="stop-color:#03518B"/>
		<stop  offset="0.2972" style="stop-color:#16699B"/>
		<stop  offset="0.9217" style="stop-color:#48A6C4"/>
		<stop  offset="1" style="stop-color:#4FAEC9"/>
	</linearGradient>
	<path class="st9" d="M322.8,314.8c-0.3-0.4-0.8-0.6-1.3-0.6h-1.8v6c-0.4-0.7-1-1.2-1.7-1.6c-0.7-0.3-1.4-0.5-2.3-0.5
		c-1.7,0-3,0.7-4.1,2.1c-1,1.3-1.5,3.1-1.5,5.3c0,2.3,0.5,4,1.5,5.3c0.5,0.7,1.2,1.2,2.1,1.5c0.9,0.3,1.8,0.4,2.7,0.4
		c1.7,0,3.3-0.4,4.7-1.3c1.4-0.9,2.2-2.6,2.2-5.1V316C323.4,315.6,323.2,315.2,322.8,314.8z M318.5,328.5c-0.5,0.7-1.3,1.1-2.2,1.1
		c-1,0-1.7-0.4-2.3-1.1c-0.5-0.7-0.8-1.8-0.8-3.2c0-1.3,0.3-2.2,0.8-3c0.5-0.7,1.3-1.1,2.2-1.1c0.9,0,1.7,0.3,2.3,1
		c0.5,0.7,0.8,1.7,0.8,3C319.3,326.7,319,327.8,318.5,328.5z"/>
	<linearGradient id="SVGID_11_" gradientUnits="userSpaceOnUse" x1="329.0831" y1="310.0946" x2="329.0831" y2="332.8507">
		<stop  offset="0" style="stop-color:#03518B"/>
		<stop  offset="0.2972" style="stop-color:#16699B"/>
		<stop  offset="0.9217" style="stop-color:#48A6C4"/>
		<stop  offset="1" style="stop-color:#4FAEC9"/>
	</linearGradient>
	<path class="st10" d="M330.4,314.8c-0.3-0.4-0.8-0.5-1.3-0.5h-1.9v2.9h3.7V316C330.9,315.5,330.8,315.1,330.4,314.8z M330.4,318.9
		c-0.3-0.3-0.8-0.5-1.3-0.5h-1.9v14.1h3.7v-12.3C330.9,319.7,330.8,319.2,330.4,318.9z"/>
	<linearGradient id="SVGID_12_" gradientUnits="userSpaceOnUse" x1="340.5171" y1="310.0877" x2="340.5171" y2="332.8508">
		<stop  offset="0" style="stop-color:#03518B"/>
		<stop  offset="0.2972" style="stop-color:#16699B"/>
		<stop  offset="0.9217" style="stop-color:#48A6C4"/>
		<stop  offset="1" style="stop-color:#4FAEC9"/>
	</linearGradient>
	<path class="st11" d="M344.7,319.3c-1.3-0.8-2.7-1.2-4.3-1.2c-1.5,0.1-2.9,0.5-4.2,1.3c-1.3,0.8-1.9,2.4-1.9,4.8v8.2h3.7v-9
		c0-0.8,0.2-1.5,0.7-1.9c0.5-0.4,1.1-0.6,1.7-0.6c0.6,0,1.2,0.2,1.7,0.6c0.5,0.4,0.8,1,0.8,1.9v7.2c0,0.5,0.2,1,0.5,1.3
		c0.3,0.3,0.8,0.5,1.3,0.5h1.9v-8.2C346.6,321.7,346,320.1,344.7,319.3z"/>
	<linearGradient id="SVGID_13_" gradientUnits="userSpaceOnUse" x1="352.6845" y1="310.0946" x2="352.6845" y2="332.8507">
		<stop  offset="0" style="stop-color:#03518B"/>
		<stop  offset="0.2972" style="stop-color:#16699B"/>
		<stop  offset="0.9217" style="stop-color:#48A6C4"/>
		<stop  offset="1" style="stop-color:#4FAEC9"/>
	</linearGradient>
	<path class="st12" d="M354,314.8c-0.4-0.4-0.8-0.5-1.3-0.5h-1.9v2.9h3.7V316C354.5,315.5,354.4,315.1,354,314.8z M354,318.9
		c-0.4-0.3-0.8-0.5-1.3-0.5h-1.9v14.1h3.7v-12.3C354.5,319.7,354.4,319.2,354,318.9z"/>
	<linearGradient id="SVGID_14_" gradientUnits="userSpaceOnUse" x1="370.1091" y1="310.0934" x2="370.1091" y2="332.856">
		<stop  offset="0" style="stop-color:#03518B"/>
		<stop  offset="0.2972" style="stop-color:#16699B"/>
		<stop  offset="0.9217" style="stop-color:#48A6C4"/>
		<stop  offset="1" style="stop-color:#4FAEC9"/>
	</linearGradient>
	<path class="st13" d="M371.2,320.9c0.5,0,0.9-0.2,1.3-0.5c0.4-0.3,0.5-0.8,0.5-1.3v-0.7h-2.2V316c0-0.5-0.2-0.9-0.5-1.3
		c-0.3-0.4-0.8-0.5-1.2-0.5h-1.9v15.5c0,1.6,0.7,2.5,2,2.6c1.4,0.1,2.6,0.1,3.8,0v-2.7h-1.1c-0.7,0-1.1-0.3-1.1-0.9v-7.8H371.2z"/>
	<linearGradient id="SVGID_15_" gradientUnits="userSpaceOnUse" x1="382.2031" y1="310.0842" x2="382.2031" y2="332.8573">
		<stop  offset="0" style="stop-color:#03518B"/>
		<stop  offset="0.2972" style="stop-color:#16699B"/>
		<stop  offset="0.9217" style="stop-color:#48A6C4"/>
		<stop  offset="1" style="stop-color:#4FAEC9"/>
	</linearGradient>
	<path class="st14" d="M387,319.9c-1.2-1.3-2.8-1.9-4.9-1.9c-2,0-3.6,0.7-4.7,2c-1.1,1.3-1.6,3-1.6,5.3c0,2.4,0.6,4.2,1.7,5.4
		c1.1,1.3,2.7,2,4.7,2c1.7,0,3-0.4,4.1-1.2c1.1-0.8,1.8-1.9,2.2-3.4h-2.6c-0.4,0-0.8,0.1-1,0.3c-0.2,0.2-0.4,0.3-0.4,0.4
		c-0.1,0.1-0.2,0.2-0.3,0.3c-0.1,0.1-0.2,0.1-0.3,0.2c-0.4,0.2-0.9,0.4-1.5,0.4c-0.9,0-1.6-0.3-2.1-0.8c-0.5-0.5-0.8-1.3-0.8-2.4
		h9.1c0-0.1,0.1-0.2,0.1-0.4v-0.6C388.7,323.1,388.1,321.2,387,319.9z M379.5,324c0-0.9,0.3-1.6,0.8-2.1c0.5-0.5,1.1-0.7,1.9-0.7
		c0.8,0,1.5,0.2,2,0.7c0.4,0.5,0.7,1.2,0.7,2.1H379.5z"/>
	<linearGradient id="SVGID_16_" gradientUnits="userSpaceOnUse" x1="397.8903" y1="310.0842" x2="397.8903" y2="332.8573">
		<stop  offset="0" style="stop-color:#03518B"/>
		<stop  offset="0.2972" style="stop-color:#16699B"/>
		<stop  offset="0.9217" style="stop-color:#48A6C4"/>
		<stop  offset="1" style="stop-color:#4FAEC9"/>
	</linearGradient>
	<path class="st15" d="M403.1,325.4c-0.7-0.6-2-1.1-3.7-1.6c-0.1,0-0.3,0-0.5,0c-0.2,0-0.3-0.1-0.6-0.2c-1.8-0.4-2.7-0.9-2.7-1.4
		c0-0.4,0.2-0.7,0.5-0.9c0.3-0.2,0.9-0.3,1.6-0.3c0.7,0,1.3,0.2,1.7,0.5c0.1,0.1,0.3,0.3,0.4,0.4c0.3,0.6,0.9,0.9,1.5,0.9h2.3
		c-0.1-1.4-0.6-2.6-1.6-3.4c-1.1-0.8-2.6-1.2-4.4-1.2c-1.7,0-3.1,0.4-4.1,1.2c-1,0.9-1.5,2-1.5,3.3c0,1.1,0.3,1.9,1.1,2.5
		c0.6,0.6,1.9,1.2,3.8,1.6c0.3,0.1,0.8,0.2,1.4,0.3c1.5,0.3,2.2,0.8,2.2,1.4c0,0.4-0.2,0.8-0.6,1c-0.5,0.2-1,0.4-1.6,0.4
		c-0.9,0-1.6-0.2-2.1-0.5c-0.5-0.3-0.8-0.9-0.8-1.6h-3.6v0.2c0,1.5,0.5,2.7,1.5,3.5c1,0.8,2.5,1.2,4.5,1.2c2.1,0,3.7-0.4,4.7-1.2
		c1.1-0.8,1.7-2.1,1.7-3.6C404.1,326.9,403.8,326,403.1,325.4z"/>
	<linearGradient id="SVGID_17_" gradientUnits="userSpaceOnUse" x1="410.7515" y1="310.0934" x2="410.7515" y2="332.856">
		<stop  offset="0" style="stop-color:#03518B"/>
		<stop  offset="0.2972" style="stop-color:#16699B"/>
		<stop  offset="0.9217" style="stop-color:#48A6C4"/>
		<stop  offset="1" style="stop-color:#4FAEC9"/>
	</linearGradient>
	<path class="st16" d="M411.9,320.9c0.5,0,0.9-0.2,1.3-0.5c0.3-0.3,0.5-0.8,0.5-1.3v-0.7h-2.2V316c0-0.5-0.2-0.9-0.5-1.3
		c-0.3-0.4-0.8-0.5-1.2-0.5h-1.9v15.5c0,1.6,0.7,2.5,2,2.6c1.4,0.1,2.6,0.1,3.8,0v-2.7h-1.1c-0.7,0-1.1-0.3-1.1-0.9v-7.8H411.9z"/>
	<linearGradient id="SVGID_18_" gradientUnits="userSpaceOnUse" x1="431.6396" y1="310.0842" x2="431.6396" y2="332.8573">
		<stop  offset="0" style="stop-color:#03518B"/>
		<stop  offset="0.2972" style="stop-color:#16699B"/>
		<stop  offset="0.9217" style="stop-color:#48A6C4"/>
		<stop  offset="1" style="stop-color:#4FAEC9"/>
	</linearGradient>
	<path class="st17" d="M436.4,319.9c-1.2-1.3-2.8-1.9-4.9-1.9c-2,0-3.6,0.7-4.7,2c-1.1,1.3-1.6,3-1.6,5.3c0,2.4,0.6,4.2,1.7,5.4
		c1.1,1.3,2.7,2,4.7,2c1.7,0,3-0.4,4.1-1.2c1.1-0.8,1.8-1.9,2.2-3.4h-2.7c-0.4,0-0.7,0.1-1,0.3c-0.2,0.2-0.4,0.3-0.4,0.4
		c-0.1,0.1-0.2,0.2-0.3,0.3c-0.1,0.1-0.2,0.1-0.3,0.2c-0.4,0.2-0.9,0.4-1.5,0.4c-0.9,0-1.6-0.3-2.1-0.8c-0.5-0.5-0.8-1.3-0.8-2.4
		h9.1c0-0.1,0.1-0.2,0.1-0.4v-0.6C438.1,323.1,437.6,321.2,436.4,319.9z M428.9,324c0-0.9,0.3-1.6,0.8-2.1s1.1-0.7,1.9-0.7
		c0.8,0,1.5,0.2,2,0.7c0.4,0.5,0.7,1.2,0.7,2.1H428.9z"/>
	<linearGradient id="SVGID_19_" gradientUnits="userSpaceOnUse" x1="444.7377" y1="310.0934" x2="444.7377" y2="332.856">
		<stop  offset="0" style="stop-color:#03518B"/>
		<stop  offset="0.2972" style="stop-color:#16699B"/>
		<stop  offset="0.9217" style="stop-color:#48A6C4"/>
		<stop  offset="1" style="stop-color:#4FAEC9"/>
	</linearGradient>
	<path class="st18" d="M445.8,320.9c0.5,0,0.9-0.2,1.3-0.5c0.4-0.3,0.5-0.8,0.5-1.3v-0.7h-2.2V316c0-0.5-0.2-0.9-0.5-1.3
		c-0.3-0.4-0.8-0.5-1.2-0.5h-1.9v15.5c0,1.6,0.7,2.5,2,2.6c1.4,0.1,2.6,0.1,3.8,0v-2.7h-1.1c-0.7,0-1.1-0.3-1.1-0.9v-7.8H445.8z"/>
</g>
</svg>
