<?xml version="1.0" encoding="utf-8"?>
<!-- Generator: Adobe Illustrator 22.0.1, SVG Export Plug-In . SVG Version: 6.00 Build 0)  -->
<svg version="1.1" id="katman_1" xmlns="http://www.w3.org/2000/svg" xmlns:xlink="http://www.w3.org/1999/xlink" x="0px" y="0px"
	 viewBox="0 0 1246 1160" style="enable-background:new 0 0 1246 1160;" xml:space="preserve">
<style type="text/css">
	.st0{fill:url(#SVGID_1_);}
	.st1{fill:url(#SVGID_2_);}
	.st2{fill:#83C541;}
	.st3{fill:none;}
	.st4{fill:url(#SVGID_3_);}
	.st5{fill:url(#SVGID_4_);}
	.st6{fill:url(#SVGID_5_);}
	.st7{fill:url(#SVGID_6_);}
	.st8{fill:url(#SVGID_7_);}
	.st9{fill:url(#SVGID_8_);}
	.st10{fill:url(#SVGID_9_);}
	.st11{fill:url(#SVGID_10_);}
	.st12{fill:url(#SVGID_11_);}
	.st13{fill:url(#SVGID_12_);}
	.st14{fill:url(#SVGID_13_);}
	.st15{fill:url(#SVGID_14_);}
	.st16{fill:url(#SVGID_15_);}
	.st17{fill:url(#SVGID_16_);}
	.st18{fill:url(#SVGID_17_);}
	.st19{fill:url(#SVGID_18_);}
	.st20{fill:url(#SVGID_19_);}
	.st21{fill:url(#SVGID_20_);}
	.st22{fill:url(#SVGID_21_);}
	.st23{fill:url(#SVGID_22_);}
	.st24{fill:url(#SVGID_23_);}
	.st25{fill:url(#SVGID_24_);}
	.st26{fill:url(#SVGID_25_);}
	.st27{fill:url(#SVGID_26_);}
	.st28{fill:url(#SVGID_27_);}
	.st29{fill:url(#SVGID_28_);}
	.st30{fill:url(#SVGID_29_);}
	.st31{fill:url(#SVGID_30_);}
	.st32{fill:url(#SVGID_31_);}
	.st33{fill:url(#SVGID_32_);}
	.st34{fill:#1A98BA;}
	.st35{fill:url(#SVGID_33_);}
	.st36{fill:url(#SVGID_34_);}
	.st37{fill:url(#SVGID_35_);}
	.st38{fill:url(#SVGID_36_);}
	.st39{fill:url(#SVGID_37_);}
	.st40{fill:url(#SVGID_38_);}
	.st41{fill:url(#SVGID_39_);}
	.st42{fill:url(#SVGID_40_);}
	.st43{fill:url(#SVGID_41_);}
	.st44{fill:url(#SVGID_42_);}
	.st45{fill:url(#SVGID_43_);}
	.st46{fill:url(#SVGID_44_);}
	.st47{fill:url(#SVGID_45_);}
	.st48{fill:url(#SVGID_46_);}
	.st49{fill:url(#SVGID_47_);}
	.st50{fill:url(#SVGID_48_);}
	.st51{fill:#FFFFFF;}
	.st52{fill:url(#SVGID_49_);}
	.st53{fill:url(#SVGID_50_);}
	.st54{fill:url(#SVGID_51_);}
	.st55{fill:url(#SVGID_52_);}
	.st56{fill:url(#SVGID_53_);}
	.st57{fill:url(#SVGID_54_);}
	.st58{fill:url(#SVGID_55_);}
	.st59{fill:url(#SVGID_56_);}
	.st60{fill:url(#SVGID_57_);}
	.st61{fill:url(#SVGID_58_);}
	.st62{fill:url(#SVGID_59_);}
	.st63{fill:url(#SVGID_60_);}
	.st64{fill:url(#SVGID_61_);}
	.st65{fill:url(#SVGID_62_);}
	.st66{fill:url(#SVGID_63_);}
	.st67{fill:url(#SVGID_64_);}
	.st68{fill:url(#SVGID_65_);}
	.st69{fill:url(#SVGID_66_);}
	.st70{fill:url(#SVGID_67_);}
	.st71{fill:url(#SVGID_68_);}
	.st72{fill:url(#SVGID_69_);}
	.st73{fill:url(#SVGID_70_);}
	.st74{fill:url(#SVGID_71_);}
	.st75{fill:url(#SVGID_72_);}
	.st76{fill:url(#SVGID_73_);}
	.st77{fill:url(#SVGID_74_);}
	.st78{fill:url(#SVGID_75_);}
	.st79{fill:url(#SVGID_76_);}
	.st80{fill:url(#SVGID_77_);}
	.st81{fill:url(#SVGID_78_);}
	.st82{fill:url(#SVGID_79_);}
	.st83{fill:url(#SVGID_80_);}
	.st84{fill:url(#SVGID_81_);}
	.st85{fill:url(#SVGID_82_);}
	.st86{fill:url(#SVGID_83_);}
	.st87{fill:url(#SVGID_84_);}
	.st88{fill:url(#SVGID_85_);}
</style>
<linearGradient id="SVGID_1_" gradientUnits="userSpaceOnUse" x1="634.4417" y1="548.243" x2="571.3691" y2="611.3156">
	<stop  offset="0" style="stop-color:#03518B"/>
	<stop  offset="0.2972" style="stop-color:#16699B"/>
	<stop  offset="0.9217" style="stop-color:#48A6C4"/>
	<stop  offset="1" style="stop-color:#4FAEC9"/>
</linearGradient>
<path class="st0" d="M600.1,530.9c-16,0-30.2,7.6-39.3,19.3c-6.5,8.4-10.3,18.9-10.3,30.3c0,27.4,22.2,57.5,49.6,57.5
	c2.7,0,5.3-0.3,7.8-0.8c-0.9-1.7-1.4-3.6-1.4-5.6c0-6.5,5.3-11.8,11.8-11.8H633c0.7,0,1.3,0.1,2,0.2c3.1-3.7,5.8-7.9,8-12.2
	c4.3-8.5,6.8-18,6.8-27.1C649.7,553.2,627.5,530.9,600.1,530.9z"/>
<linearGradient id="SVGID_2_" gradientUnits="userSpaceOnUse" x1="635.6249" y1="549.4307" x2="572.5536" y2="612.5021">
	<stop  offset="0" style="stop-color:#03518B"/>
	<stop  offset="0.2972" style="stop-color:#16699B"/>
	<stop  offset="0.9217" style="stop-color:#48A6C4"/>
	<stop  offset="1" style="stop-color:#4FAEC9"/>
</linearGradient>
<path class="st1" d="M664.8,564.8c-6.4-30.4-33.3-52.3-64.7-52.3c-31.3,0-58.2,21.9-64.7,52.3c-3.6,0.6-6.4,3.8-6.4,7.5V608
	c0,4.2,3.4,7.6,7.6,7.6h3.6c4.2,0,7.6-3.4,7.6-7.6v-35.7c0-2.7-1.4-5.1-3.6-6.5c5.9-25.9,29-44.5,55.8-44.5
	c26.8,0,49.9,18.6,55.8,44.5c-2.1,1.4-3.6,3.7-3.6,6.5V608c0,3.4,2.3,6.4,5.4,7.3c-0.9,2.8-3.1,5.5-6.2,7.7
	c-3.7,2.5-8.3,4.1-13.3,4.8c-0.7-0.9-1.6-1.7-2.7-2.2c-0.8-0.3-1.6-0.5-2.5-0.5h-14.6c-3.6,0-6.5,2.9-6.5,6.5l0,0
	c0,3.6,2.9,6.5,6.5,6.5h14.6c1.3,0,2.5-0.4,3.5-1.1c0.8-0.6,1.6-1.3,2.1-2.2c6.4-0.7,12.2-2.8,16.9-6c5.2-3.6,8.5-8.2,9.5-13.2
	c3.6-0.7,6.3-3.8,6.3-7.5v-35.7C671.2,568.5,668.4,565.3,664.8,564.8z"/>
<g>
	<path class="st2" d="M703.1,581.2c0-0.4,0-0.9,0-1.3c-1.2-55.5-46.6-100.3-102.4-100.6c-0.2,0-0.3,0-0.5,0c-0.2,0-0.3,0-0.5,0
		c-55.5,0.3-100.8,44.7-102.4,100c0,0.4,0,0.9,0,1.3c0,0.6,0,1.1,0,1.7c0,35.8,18.4,67.5,46.3,85.9c0.3,0.2,0.6,0.4,0.8,0.6
		c16.1,10.4,35.2,16.5,55.8,16.5c20.9,0,40.3-6.3,56.6-17c0.3-0.2,0.6-0.4,0.8-0.6c27.4-18.5,45.5-49.9,45.5-85.4
		C703.1,581.9,703.1,581.5,703.1,581.2z M600.1,681.1c-54.6,0-98.9-44.4-98.9-98.9c0-54.6,44.4-98.9,98.9-98.9
		c54.5,0,98.9,44.4,98.9,98.9C699.1,636.7,654.7,681.1,600.1,681.1z"/>
</g>
<path class="st3" d="M764.5,756.7c0,5.5-4.5,10-10,10s-10-4.5-10-10c0-5.5,4.5-9.9,10-9.9S764.5,751.2,764.5,756.7z"/>
<radialGradient id="SVGID_3_" cx="578.3091" cy="334.8666" r="31.2927" gradientUnits="userSpaceOnUse">
	<stop  offset="0" style="stop-color:#4FAEC9"/>
	<stop  offset="0.3541" style="stop-color:#1392B4"/>
	<stop  offset="0.7359" style="stop-color:#09699A"/>
	<stop  offset="1" style="stop-color:#03518B"/>
</radialGradient>
<path class="st4" d="M597.3,349.6C597.3,349.6,597.3,349.6,597.3,349.6c-2.2-2.9-5.2-5.1-8.6-6.3c4.1-3,6.8-8.5,6.8-13.4
	c0-7.1-5.8-12.9-12.9-12.9c-7.1,0-12.9,5.8-12.9,12.9c0,4.9,2.8,10.4,6.8,13.4c-7.2,2.5-12.3,9.3-12.3,17.3v1.6h30.7v-3.2h-27.4
	c0.8-7.6,7.3-13.6,15.1-13.6c0,0,0,0,0,0c0,0,0,0,0,0c5,0,9.6,2.4,12.4,6.4c0.3,0.4,0.6,0.9,0.9,1.4l2.8-1.5
	C598.2,351,597.8,350.3,597.3,349.6z M582.6,342.3C582.6,342.3,582.6,342.3,582.6,342.3C582.6,342.3,582.6,342.3,582.6,342.3
	c-5.3,0-9.7-6.8-9.7-12.3c0-5.4,4.4-9.7,9.7-9.7c5.4,0,9.7,4.4,9.7,9.7C592.3,335.5,587.8,342.3,582.6,342.3z"/>
<radialGradient id="SVGID_4_" cx="626.5632" cy="339.8672" r="23.7737" gradientUnits="userSpaceOnUse">
	<stop  offset="0" style="stop-color:#B0D692"/>
	<stop  offset="0.4657" style="stop-color:#8BC541"/>
	<stop  offset="0.9394" style="stop-color:#388E38"/>
</radialGradient>
<path class="st5" d="M627,344.5c3.5-2.6,5.8-7.3,5.8-11.6c0-6.5-5.3-11.7-11.7-11.7c-6.5,0-11.7,5.3-11.7,11.7
	c0,4.2,2.3,8.9,5.8,11.6c-2.9,1.1-5.4,3-7.3,5.5c-0.3,0.3-0.5,0.7-0.7,1l2.7,1.7c0.1-0.1,0.2-0.3,0.3-0.4c2.5-3.6,6.6-5.8,11-5.8
	c6.9,0,12.5,5.2,13.3,11.8h-24.6v3.2h27.8V360C637.7,352.9,633.2,346.9,627,344.5z M621.1,343.4c-4.6,0-8.5-5.8-8.5-10.5
	c0-4.7,3.8-8.5,8.5-8.5s8.5,3.8,8.5,8.5C629.6,337.6,625.7,343.4,621.1,343.4z"/>
<radialGradient id="SVGID_5_" cx="602.5594" cy="363.8717" r="13.7579" gradientUnits="userSpaceOnUse">
	<stop  offset="8.658010e-03" style="stop-color:#C66D98"/>
	<stop  offset="0.5467" style="stop-color:#A8479A"/>
	<stop  offset="0.9394" style="stop-color:#781D75"/>
</radialGradient>
<path class="st6" d="M607.6,365.5c1.2-1,2.2-2.4,2.9-3.9c0.5-1,0.8-2.1,0.9-3.2c0-0.4,0.1-0.8,0.1-1.2c0-1.8-0.5-3.4-1.4-4.8
	c-0.6-0.9-1.3-1.8-2.2-2.4c-1.5-1.2-3.4-1.9-5.5-1.9c-1.9,0-3.6,0.6-5.1,1.6c0,0,0,0,0,0c-0.9,0.6-1.7,1.4-2.3,2.3
	c-1.1,1.5-1.7,3.3-1.7,5.3c0,0.6,0.1,1.3,0.2,1.9c0.2,1.1,0.6,2.2,1.1,3.2c0.7,1.2,1.5,2.4,2.6,3.3c-4.4,2-7.5,6.4-7.5,11.6v1.6H615
	v-1.6C615,371.9,612,367.5,607.6,365.5z M596.5,357.2c0-3.3,2.6-5.9,5.9-5.9s5.9,2.7,5.9,5.9s-2.6,7.2-5.9,7.2
	C599.1,364.4,596.5,360.4,596.5,357.2z M593,375.5c0.8-4.5,4.7-7.9,9.4-7.9c4.7,0,8.6,3.4,9.4,7.9H593z"/>
<g>
	<linearGradient id="SVGID_6_" gradientUnits="userSpaceOnUse" x1="565.2648" y1="406.8729" x2="565.2648" y2="386.8716">
		<stop  offset="0" style="stop-color:#9F9F9F"/>
		<stop  offset="1" style="stop-color:#000000"/>
	</linearGradient>
	<path class="st7" d="M566.4,386.6h-1.6c-0.5,0-0.8,0.2-1,0.7l-3.3,9.4h2.2l0.6-2.1h3.9l0.7,2.1h2.2L566.4,386.6z M563.8,392.9
		l1.4-4.3l1.4,4.3H563.8z"/>
	<linearGradient id="SVGID_7_" gradientUnits="userSpaceOnUse" x1="572.3598" y1="406.8729" x2="572.3598" y2="386.8716">
		<stop  offset="0" style="stop-color:#9F9F9F"/>
		<stop  offset="1" style="stop-color:#000000"/>
	</linearGradient>
	<path class="st8" d="M573.1,386.9c-0.2-0.2-0.4-0.3-0.7-0.3h-1v1.6h2v-0.6C573.4,387.4,573.3,387.1,573.1,386.9z M573.1,389.2
		c-0.2-0.2-0.4-0.3-0.7-0.3h-1v7.8h2v-6.8C573.4,389.6,573.3,389.4,573.1,389.2z"/>
	<linearGradient id="SVGID_8_" gradientUnits="userSpaceOnUse" x1="575.6448" y1="406.8729" x2="575.6448" y2="386.8716">
		<stop  offset="0" style="stop-color:#9F9F9F"/>
		<stop  offset="1" style="stop-color:#000000"/>
	</linearGradient>
	<path class="st9" d="M576.4,386.9c-0.2-0.2-0.4-0.3-0.7-0.3h-1v10h2v-9.1C576.7,387.3,576.6,387.1,576.4,386.9z"/>
	<linearGradient id="SVGID_9_" gradientUnits="userSpaceOnUse" x1="581.1598" y1="406.8611" x2="581.1598" y2="386.8712">
		<stop  offset="0" style="stop-color:#9F9F9F"/>
		<stop  offset="1" style="stop-color:#000000"/>
	</linearGradient>
	<path class="st10" d="M583.8,389.8c-0.6-0.7-1.5-1-2.7-1c-1.1,0-2,0.4-2.6,1.1c-0.6,0.7-0.9,1.7-0.9,2.9c0,1.3,0.3,2.3,0.9,3
		c0.6,0.7,1.5,1.1,2.6,1.1c0.9,0,1.7-0.2,2.3-0.7c0.6-0.4,1-1.1,1.2-1.9h-1.5c-0.2,0-0.4,0.1-0.5,0.2c-0.1,0.1-0.2,0.2-0.2,0.2
		c-0.1,0.1-0.1,0.1-0.2,0.2c0,0.1-0.1,0.1-0.2,0.1c-0.2,0.1-0.5,0.2-0.9,0.2c-0.5,0-0.9-0.2-1.1-0.5c-0.3-0.3-0.4-0.7-0.4-1.3h5.1
		c0,0,0-0.1,0-0.2v-0.3C584.7,391.5,584.4,390.5,583.8,389.8z M579.7,392c0-0.5,0.2-0.9,0.4-1.2c0.3-0.3,0.6-0.4,1.1-0.4
		c0.5,0,0.8,0.1,1.1,0.4c0.2,0.3,0.4,0.6,0.4,1.2H579.7z"/>
	<linearGradient id="SVGID_10_" gradientUnits="userSpaceOnUse" x1="593.9098" y1="406.8729" x2="593.9098" y2="386.8716">
		<stop  offset="0" style="stop-color:#9F9F9F"/>
		<stop  offset="1" style="stop-color:#000000"/>
	</linearGradient>
	<path class="st11" d="M591,386.6c-0.3,0-0.5,0.1-0.8,0.3c-0.2,0.2-0.3,0.4-0.3,0.8v0.7h3v8.3h2.1v-8.3h2.9v-1.8H591z"/>
	<linearGradient id="SVGID_11_" gradientUnits="userSpaceOnUse" x1="602.4298" y1="406.8611" x2="602.4298" y2="386.8712">
		<stop  offset="0" style="stop-color:#9F9F9F"/>
		<stop  offset="1" style="stop-color:#000000"/>
	</linearGradient>
	<path class="st12" d="M605.1,389.8c-0.6-0.7-1.5-1-2.7-1c-1.1,0-2,0.4-2.6,1.1c-0.6,0.7-0.9,1.7-0.9,2.9c0,1.3,0.3,2.3,0.9,3
		c0.6,0.7,1.5,1.1,2.6,1.1c0.9,0,1.7-0.2,2.3-0.7c0.6-0.4,1-1.1,1.2-1.9h-1.5c-0.2,0-0.4,0.1-0.5,0.2c-0.1,0.1-0.2,0.2-0.2,0.2
		c-0.1,0.1-0.1,0.1-0.2,0.2c0,0.1-0.1,0.1-0.2,0.1c-0.2,0.1-0.5,0.2-0.8,0.2c-0.5,0-0.9-0.2-1.1-0.5c-0.3-0.3-0.4-0.7-0.4-1.3h5
		c0,0,0-0.1,0-0.2v-0.3C606,391.5,605.7,390.5,605.1,389.8z M600.9,392c0-0.5,0.2-0.9,0.4-1.2c0.3-0.3,0.6-0.4,1-0.4
		c0.5,0,0.8,0.1,1.1,0.4c0.2,0.3,0.4,0.6,0.4,1.2H600.9z"/>
	<linearGradient id="SVGID_12_" gradientUnits="userSpaceOnUse" x1="609.2648" y1="406.8814" x2="609.2648" y2="386.8633">
		<stop  offset="0" style="stop-color:#9F9F9F"/>
		<stop  offset="1" style="stop-color:#000000"/>
	</linearGradient>
	<path class="st13" d="M611.2,388.9c-0.5,0-1,0.1-1.5,0.2c-0.5,0.1-0.9,0.3-1.3,0.6c-0.4,0.3-0.7,0.7-0.9,1.2
		c-0.2,0.5-0.3,1.2-0.3,1.9v3.8h2v-4c0-0.6,0.1-1,0.4-1.3c0.3-0.3,0.7-0.4,1.3-0.4h0.7v-2.1H611.2z"/>
	<linearGradient id="SVGID_13_" gradientUnits="userSpaceOnUse" x1="615.5148" y1="406.8611" x2="615.5148" y2="386.8712">
		<stop  offset="0" style="stop-color:#9F9F9F"/>
		<stop  offset="1" style="stop-color:#000000"/>
	</linearGradient>
	<path class="st14" d="M618,389.3c-0.6-0.4-1.4-0.5-2.5-0.5c-1,0-1.7,0.2-2.2,0.7c-0.5,0.4-0.7,0.9-0.8,1.5h2
		c0.1-0.2,0.3-0.4,0.5-0.4c0.2-0.1,0.5-0.1,0.7-0.1c0.3,0,0.5,0.1,0.8,0.1c0.3,0.1,0.5,0.3,0.5,0.6c0,0.4-0.4,0.6-1.3,0.8
		c-0.2,0-0.3,0.1-0.5,0.1c-0.1,0-0.3,0.1-0.3,0.1c-0.7,0.1-1.4,0.3-1.8,0.7s-0.7,0.9-0.7,1.8c0,0.9,0.3,1.5,0.8,1.9
		c0.5,0.4,1.1,0.6,1.8,0.6c0.4,0,0.8,0,1.2-0.1c0.5,0,0.9-0.2,1.3-0.4c0.4-0.2,0.7-0.5,1-0.9c0.3-0.4,0.4-1.1,0.4-1.8v-2.6
		C618.8,390.2,618.5,389.7,618,389.3z M616.9,393.5c0,0.5-0.2,1-0.5,1.3c-0.3,0.3-0.7,0.5-1.3,0.5c-0.3,0-0.6-0.1-0.8-0.2
		c-0.2-0.2-0.3-0.4-0.3-0.7c0-0.2,0.1-0.4,0.2-0.6c0.1-0.2,0.4-0.3,0.8-0.4l0.7-0.1c0.5-0.1,0.9-0.2,1.1-0.4V393.5z"/>
	<linearGradient id="SVGID_14_" gradientUnits="userSpaceOnUse" x1="623.4998" y1="406.8732" x2="623.4998" y2="386.8699">
		<stop  offset="0" style="stop-color:#9F9F9F"/>
		<stop  offset="1" style="stop-color:#000000"/>
	</linearGradient>
	<path class="st15" d="M626.3,389.8c-0.3-0.3-0.7-0.6-1.2-0.8c-0.5-0.2-1-0.3-1.5-0.3c-0.9,0-1.8,0.3-2.6,0.7
		c-0.8,0.5-1.2,1.4-1.2,2.8v7.3h1c0.3,0,0.5-0.1,0.7-0.3c0.2-0.2,0.3-0.4,0.3-0.7v-2.9c0.2,0.4,0.5,0.7,0.9,0.9
		c0.4,0.2,0.8,0.3,1.3,0.3c0.9,0,1.7-0.4,2.3-1.1c0.6-0.8,0.9-1.8,0.9-3C627.2,391.5,626.9,390.6,626.3,389.8z M624.7,394.5
		c-0.3,0.4-0.7,0.6-1.2,0.6c-0.5,0-1-0.2-1.3-0.6c-0.3-0.4-0.4-0.9-0.4-1.7c0-0.8,0.1-1.4,0.4-1.8c0.3-0.4,0.7-0.6,1.2-0.6
		c0.5,0,1,0.2,1.3,0.6c0.3,0.4,0.4,1,0.4,1.8C625.1,393.5,625,394.1,624.7,394.5z"/>
	<linearGradient id="SVGID_15_" gradientUnits="userSpaceOnUse" x1="629.3348" y1="406.8729" x2="629.3348" y2="386.8716">
		<stop  offset="0" style="stop-color:#9F9F9F"/>
		<stop  offset="1" style="stop-color:#000000"/>
	</linearGradient>
	<path class="st16" d="M630.1,386.9c-0.2-0.2-0.4-0.3-0.7-0.3h-1v1.6h2v-0.6C630.4,387.4,630.3,387.1,630.1,386.9z M630.1,389.2
		c-0.2-0.2-0.4-0.3-0.7-0.3h-1v7.8h2v-6.8C630.4,389.6,630.3,389.4,630.1,389.2z"/>
	<linearGradient id="SVGID_16_" gradientUnits="userSpaceOnUse" x1="634.7848" y1="406.8611" x2="634.7848" y2="386.8712">
		<stop  offset="0" style="stop-color:#9F9F9F"/>
		<stop  offset="1" style="stop-color:#000000"/>
	</linearGradient>
	<path class="st17" d="M637.7,392.8c-0.4-0.3-1.1-0.6-2.1-0.9c-0.1,0-0.2,0-0.3,0c-0.1,0-0.2-0.1-0.3-0.1c-1-0.2-1.5-0.5-1.5-0.8
		c0-0.2,0.1-0.4,0.3-0.5c0.2-0.1,0.5-0.2,0.9-0.2c0.4,0,0.7,0.1,1,0.3c0.1,0.1,0.1,0.2,0.2,0.2c0.2,0.3,0.5,0.5,0.9,0.5h1.3
		c0-0.8-0.3-1.4-0.9-1.9c-0.6-0.5-1.4-0.7-2.4-0.7c-0.9,0-1.7,0.2-2.3,0.7c-0.6,0.5-0.8,1.1-0.8,1.8c0,0.6,0.2,1,0.6,1.4
		c0.4,0.3,1.1,0.6,2.1,0.9c0.2,0.1,0.4,0.1,0.8,0.2c0.8,0.2,1.2,0.4,1.2,0.8c0,0.2-0.1,0.4-0.3,0.5c-0.3,0.1-0.6,0.2-0.9,0.2
		c-0.5,0-0.9-0.1-1.2-0.3c-0.3-0.2-0.4-0.5-0.4-0.9h-2v0.1c0,0.9,0.3,1.5,0.8,2c0.5,0.4,1.4,0.7,2.5,0.7c1.2,0,2.1-0.2,2.6-0.6
		c0.6-0.5,0.9-1.1,0.9-2C638.2,393.6,638,393.1,637.7,392.8z"/>
	<linearGradient id="SVGID_17_" gradientUnits="userSpaceOnUse" x1="640.3748" y1="406.8729" x2="640.3748" y2="386.8716">
		<stop  offset="0" style="stop-color:#9F9F9F"/>
		<stop  offset="1" style="stop-color:#000000"/>
	</linearGradient>
	<path class="st18" d="M641.1,386.9c-0.2-0.2-0.4-0.3-0.7-0.3h-1v1.6h2v-0.6C641.4,387.4,641.3,387.1,641.1,386.9z M641.1,389.2
		c-0.2-0.2-0.4-0.3-0.7-0.3h-1v7.8h2v-6.8C641.4,389.6,641.3,389.4,641.1,389.2z"/>
</g>
<radialGradient id="SVGID_18_" cx="383.6198" cy="497.2037" r="25.9127" gradientUnits="userSpaceOnUse">
	<stop  offset="0" style="stop-color:#B0D692"/>
	<stop  offset="0.4657" style="stop-color:#8BC541"/>
	<stop  offset="0.9394" style="stop-color:#388E38"/>
</radialGradient>
<path class="st19" d="M389.6,501.1c5.5-3.2,9.3-10.5,9.3-16.8c0-8.5-6.9-15.3-15.3-15.3c-8.5,0-15.3,6.9-15.3,15.3
	c0,6.3,3.8,13.5,9.3,16.8c-10,2.6-17.5,11.8-17.5,22.7v1.6h46.9v-1.6C407.1,512.9,399.6,503.8,389.6,501.1z M371.4,484.4
	c0-6.7,5.5-12.2,12.2-12.2c6.7,0,12.2,5.5,12.2,12.2c0,6.9-5.6,15.3-12.2,15.3C377.1,499.7,371.4,491.3,371.4,484.4z M363.4,522.2
	c0.8-10.5,9.6-18.7,20.2-18.7c10.7,0,19.4,8.3,20.3,18.7H363.4z"/>
<g>
	<linearGradient id="SVGID_19_" gradientUnits="userSpaceOnUse" x1="344.3748" y1="553.3611" x2="344.3748" y2="533.8441">
		<stop  offset="0" style="stop-color:#9F9F9F"/>
		<stop  offset="1" style="stop-color:#000000"/>
	</linearGradient>
	<path class="st20" d="M347.7,539.9c-0.2-0.3-0.6-0.6-1-0.8c0.3-0.2,0.6-0.4,0.8-0.7c0.2-0.3,0.3-0.7,0.3-1.1c0-0.7-0.2-1.3-0.7-1.7
		c-0.5-0.4-1.2-0.6-2.1-0.6h-3.2c-0.3,0-0.5,0.1-0.6,0.3c-0.2,0.2-0.3,0.4-0.3,0.7v7.9h4c1,0,1.8-0.2,2.4-0.7c0.5-0.5,0.8-1.2,0.8-2
		C348,540.6,347.9,540.2,347.7,539.9z M342.5,536.6h2c0.5,0,0.8,0.1,1,0.2c0.2,0.2,0.3,0.4,0.3,0.7c0,0.3-0.1,0.6-0.3,0.7
		c-0.2,0.2-0.5,0.2-1,0.2h-2.1V536.6z M345.8,542c-0.3,0.2-0.6,0.3-1.1,0.3h-2.1v-2.3h2.1c0.5,0,0.9,0.1,1.1,0.3
		c0.2,0.2,0.4,0.5,0.4,0.9C346.1,541.5,346,541.8,345.8,542z"/>
	<linearGradient id="SVGID_20_" gradientUnits="userSpaceOnUse" x1="349.9648" y1="553.3611" x2="349.9648" y2="533.8441">
		<stop  offset="0" style="stop-color:#9F9F9F"/>
		<stop  offset="1" style="stop-color:#000000"/>
	</linearGradient>
	<path class="st21" d="M350.6,535.3c-0.2-0.2-0.4-0.3-0.6-0.3h-0.9v1.4h1.8v-0.5C350.9,535.6,350.8,535.4,350.6,535.3z M350.6,537.3
		c-0.2-0.2-0.4-0.3-0.6-0.3h-0.9v6.8h1.8v-6C350.9,537.7,350.8,537.4,350.6,537.3z"/>
	<linearGradient id="SVGID_21_" gradientUnits="userSpaceOnUse" x1="353.8048" y1="553.3641" x2="353.8048" y2="533.841">
		<stop  offset="0" style="stop-color:#9F9F9F"/>
		<stop  offset="1" style="stop-color:#000000"/>
	</linearGradient>
	<path class="st22" d="M355.5,537c-0.5,0-0.9,0.1-1.3,0.2c-0.4,0.1-0.8,0.3-1.1,0.6c-0.3,0.3-0.6,0.6-0.8,1.1
		c-0.2,0.4-0.3,1-0.3,1.7v3.3h1.8v-3.5c0-0.5,0.1-0.9,0.4-1.1c0.2-0.2,0.6-0.4,1.1-0.4h0.6V537H355.5z"/>
	<linearGradient id="SVGID_22_" gradientUnits="userSpaceOnUse" x1="359.5598" y1="553.3625" x2="359.5598" y2="533.8461">
		<stop  offset="0" style="stop-color:#9F9F9F"/>
		<stop  offset="1" style="stop-color:#000000"/>
	</linearGradient>
	<path class="st23" d="M361.9,537.8c-0.6-0.6-1.4-0.9-2.4-0.9c-1,0-1.7,0.3-2.3,0.9c-0.5,0.6-0.8,1.5-0.8,2.6c0,1.1,0.3,2,0.8,2.6
		c0.5,0.6,1.3,1,2.3,1c0.8,0,1.5-0.2,2-0.6c0.5-0.4,0.9-0.9,1.1-1.6h-1.3c-0.2,0-0.4,0-0.5,0.1c-0.1,0.1-0.2,0.2-0.2,0.2
		c-0.1,0.1-0.1,0.1-0.1,0.1c0,0-0.1,0.1-0.1,0.1c-0.2,0.1-0.5,0.2-0.7,0.2c-0.5,0-0.8-0.1-1-0.4c-0.2-0.3-0.4-0.6-0.4-1.2h4.4
		c0,0,0-0.1,0-0.2v-0.3C362.7,539.3,362.4,538.4,361.9,537.8z M358.2,539.7c0-0.4,0.2-0.8,0.4-1s0.5-0.4,0.9-0.4
		c0.4,0,0.7,0.1,1,0.4c0.2,0.2,0.3,0.6,0.4,1H358.2z"/>
	<linearGradient id="SVGID_23_" gradientUnits="userSpaceOnUse" x1="366.9598" y1="553.373" x2="366.9598" y2="533.8393">
		<stop  offset="0" style="stop-color:#9F9F9F"/>
		<stop  offset="1" style="stop-color:#000000"/>
	</linearGradient>
	<path class="st24" d="M369,537c-0.4,0-0.7,0.2-0.8,0.6l-1.2,4.2l-1.4-4.8h-2l2.4,6.8c0.1,0.4,0.1,0.6-0.1,0.8
		c-0.2,0.2-0.5,0.2-0.8,0.2h-0.5v1.4c0,0,0.1,0,0.2,0c0.1,0,0.1,0,0.2,0h0.4c0.7,0,1.2-0.1,1.5-0.3c0.3-0.2,0.6-0.6,0.8-1.2l2.6-7.8
		H369z"/>
	<linearGradient id="SVGID_24_" gradientUnits="userSpaceOnUse" x1="374.1148" y1="553.3625" x2="374.1148" y2="533.8461">
		<stop  offset="0" style="stop-color:#9F9F9F"/>
		<stop  offset="1" style="stop-color:#000000"/>
	</linearGradient>
	<path class="st25" d="M376.7,540.4c-0.3-0.3-0.9-0.6-1.8-0.8c-0.1,0-0.1,0-0.2,0s-0.2,0-0.3-0.1c-0.9-0.2-1.3-0.4-1.3-0.7
		c0-0.2,0.1-0.4,0.2-0.5c0.2-0.1,0.4-0.2,0.8-0.2c0.4,0,0.6,0.1,0.8,0.2c0.1,0.1,0.1,0.1,0.2,0.2c0.2,0.3,0.4,0.4,0.7,0.4h1.1
		c0-0.7-0.3-1.2-0.8-1.7c-0.5-0.4-1.2-0.6-2.1-0.6c-0.8,0-1.5,0.2-2,0.6c-0.5,0.4-0.8,1-0.8,1.6c0,0.5,0.2,0.9,0.5,1.2
		c0.3,0.3,0.9,0.6,1.8,0.8c0.1,0.1,0.4,0.1,0.7,0.2c0.7,0.2,1.1,0.4,1.1,0.7c0,0.2-0.1,0.4-0.3,0.5c-0.2,0.1-0.5,0.2-0.8,0.2
		c-0.4,0-0.8-0.1-1-0.3c-0.2-0.2-0.4-0.4-0.4-0.8h-1.7v0.1c0,0.8,0.3,1.3,0.7,1.7c0.5,0.4,1.2,0.6,2.2,0.6c1,0,1.8-0.2,2.3-0.6
		c0.5-0.4,0.8-1,0.8-1.8C377.1,541.2,377,540.7,376.7,540.4z"/>
	<linearGradient id="SVGID_25_" gradientUnits="userSpaceOnUse" x1="381.0698" y1="553.3625" x2="381.0698" y2="533.8461">
		<stop  offset="0" style="stop-color:#9F9F9F"/>
		<stop  offset="1" style="stop-color:#000000"/>
	</linearGradient>
	<path class="st26" d="M383.4,537.8c-0.6-0.6-1.4-0.9-2.4-0.9c-1,0-1.7,0.3-2.3,0.9c-0.5,0.6-0.8,1.5-0.8,2.6c0,1.1,0.3,2,0.8,2.6
		c0.5,0.6,1.3,1,2.3,1c0.8,0,1.5-0.2,2-0.6c0.5-0.4,0.9-0.9,1.1-1.6h-1.3c-0.2,0-0.4,0-0.5,0.1c-0.1,0.1-0.2,0.2-0.2,0.2l-0.1,0.1
		c0,0-0.1,0.1-0.1,0.1c-0.2,0.1-0.5,0.2-0.8,0.2c-0.4,0-0.8-0.1-1-0.4c-0.2-0.3-0.4-0.6-0.4-1.2h4.4c0,0,0-0.1,0-0.2v-0.3
		C384.2,539.3,383.9,538.4,383.4,537.8z M379.8,539.7c0-0.4,0.1-0.8,0.4-1s0.5-0.4,0.9-0.4c0.4,0,0.7,0.1,1,0.4
		c0.2,0.2,0.3,0.6,0.4,1H379.8z"/>
	<linearGradient id="SVGID_26_" gradientUnits="userSpaceOnUse" x1="386.1348" y1="553.3611" x2="386.1348" y2="533.8441">
		<stop  offset="0" style="stop-color:#9F9F9F"/>
		<stop  offset="1" style="stop-color:#000000"/>
	</linearGradient>
	<path class="st27" d="M386.8,535.3c-0.2-0.2-0.4-0.2-0.6-0.2h-0.9v8.8h1.8v-8C387,535.6,386.9,535.4,386.8,535.3z"/>
	<linearGradient id="SVGID_27_" gradientUnits="userSpaceOnUse" x1="395.1298" y1="553.3611" x2="395.1298" y2="533.8441">
		<stop  offset="0" style="stop-color:#9F9F9F"/>
		<stop  offset="1" style="stop-color:#000000"/>
	</linearGradient>
	<path class="st28" d="M392.5,535c-0.3,0-0.5,0.1-0.6,0.3c-0.2,0.2-0.3,0.4-0.3,0.7v0.6h2.6v7.3h1.8v-7.3h2.6V535H392.5z"/>
	<linearGradient id="SVGID_28_" gradientUnits="userSpaceOnUse" x1="402.6298" y1="553.3625" x2="402.6298" y2="533.8461">
		<stop  offset="0" style="stop-color:#9F9F9F"/>
		<stop  offset="1" style="stop-color:#000000"/>
	</linearGradient>
	<path class="st29" d="M405,537.8c-0.6-0.6-1.4-0.9-2.4-0.9c-1,0-1.7,0.3-2.3,0.9c-0.5,0.6-0.8,1.5-0.8,2.6c0,1.1,0.3,2,0.8,2.6
		c0.5,0.6,1.3,1,2.3,1c0.8,0,1.5-0.2,2-0.6c0.5-0.4,0.9-0.9,1.1-1.6h-1.3c-0.2,0-0.4,0-0.5,0.1c-0.1,0.1-0.2,0.2-0.2,0.2
		c-0.1,0.1-0.1,0.1-0.1,0.1c0,0-0.1,0.1-0.1,0.1c-0.2,0.1-0.5,0.2-0.7,0.2c-0.5,0-0.8-0.1-1-0.4c-0.2-0.3-0.4-0.6-0.4-1.2h4.4
		c0,0,0-0.1,0-0.2v-0.3C405.8,539.3,405.5,538.4,405,537.8z M401.3,539.7c0-0.4,0.2-0.8,0.4-1s0.5-0.4,0.9-0.4c0.4,0,0.7,0.1,1,0.4
		c0.2,0.2,0.3,0.6,0.4,1H401.3z"/>
	<linearGradient id="SVGID_29_" gradientUnits="userSpaceOnUse" x1="408.6398" y1="553.3641" x2="408.6398" y2="533.841">
		<stop  offset="0" style="stop-color:#9F9F9F"/>
		<stop  offset="1" style="stop-color:#000000"/>
	</linearGradient>
	<path class="st30" d="M410.3,537c-0.5,0-0.9,0.1-1.3,0.2c-0.4,0.1-0.8,0.3-1.2,0.6c-0.3,0.3-0.6,0.6-0.8,1.1
		c-0.2,0.4-0.3,1-0.3,1.7v3.3h1.8v-3.5c0-0.5,0.1-0.9,0.4-1.1c0.2-0.2,0.6-0.4,1.1-0.4h0.6V537H410.3z"/>
	<linearGradient id="SVGID_30_" gradientUnits="userSpaceOnUse" x1="414.1398" y1="553.3625" x2="414.1398" y2="533.8461">
		<stop  offset="0" style="stop-color:#9F9F9F"/>
		<stop  offset="1" style="stop-color:#000000"/>
	</linearGradient>
	<path class="st31" d="M416.3,537.4c-0.5-0.3-1.2-0.5-2.2-0.5c-0.8,0-1.5,0.2-2,0.6c-0.4,0.3-0.7,0.8-0.7,1.3h1.7
		c0.1-0.2,0.2-0.3,0.4-0.4c0.2-0.1,0.4-0.1,0.6-0.1c0.2,0,0.5,0,0.7,0.1c0.3,0.1,0.4,0.2,0.4,0.5c0,0.3-0.4,0.6-1.1,0.7
		c-0.2,0-0.3,0-0.4,0.1c-0.1,0-0.2,0-0.3,0c-0.6,0.1-1.2,0.3-1.6,0.6c-0.4,0.3-0.6,0.8-0.6,1.5c0,0.8,0.2,1.3,0.7,1.7
		c0.5,0.3,1,0.5,1.6,0.5c0.3,0,0.7,0,1.1-0.1c0.4-0.1,0.8-0.2,1.2-0.4c0.3-0.2,0.6-0.4,0.9-0.8c0.3-0.4,0.4-0.9,0.4-1.6v-2.3
		C417,538.2,416.8,537.7,416.3,537.4z M415.4,541c0,0.5-0.1,0.9-0.4,1.1c-0.3,0.3-0.7,0.4-1.1,0.4c-0.3,0-0.5-0.1-0.7-0.2
		c-0.2-0.2-0.2-0.4-0.2-0.6c0-0.2,0.1-0.4,0.2-0.6c0.1-0.1,0.4-0.3,0.7-0.3l0.6-0.1c0.4-0.1,0.8-0.2,1-0.3V541z"/>
	<linearGradient id="SVGID_31_" gradientUnits="userSpaceOnUse" x1="421.1648" y1="553.3676" x2="421.1648" y2="533.8451">
		<stop  offset="0" style="stop-color:#9F9F9F"/>
		<stop  offset="1" style="stop-color:#000000"/>
	</linearGradient>
	<path class="st32" d="M423.6,537.8c-0.3-0.3-0.6-0.5-1-0.7c-0.4-0.2-0.9-0.2-1.3-0.2c-0.8,0-1.6,0.2-2.3,0.7c-0.7,0.4-1,1.3-1,2.4
		v6.4h0.9c0.2,0,0.5-0.1,0.6-0.3s0.3-0.4,0.3-0.6v-2.5c0.2,0.4,0.5,0.6,0.8,0.8c0.3,0.2,0.7,0.2,1.1,0.2c0.8,0,1.5-0.3,2-1
		c0.5-0.7,0.8-1.5,0.8-2.6C424.4,539.3,424.1,538.5,423.6,537.8z M422.2,541.9c-0.3,0.4-0.6,0.5-1.1,0.5c-0.5,0-0.8-0.2-1.1-0.5
		c-0.3-0.3-0.4-0.8-0.4-1.5c0-0.7,0.1-1.2,0.4-1.5c0.3-0.4,0.6-0.5,1.1-0.5c0.5,0,0.8,0.2,1.1,0.5c0.3,0.4,0.4,0.9,0.4,1.5
		C422.6,541.1,422.5,541.6,422.2,541.9z"/>
	<linearGradient id="SVGID_32_" gradientUnits="userSpaceOnUse" x1="426.3048" y1="553.3611" x2="426.3048" y2="533.8441">
		<stop  offset="0" style="stop-color:#9F9F9F"/>
		<stop  offset="1" style="stop-color:#000000"/>
	</linearGradient>
	<path class="st33" d="M426.9,535.3c-0.2-0.2-0.4-0.3-0.6-0.3h-0.9v1.4h1.8v-0.5C427.2,535.6,427.1,535.4,426.9,535.3z M426.9,537.3
		c-0.2-0.2-0.4-0.3-0.6-0.3h-0.9v6.8h1.8v-6C427.2,537.7,427.1,537.4,426.9,537.3z"/>
</g>
<g>
	
		<rect x="829.1" y="469.9" transform="matrix(0.7071 -0.7071 0.7071 0.7071 -88.3286 729.9611)" class="st34" width="15.7" height="3.4"/>
</g>
<linearGradient id="SVGID_33_" gradientUnits="userSpaceOnUse" x1="821.4161" y1="525.3167" x2="799.9161" y2="485.8167">
	<stop  offset="2.432432e-02" style="stop-color:#BF4082"/>
	<stop  offset="1" style="stop-color:#F3A1C6"/>
</linearGradient>
<path class="st35" d="M826.5,500.8c0-0.2,0-0.4,0-0.6c0-9.1-7.3-16.5-16.4-16.6c-0.1,0-0.2,0-0.3,0c-1.2,0-2.3,0.1-3.5,0.4
	c-7.5,1.6-13.2,8.3-13.2,16.3c0,8.6,6.5,15.7,14.9,16.5v5.9h-6.3c-1,0-1.7,0.8-1.7,1.7s0.8,1.7,1.7,1.7h6.3v7.5
	c0,0.9,0.8,1.7,1.7,1.7c1,0,1.7-0.8,1.7-1.7v-7.5h6.3c1,0,1.7-0.8,1.7-1.7s-0.8-1.7-1.7-1.7h-6.3v-5.9c6.9-0.7,12.6-5.7,14.3-12.3
	c-1.1,0.2-2.3,0.4-3.5,0.4c-0.1,0-0.2,0-0.3,0c-1.9,5-6.7,8.6-12.4,8.6c-7.3,0-13.2-5.9-13.2-13.2c0-5.9,3.9-10.9,9.2-12.6
	c1.1-0.3,2.3-0.6,3.5-0.6c0.2,0,0.3,0,0.5,0c7.3,0,13.2,5.9,13.2,13.2c0,0.4,0,0.8-0.1,1.2C824.2,501.4,825.4,501.2,826.5,500.8z"/>
<g>
	<linearGradient id="SVGID_34_" gradientUnits="userSpaceOnUse" x1="805.8218" y1="488.2826" x2="839.0919" y2="488.2826">
		<stop  offset="0" style="stop-color:#03518B"/>
		<stop  offset="0.2972" style="stop-color:#16699B"/>
		<stop  offset="0.9217" style="stop-color:#48A6C4"/>
		<stop  offset="1" style="stop-color:#4FAEC9"/>
	</linearGradient>
	<path class="st36" d="M822.5,471.6c-7.7,0-14.2,5.3-16.1,12.4c1.1-0.2,2.3-0.4,3.5-0.4c0.1,0,0.2,0,0.3,0c1.9-5,6.7-8.6,12.4-8.6
		c7.3,0,13.2,5.9,13.2,13.2c0,5.9-3.9,10.9-9.2,12.6c-1.1,0.3-2.3,0.6-3.5,0.6c-0.2,0-0.3,0-0.5,0c-7.3,0-13.2-5.9-13.2-13.2
		c0-0.4,0-0.8,0.1-1.2c-1.2,0-2.4,0.3-3.5,0.6c0,0.2,0,0.4,0,0.6c0,9.1,7.3,16.5,16.4,16.6c0.1,0,0.2,0,0.3,0c1.2,0,2.3-0.1,3.5-0.4
		c7.5-1.6,13.2-8.3,13.2-16.3C839.1,479.1,831.6,471.6,822.5,471.6z"/>
	<linearGradient id="SVGID_35_" gradientUnits="userSpaceOnUse" x1="832.6466" y1="470.0351" x2="844.4423" y2="470.0351">
		<stop  offset="0" style="stop-color:#03518B"/>
		<stop  offset="0.2972" style="stop-color:#16699B"/>
		<stop  offset="0.9217" style="stop-color:#48A6C4"/>
		<stop  offset="1" style="stop-color:#4FAEC9"/>
	</linearGradient>
	<path class="st37" d="M834.4,464.1c-1,0-1.7,0.8-1.7,1.7c0,1,0.8,1.7,1.7,1.7h6.6v6.6c0,1,0.8,1.7,1.7,1.7s1.7-0.8,1.7-1.7v-10.1
		H834.4z"/>
</g>
<g>
	<linearGradient id="SVGID_36_" gradientUnits="userSpaceOnUse" x1="783.5248" y1="556.8616" x2="783.5248" y2="542.3669">
		<stop  offset="0" style="stop-color:#9F9F9F"/>
		<stop  offset="1" style="stop-color:#000000"/>
	</linearGradient>
	<path class="st38" d="M785,548.1c-0.3,0.3-0.8,0.4-1.3,0.4c-0.7,0-1.3-0.3-1.7-0.7c-0.4-0.5-0.6-1.2-0.6-2.1c0-0.9,0.2-1.6,0.6-2.1
		c0.4-0.5,1-0.7,1.7-0.7c0.5,0,1,0.1,1.3,0.4c0.2,0.2,0.3,0.3,0.4,0.5c0.2,0.3,0.4,0.5,0.8,0.5h1c-0.1-0.9-0.4-1.6-1-2.2
		c-0.6-0.5-1.5-0.8-2.5-0.8c-1.3,0-2.3,0.4-3,1.1c-0.7,0.7-1,1.8-1,3.2c0,1.4,0.3,2.5,1,3.2c0.6,0.8,1.6,1.1,2.8,1.1
		c1.1,0,1.9-0.3,2.6-0.8c0.6-0.5,1-1.3,1.1-2.3h-1.7C785.5,547.5,785.3,547.9,785,548.1z"/>
	<linearGradient id="SVGID_37_" gradientUnits="userSpaceOnUse" x1="789.1348" y1="556.8649" x2="789.1348" y2="542.3673">
		<stop  offset="0" style="stop-color:#9F9F9F"/>
		<stop  offset="1" style="stop-color:#000000"/>
	</linearGradient>
	<path class="st39" d="M789.7,541.8c-0.2-0.2-0.3-0.2-0.6-0.2h-0.9v1.3h1.7v-0.5C790,542.2,789.9,542,789.7,541.8z M789.7,543.7
		c-0.2-0.2-0.3-0.2-0.6-0.2h-0.9v6.4h1.7v-5.6C790,544.1,789.9,543.9,789.7,543.7z"/>
	<linearGradient id="SVGID_38_" gradientUnits="userSpaceOnUse" x1="793.7098" y1="556.8614" x2="793.7098" y2="542.371">
		<stop  offset="0" style="stop-color:#9F9F9F"/>
		<stop  offset="1" style="stop-color:#000000"/>
	</linearGradient>
	<path class="st40" d="M795.6,543.9c-0.6-0.4-1.2-0.6-1.9-0.6c-0.7,0-1.3,0.2-1.9,0.6c-0.6,0.4-0.9,1.1-0.9,2.2v3.7h1.7v-4.1
		c0-0.4,0.1-0.7,0.3-0.8c0.2-0.2,0.5-0.3,0.8-0.3c0.3,0,0.5,0.1,0.8,0.3c0.2,0.2,0.3,0.5,0.3,0.8v3.3c0,0.2,0.1,0.4,0.2,0.6
		c0.2,0.2,0.3,0.2,0.6,0.2h0.8v-3.7C796.5,545,796.2,544.2,795.6,543.9z"/>
	<linearGradient id="SVGID_39_" gradientUnits="userSpaceOnUse" x1="800.4148" y1="556.8617" x2="800.4148" y2="542.371">
		<stop  offset="0" style="stop-color:#9F9F9F"/>
		<stop  offset="1" style="stop-color:#000000"/>
	</linearGradient>
	<path class="st41" d="M802.8,546.7c-0.3-0.3-0.9-0.5-1.7-0.7c-0.1,0-0.1,0-0.2,0c-0.1,0-0.2,0-0.3-0.1c-0.8-0.2-1.3-0.4-1.3-0.6
		c0-0.2,0.1-0.3,0.2-0.4c0.2-0.1,0.4-0.2,0.7-0.2c0.3,0,0.6,0.1,0.8,0.2l0.2,0.2c0.2,0.3,0.4,0.4,0.7,0.4h1c0-0.6-0.3-1.2-0.8-1.6
		c-0.5-0.4-1.2-0.6-2-0.6c-0.8,0-1.4,0.2-1.9,0.6c-0.5,0.4-0.7,0.9-0.7,1.5c0,0.5,0.2,0.9,0.5,1.1c0.3,0.3,0.8,0.5,1.7,0.7
		c0.1,0.1,0.4,0.1,0.7,0.2c0.7,0.1,1,0.4,1,0.6c0,0.2-0.1,0.3-0.3,0.4c-0.2,0.1-0.5,0.2-0.8,0.2c-0.4,0-0.7-0.1-1-0.2
		c-0.2-0.2-0.3-0.4-0.4-0.7h-1.6v0.1c0,0.7,0.2,1.2,0.7,1.6c0.5,0.4,1.1,0.5,2,0.5c1,0,1.7-0.2,2.2-0.5c0.5-0.4,0.8-0.9,0.8-1.6
		C803.2,547.3,803.1,546.9,802.8,546.7z"/>
	<linearGradient id="SVGID_40_" gradientUnits="userSpaceOnUse" x1="806.9198" y1="556.8617" x2="806.9198" y2="542.371">
		<stop  offset="0" style="stop-color:#9F9F9F"/>
		<stop  offset="1" style="stop-color:#000000"/>
	</linearGradient>
	<path class="st42" d="M809.1,544.2c-0.5-0.6-1.3-0.9-2.2-0.9c-0.9,0-1.6,0.3-2.1,0.9c-0.5,0.6-0.7,1.4-0.7,2.4
		c0,1.1,0.3,1.9,0.8,2.5c0.5,0.6,1.2,0.9,2.1,0.9c0.8,0,1.4-0.2,1.9-0.5c0.5-0.4,0.8-0.9,1-1.5h-1.2c-0.2,0-0.3,0-0.4,0.1
		c-0.1,0.1-0.2,0.2-0.2,0.2c0,0-0.1,0.1-0.1,0.1s-0.1,0.1-0.1,0.1c-0.2,0.1-0.4,0.2-0.7,0.2c-0.4,0-0.7-0.1-0.9-0.4
		c-0.2-0.2-0.3-0.6-0.4-1.1h4.2c0,0,0-0.1,0-0.2v-0.3C809.9,545.6,809.6,544.8,809.1,544.2z M805.7,546c0-0.4,0.1-0.7,0.4-1
		c0.2-0.2,0.5-0.3,0.9-0.3c0.4,0,0.7,0.1,0.9,0.3c0.2,0.2,0.3,0.5,0.3,1H805.7z"/>
	<linearGradient id="SVGID_41_" gradientUnits="userSpaceOnUse" x1="811.6448" y1="556.8649" x2="811.6448" y2="542.3673">
		<stop  offset="0" style="stop-color:#9F9F9F"/>
		<stop  offset="1" style="stop-color:#000000"/>
	</linearGradient>
	<path class="st43" d="M812.2,541.8c-0.2-0.1-0.3-0.2-0.6-0.2h-0.9v8.3h1.7v-7.5C812.5,542.2,812.4,542,812.2,541.8z"/>
	<linearGradient id="SVGID_42_" gradientUnits="userSpaceOnUse" x1="820.0498" y1="556.8649" x2="820.0498" y2="542.3673">
		<stop  offset="0" style="stop-color:#9F9F9F"/>
		<stop  offset="1" style="stop-color:#000000"/>
	</linearGradient>
	<path class="st44" d="M817.6,541.6c-0.2,0-0.4,0.1-0.6,0.3c-0.2,0.2-0.3,0.4-0.3,0.6v0.6h2.4v6.8h1.7v-6.8h2.4v-1.5H817.6z"/>
	<linearGradient id="SVGID_43_" gradientUnits="userSpaceOnUse" x1="827.0548" y1="556.8617" x2="827.0548" y2="542.371">
		<stop  offset="0" style="stop-color:#9F9F9F"/>
		<stop  offset="1" style="stop-color:#000000"/>
	</linearGradient>
	<path class="st45" d="M829.2,544.2c-0.5-0.6-1.3-0.9-2.2-0.9c-0.9,0-1.6,0.3-2.1,0.9c-0.5,0.6-0.8,1.4-0.8,2.4
		c0,1.1,0.3,1.9,0.8,2.5c0.5,0.6,1.2,0.9,2.1,0.9c0.8,0,1.4-0.2,1.9-0.5c0.5-0.4,0.8-0.9,1-1.5h-1.2c-0.2,0-0.3,0-0.4,0.1
		c-0.1,0.1-0.2,0.2-0.2,0.2c0,0-0.1,0.1-0.1,0.1c0,0-0.1,0.1-0.1,0.1c-0.2,0.1-0.4,0.2-0.7,0.2c-0.4,0-0.7-0.1-0.9-0.4
		c-0.2-0.2-0.3-0.6-0.4-1.1h4.2c0,0,0-0.1,0-0.2v-0.3C830,545.6,829.7,544.8,829.2,544.2z M825.8,546c0-0.4,0.1-0.7,0.4-1
		c0.2-0.2,0.5-0.3,0.9-0.3c0.4,0,0.7,0.1,0.9,0.3c0.2,0.2,0.3,0.5,0.3,1H825.8z"/>
	<linearGradient id="SVGID_44_" gradientUnits="userSpaceOnUse" x1="832.6698" y1="556.8656" x2="832.6698" y2="542.3666">
		<stop  offset="0" style="stop-color:#9F9F9F"/>
		<stop  offset="1" style="stop-color:#000000"/>
	</linearGradient>
	<path class="st46" d="M834.2,543.5c-0.4,0-0.8,0.1-1.3,0.2c-0.4,0.1-0.8,0.3-1.1,0.5c-0.3,0.3-0.6,0.6-0.8,1
		c-0.2,0.4-0.3,0.9-0.3,1.6v3.1h1.7v-3.3c0-0.5,0.1-0.8,0.3-1.1c0.2-0.2,0.6-0.3,1-0.3h0.6v-1.7H834.2z"/>
	<linearGradient id="SVGID_45_" gradientUnits="userSpaceOnUse" x1="837.8048" y1="556.8617" x2="837.8048" y2="542.371">
		<stop  offset="0" style="stop-color:#9F9F9F"/>
		<stop  offset="1" style="stop-color:#000000"/>
	</linearGradient>
	<path class="st47" d="M839.8,543.8c-0.4-0.3-1.1-0.4-2-0.4c-0.8,0-1.4,0.2-1.8,0.6c-0.4,0.3-0.6,0.7-0.7,1.2h1.6
		c0.1-0.2,0.2-0.3,0.4-0.4c0.2-0.1,0.4-0.1,0.6-0.1c0.2,0,0.4,0,0.7,0.1c0.3,0.1,0.4,0.2,0.4,0.5c0,0.3-0.4,0.5-1.1,0.6
		c-0.1,0-0.3,0-0.4,0.1c-0.1,0-0.2,0-0.3,0c-0.6,0.1-1.1,0.3-1.5,0.6c-0.4,0.3-0.6,0.8-0.6,1.4c0,0.7,0.2,1.2,0.7,1.5
		c0.4,0.3,0.9,0.5,1.5,0.5c0.3,0,0.6,0,1-0.1c0.4,0,0.7-0.2,1.1-0.3c0.3-0.2,0.6-0.4,0.8-0.8c0.2-0.4,0.4-0.9,0.4-1.5v-2.2
		C840.5,544.5,840.3,544.1,839.8,543.8z M838.9,547.2c0,0.4-0.1,0.8-0.4,1c-0.3,0.3-0.6,0.4-1.1,0.4c-0.3,0-0.5-0.1-0.6-0.2
		c-0.2-0.1-0.2-0.3-0.2-0.6c0-0.2,0.1-0.4,0.2-0.5c0.1-0.1,0.3-0.2,0.6-0.3l0.5-0.1c0.4-0.1,0.7-0.2,0.9-0.3V547.2z"/>
	<linearGradient id="SVGID_46_" gradientUnits="userSpaceOnUse" x1="844.3648" y1="556.8629" x2="844.3648" y2="542.3709">
		<stop  offset="0" style="stop-color:#9F9F9F"/>
		<stop  offset="1" style="stop-color:#000000"/>
	</linearGradient>
	<path class="st48" d="M846.7,544.2c-0.2-0.3-0.6-0.5-1-0.7c-0.4-0.2-0.8-0.2-1.2-0.2c-0.8,0-1.5,0.2-2.1,0.6c-0.7,0.4-1,1.2-1,2.3
		v6h0.8c0.2,0,0.4-0.1,0.6-0.2s0.2-0.3,0.2-0.6V549c0.2,0.3,0.5,0.6,0.8,0.8c0.3,0.1,0.7,0.2,1.1,0.2c0.8,0,1.4-0.3,1.8-0.9
		c0.5-0.6,0.7-1.4,0.7-2.4C847.4,545.6,847.1,544.8,846.7,544.2z M845.4,548c-0.2,0.3-0.6,0.5-1,0.5c-0.5,0-0.8-0.2-1-0.5
		c-0.2-0.3-0.4-0.8-0.4-1.4c0-0.7,0.1-1.1,0.3-1.4c0.2-0.3,0.6-0.5,1-0.5c0.4,0,0.8,0.2,1,0.5c0.2,0.3,0.4,0.8,0.4,1.4
		C845.7,547.3,845.6,547.7,845.4,548z"/>
	<linearGradient id="SVGID_47_" gradientUnits="userSpaceOnUse" x1="849.1648" y1="556.8649" x2="849.1648" y2="542.3673">
		<stop  offset="0" style="stop-color:#9F9F9F"/>
		<stop  offset="1" style="stop-color:#000000"/>
	</linearGradient>
	<path class="st49" d="M849.8,541.8c-0.2-0.2-0.4-0.2-0.6-0.2h-0.9v1.3h1.7v-0.5C850,542.2,849.9,542,849.8,541.8z M849.8,543.7
		c-0.2-0.2-0.4-0.2-0.6-0.2h-0.9v6.4h1.7v-5.6C850,544.1,849.9,543.9,849.8,543.7z"/>
</g>
<linearGradient id="SVGID_48_" gradientUnits="userSpaceOnUse" x1="719.0574" y1="754.4437" x2="767.7748" y2="754.4437">
	<stop  offset="0" style="stop-color:#03518B"/>
	<stop  offset="0.2972" style="stop-color:#16699B"/>
	<stop  offset="0.9217" style="stop-color:#48A6C4"/>
	<stop  offset="1" style="stop-color:#4FAEC9"/>
</linearGradient>
<path class="st50" d="M762.9,760.5c0.5-0.7,1-1.4,1.4-2c2.3-3.5,3.4-6.9,3.4-10.1c0-5.8-2-11-5.7-14.9c-3.5-3.6-10.1-6.2-16.2-6.2
	c-4.8,0-10.3,1.8-15.2,5c-4.3,2.8-5.1,8.4-5.4,12.4c-0.1,2.3-0.4,4.8-1.7,7c-0.7,1.2-1.9,1.8-3,2.4c-1.2,0.6-2.2,1.5-1,2.8
	c0.8,0.9,2.3,1.5,2.8,2.6c0.4,0.8-1,1.6-0.8,2.3c0.3,1.3,3.1,2.1,2.1,3.3c-2.3,2.8,0.7,2.1,1.3,4.5c0.2,0.9-0.6,1.5-0.6,2.4
	c0.1,4,7.3,1.9,9.4,1.6c2-0.2,4.3,0,5.5,1.8c0.9,1.4,0.9,3.5,0.9,5.3c0,0.2,0,0.5,0,0.8h23.6c-0.5-1-1-1.8-1.2-2.3
	c-1.7-3.1-3.5-6.4-3.4-10c0-1.6,0.4-3,1-4.3C760.8,763.4,761.8,761.9,762.9,760.5z"/>
<path class="st51" d="M749,738.5c-3,0-5.5,2.5-5.5,5.5c0,2.6,1.9,4.8,4.3,5.3c0.4,0.1,0.8,0.1,1.2,0.1c2,0,3.8-1.1,4.7-2.7
	c0.5-0.8,0.8-1.8,0.8-2.8C754.5,741,752,738.5,749,738.5z M745.4,744c0-2,1.6-3.6,3.6-3.6c2,0,3.6,1.6,3.6,3.6c0,2-1.6,3.6-3.6,3.6
	C747,747.6,745.4,746,745.4,744z"/>
<path class="st51" d="M757.3,747.1c0.1-0.2,0.2-0.5,0.2-0.7l0.1-0.2l3.2-0.5v-3.3l-3.2-0.5l-0.1-0.2c-0.2-0.7-0.5-1.3-0.8-1.9
	l-0.1-0.2l1.9-2.6l-2.3-2.3l-2.6,1.9l-0.2-0.1c-0.6-0.4-1.3-0.6-2-0.8l-0.2-0.1l-0.5-3.2h-3.3l-0.5,3.2l-0.2,0.1
	c-0.7,0.2-1.3,0.5-2,0.8l-0.2,0.1l-2.6-1.9l-2.3,2.3l1.9,2.6l-0.1,0.2c-0.3,0.6-0.6,1.3-0.8,1.9l-0.1,0.2l-3.2,0.5v3.3l3.2,0.5
	l0.1,0.2c0.2,0.7,0.5,1.3,0.8,1.9l0.1,0.2l-1.9,2.6l2.3,2.3l2.6-1.9l0.2,0.1c0.3,0.2,0.7,0.3,1,0.5c0.3,0.1,0.6,0.2,0.9,0.3l0.2,0.1
	l0.5,3.2h3.3l0.5-3.2l0.2-0.1c0.7-0.2,1.3-0.5,2-0.8l0.2-0.1l2.6,1.9l2.3-2.3l-1.9-2.6l0.1-0.2C756.9,748,757.1,747.6,757.3,747.1z
	 M749,751.4c-0.9,0-1.8-0.2-2.6-0.5c-2.9-1-4.9-3.8-4.9-7c0-4.1,3.3-7.4,7.5-7.4c4.1,0,7.5,3.3,7.5,7.4c0,1-0.2,2-0.6,2.9
	C754.8,749.5,752.1,751.4,749,751.4z"/>
<linearGradient id="SVGID_49_" gradientUnits="userSpaceOnUse" x1="714.1448" y1="804.3654" x2="714.1448" y2="788.368">
	<stop  offset="0" style="stop-color:#9F9F9F"/>
	<stop  offset="1" style="stop-color:#000000"/>
</linearGradient>
<path class="st52" d="M711.8,788.2c-0.2,0-0.4,0.1-0.6,0.2c-0.2,0.2-0.2,0.4-0.2,0.6v0.6h2.3v6.5h1.6v-6.5h2.3v-1.4H711.8z"/>
<linearGradient id="SVGID_50_" gradientUnits="userSpaceOnUse" x1="719.8948" y1="804.3642" x2="719.8948" y2="788.3691">
	<stop  offset="0" style="stop-color:#9F9F9F"/>
	<stop  offset="1" style="stop-color:#000000"/>
</linearGradient>
<path class="st53" d="M721.4,790c-0.4,0-0.8,0.1-1.2,0.2s-0.7,0.3-1,0.5c-0.3,0.3-0.5,0.6-0.7,1c-0.2,0.4-0.3,0.9-0.3,1.5v3h1.6
	v-3.1c0-0.5,0.1-0.8,0.3-1c0.2-0.2,0.6-0.3,1-0.3h0.5V790H721.4z"/>
<linearGradient id="SVGID_51_" gradientUnits="userSpaceOnUse" x1="724.8048" y1="804.3798" x2="724.8048" y2="788.3649">
	<stop  offset="0" style="stop-color:#9F9F9F"/>
	<stop  offset="1" style="stop-color:#000000"/>
</linearGradient>
<path class="st54" d="M726.7,790.3c-0.4-0.3-1.1-0.4-1.9-0.4c-0.8,0-1.4,0.2-1.8,0.5c-0.4,0.3-0.6,0.7-0.6,1.2h1.5
	c0.1-0.2,0.2-0.3,0.4-0.3c0.2-0.1,0.4-0.1,0.6-0.1c0.2,0,0.4,0,0.7,0.1c0.2,0.1,0.3,0.2,0.3,0.4c0,0.3-0.3,0.5-1,0.6
	c-0.1,0-0.3,0-0.4,0.1c-0.1,0-0.2,0-0.3,0c-0.6,0.1-1.1,0.3-1.4,0.6c-0.4,0.3-0.6,0.7-0.6,1.4c0,0.7,0.2,1.2,0.6,1.5
	c0.4,0.3,0.9,0.5,1.4,0.5c0.3,0,0.6,0,1-0.1s0.7-0.1,1-0.3c0.3-0.1,0.6-0.4,0.8-0.8c0.2-0.3,0.3-0.8,0.3-1.4v-2.1
	C727.4,791,727.2,790.6,726.7,790.3z M725.9,793.6c0,0.4-0.1,0.8-0.4,1c-0.2,0.2-0.6,0.4-1,0.4c-0.3,0-0.5-0.1-0.6-0.2
	c-0.1-0.1-0.2-0.3-0.2-0.6c0-0.2,0-0.3,0.2-0.5c0.1-0.1,0.3-0.2,0.6-0.3l0.5-0.1c0.4-0.1,0.7-0.2,0.9-0.3V793.6z"/>
<linearGradient id="SVGID_52_" gradientUnits="userSpaceOnUse" x1="731.1548" y1="804.3642" x2="731.1548" y2="788.3691">
	<stop  offset="0" style="stop-color:#9F9F9F"/>
	<stop  offset="1" style="stop-color:#000000"/>
</linearGradient>
<path class="st55" d="M732.9,790c-0.4,0-0.6,0.2-0.7,0.6l-1.1,3.7l-1.2-4.3h-1.7l2.1,6.1h1.6l2.1-6.1H732.9z"/>
<linearGradient id="SVGID_53_" gradientUnits="userSpaceOnUse" x1="739.5148" y1="804.3674" x2="739.5148" y2="788.3661">
	<stop  offset="0" style="stop-color:#9F9F9F"/>
	<stop  offset="1" style="stop-color:#000000"/>
</linearGradient>
<path class="st56" d="M743.2,790.4c-0.6-0.3-1.2-0.5-1.9-0.5c-0.3,0-0.7,0.1-1,0.2c-0.3,0.1-0.6,0.2-0.8,0.4
	c-0.3-0.2-0.6-0.4-0.9-0.4c-0.3-0.1-0.7-0.1-1-0.1c-0.7,0-1.3,0.2-1.8,0.6c-0.5,0.4-0.8,1.1-0.8,2.1v3.6h1.6v-3.9
	c0-0.4,0.1-0.6,0.3-0.8c0.2-0.2,0.5-0.3,0.7-0.3c0.3,0,0.5,0.1,0.7,0.3c0.2,0.2,0.3,0.4,0.3,0.8v3.9h1.6v-3.9c0-0.4,0.1-0.6,0.3-0.8
	c0.2-0.2,0.5-0.3,0.8-0.3c0.3,0,0.5,0.1,0.7,0.3c0.2,0.2,0.3,0.4,0.3,0.8v3.1c0,0.2,0.1,0.4,0.2,0.6c0.2,0.2,0.3,0.2,0.6,0.2h0.8
	v-3.6C744,791.4,743.8,790.7,743.2,790.4z"/>
<linearGradient id="SVGID_54_" gradientUnits="userSpaceOnUse" x1="747.5048" y1="804.3798" x2="747.5048" y2="788.3649">
	<stop  offset="0" style="stop-color:#9F9F9F"/>
	<stop  offset="1" style="stop-color:#000000"/>
</linearGradient>
<path class="st57" d="M749.4,790.3c-0.4-0.3-1.1-0.4-1.9-0.4c-0.8,0-1.3,0.2-1.8,0.5c-0.4,0.3-0.6,0.7-0.6,1.2h1.5
	c0.1-0.2,0.2-0.3,0.4-0.3c0.2-0.1,0.4-0.1,0.6-0.1c0.2,0,0.4,0,0.7,0.1c0.2,0.1,0.4,0.2,0.4,0.4c0,0.3-0.3,0.5-1,0.6
	c-0.1,0-0.3,0-0.4,0.1c-0.1,0-0.2,0-0.3,0c-0.6,0.1-1.1,0.3-1.4,0.6c-0.4,0.3-0.6,0.7-0.6,1.4c0,0.7,0.2,1.2,0.6,1.5
	c0.4,0.3,0.9,0.5,1.5,0.5c0.3,0,0.6,0,1-0.1s0.7-0.1,1-0.3c0.3-0.1,0.6-0.4,0.8-0.8c0.2-0.3,0.3-0.8,0.3-1.4v-2.1
	C750.1,791,749.9,790.6,749.4,790.3z M748.6,793.6c0,0.4-0.1,0.8-0.4,1c-0.3,0.2-0.6,0.4-1,0.4c-0.3,0-0.5-0.1-0.6-0.2
	s-0.2-0.3-0.2-0.6c0-0.2,0.1-0.3,0.2-0.5c0.1-0.1,0.3-0.2,0.6-0.3l0.5-0.1c0.4-0.1,0.7-0.2,0.9-0.3V793.6z"/>
<linearGradient id="SVGID_55_" gradientUnits="userSpaceOnUse" x1="757.8348" y1="804.3593" x2="757.8348" y2="788.3672">
	<stop  offset="0" style="stop-color:#9F9F9F"/>
	<stop  offset="1" style="stop-color:#000000"/>
</linearGradient>
<path class="st58" d="M760.6,789.1c-0.7-0.8-1.7-1.1-2.8-1.1c-1.2,0-2.1,0.4-2.8,1.1c-0.7,0.8-1,1.8-1,3.1c0,1.3,0.3,2.3,1,3
	c0.7,0.7,1.6,1.1,2.8,1.1c1.2,0,2.1-0.4,2.8-1.1c0.7-0.8,1-1.8,1-3C761.7,790.9,761.3,789.8,760.6,789.1z M759.5,794.1
	c-0.4,0.5-0.9,0.7-1.6,0.7c-0.7,0-1.3-0.2-1.6-0.7c-0.4-0.4-0.6-1.1-0.6-2c0-0.9,0.2-1.6,0.6-2.1c0.4-0.5,0.9-0.7,1.6-0.7
	c0.7,0,1.2,0.2,1.6,0.7c0.4,0.5,0.6,1.2,0.6,2.1C760,793,759.8,793.6,759.5,794.1z"/>
<linearGradient id="SVGID_56_" gradientUnits="userSpaceOnUse" x1="765.5698" y1="804.3703" x2="765.5698" y2="788.368">
	<stop  offset="0" style="stop-color:#9F9F9F"/>
	<stop  offset="1" style="stop-color:#000000"/>
</linearGradient>
<path class="st59" d="M768.2,788.4c-0.2-0.2-0.3-0.2-0.6-0.2h-0.8v2.6c-0.2-0.3-0.4-0.5-0.7-0.7c-0.3-0.1-0.6-0.2-1-0.2
	c-0.7,0-1.3,0.3-1.8,0.9c-0.4,0.6-0.7,1.3-0.7,2.3s0.2,1.8,0.7,2.3c0.2,0.3,0.5,0.5,0.9,0.6s0.8,0.2,1.2,0.2c0.7,0,1.4-0.2,2-0.6
	c0.6-0.4,0.9-1.1,0.9-2.2V789C768.4,788.8,768.4,788.6,768.2,788.4z M766.3,794.4c-0.2,0.3-0.5,0.5-1,0.5c-0.4,0-0.8-0.2-1-0.5
	c-0.2-0.3-0.3-0.8-0.3-1.4c0-0.5,0.1-1,0.3-1.3c0.2-0.3,0.5-0.5,0.9-0.5c0.4,0,0.8,0.2,1,0.5c0.2,0.3,0.3,0.8,0.3,1.3
	C766.7,793.6,766.6,794,766.3,794.4z"/>
<linearGradient id="SVGID_57_" gradientUnits="userSpaceOnUse" x1="771.9248" y1="804.3798" x2="771.9248" y2="788.3649">
	<stop  offset="0" style="stop-color:#9F9F9F"/>
	<stop  offset="1" style="stop-color:#000000"/>
</linearGradient>
<path class="st60" d="M773.8,790.3c-0.4-0.3-1.1-0.4-1.9-0.4c-0.8,0-1.3,0.2-1.8,0.5c-0.4,0.3-0.6,0.7-0.6,1.2h1.5
	c0.1-0.2,0.2-0.3,0.4-0.3c0.2-0.1,0.4-0.1,0.6-0.1c0.2,0,0.4,0,0.7,0.1c0.2,0.1,0.4,0.2,0.4,0.4c0,0.3-0.3,0.5-1,0.6
	c-0.1,0-0.3,0-0.4,0.1c-0.1,0-0.2,0-0.3,0c-0.6,0.1-1.1,0.3-1.4,0.6c-0.4,0.3-0.6,0.7-0.6,1.4c0,0.7,0.2,1.2,0.6,1.5
	c0.4,0.3,0.9,0.5,1.4,0.5c0.3,0,0.6,0,1-0.1c0.4,0,0.7-0.1,1-0.3c0.3-0.1,0.6-0.4,0.8-0.8c0.2-0.3,0.3-0.8,0.3-1.4v-2.1
	C774.5,791,774.3,790.6,773.8,790.3z M773,793.6c0,0.4-0.1,0.8-0.4,1c-0.2,0.2-0.6,0.4-1,0.4c-0.3,0-0.5-0.1-0.6-0.2
	c-0.1-0.1-0.2-0.3-0.2-0.6c0-0.2,0-0.3,0.2-0.5c0.1-0.1,0.3-0.2,0.6-0.3l0.5-0.1c0.4-0.1,0.7-0.2,0.9-0.3V793.6z"/>
<linearGradient id="SVGID_58_" gradientUnits="userSpaceOnUse" x1="778.0748" y1="804.3654" x2="778.0748" y2="788.368">
	<stop  offset="0" style="stop-color:#9F9F9F"/>
	<stop  offset="1" style="stop-color:#000000"/>
</linearGradient>
<path class="st61" d="M778.6,792.3l2.2-2.3h-1.9l-2,2.3v-3.3c0-0.2-0.1-0.4-0.2-0.5c-0.2-0.2-0.3-0.2-0.5-0.2h-0.8v7.9h1.6v-2.3
	c0-0.1,0.1-0.2,0.3-0.3c0.2-0.1,0.4,0.1,0.6,0.5l1.1,2.1h1.9L778.6,792.3z"/>
<linearGradient id="SVGID_59_" gradientUnits="userSpaceOnUse" x1="782.5598" y1="804.3654" x2="782.5598" y2="788.368">
	<stop  offset="0" style="stop-color:#9F9F9F"/>
	<stop  offset="1" style="stop-color:#000000"/>
</linearGradient>
<path class="st62" d="M783.1,788.4c-0.2-0.2-0.3-0.2-0.5-0.2h-0.8v7.9h1.6v-7.1C783.4,788.7,783.3,788.5,783.1,788.4z"/>
<linearGradient id="SVGID_60_" gradientUnits="userSpaceOnUse" x1="785.0298" y1="804.3642" x2="785.0298" y2="788.3691">
	<stop  offset="0" style="stop-color:#9F9F9F"/>
	<stop  offset="1" style="stop-color:#000000"/>
</linearGradient>
<path class="st63" d="M785.6,790.2c-0.1-0.2-0.3-0.2-0.5-0.2h-0.8v6.1h1.6v-5.3C785.8,790.5,785.8,790.3,785.6,790.2z"/>
<linearGradient id="SVGID_61_" gradientUnits="userSpaceOnUse" x1="735.6398" y1="817.3622" x2="735.6398" y2="803.3553">
	<stop  offset="0" style="stop-color:#9F9F9F"/>
	<stop  offset="1" style="stop-color:#000000"/>
</linearGradient>
<path class="st64" d="M733.3,802.3c-0.2,0-0.4,0.1-0.6,0.2c-0.2,0.2-0.2,0.4-0.2,0.6v0.6h2.3v6.5h1.6v-6.5h2.3v-1.4H733.3z"/>
<linearGradient id="SVGID_62_" gradientUnits="userSpaceOnUse" x1="742.3398" y1="817.3748" x2="742.3398" y2="803.3534">
	<stop  offset="0" style="stop-color:#9F9F9F"/>
	<stop  offset="1" style="stop-color:#000000"/>
</linearGradient>
<path class="st65" d="M744.4,804.7c-0.5-0.5-1.2-0.8-2.1-0.8c-0.9,0-1.5,0.3-2,0.8c-0.5,0.5-0.7,1.3-0.7,2.3c0,1,0.3,1.8,0.7,2.4
	c0.5,0.6,1.2,0.8,2,0.8c0.7,0,1.3-0.2,1.8-0.5c0.5-0.3,0.8-0.8,1-1.5h-1.1c-0.2,0-0.3,0-0.4,0.1c-0.1,0.1-0.2,0.1-0.2,0.2
	c0,0.1-0.1,0.1-0.1,0.1c0,0-0.1,0.1-0.1,0.1c-0.2,0.1-0.4,0.2-0.7,0.2c-0.4,0-0.7-0.1-0.9-0.4c-0.2-0.2-0.3-0.6-0.4-1.1h4
	c0,0,0-0.1,0-0.2v-0.3C745.2,806.1,744.9,805.3,744.4,804.7z M741.2,806.5c0-0.4,0.1-0.7,0.4-0.9c0.2-0.2,0.5-0.3,0.8-0.3
	c0.4,0,0.6,0.1,0.8,0.3c0.2,0.2,0.3,0.5,0.3,0.9H741.2z"/>
<linearGradient id="SVGID_63_" gradientUnits="userSpaceOnUse" x1="747.7098" y1="817.3612" x2="747.7098" y2="803.3564">
	<stop  offset="0" style="stop-color:#9F9F9F"/>
	<stop  offset="1" style="stop-color:#000000"/>
</linearGradient>
<path class="st66" d="M749.2,804.1c-0.4,0-0.8,0.1-1.2,0.2c-0.4,0.1-0.7,0.3-1,0.5c-0.3,0.2-0.5,0.6-0.7,1c-0.2,0.4-0.3,0.9-0.3,1.5
	v3h1.6V807c0-0.5,0.1-0.8,0.3-1c0.2-0.2,0.5-0.3,1-0.3h0.5v-1.6H749.2z"/>
<linearGradient id="SVGID_64_" gradientUnits="userSpaceOnUse" x1="752.6248" y1="817.3748" x2="752.6248" y2="803.3534">
	<stop  offset="0" style="stop-color:#9F9F9F"/>
	<stop  offset="1" style="stop-color:#000000"/>
</linearGradient>
<path class="st67" d="M754.5,804.4c-0.4-0.3-1.1-0.4-1.9-0.4c-0.8,0-1.3,0.2-1.8,0.5c-0.4,0.3-0.6,0.7-0.6,1.2h1.5
	c0.1-0.2,0.2-0.3,0.4-0.3c0.2-0.1,0.4-0.1,0.6-0.1c0.2,0,0.4,0,0.7,0.1c0.2,0.1,0.3,0.2,0.3,0.5c0,0.3-0.3,0.5-1,0.6
	c-0.1,0-0.3,0-0.4,0.1c-0.1,0-0.2,0-0.3,0c-0.6,0.1-1.1,0.3-1.4,0.5c-0.4,0.3-0.6,0.7-0.6,1.4c0,0.7,0.2,1.2,0.6,1.5
	c0.4,0.3,0.9,0.4,1.5,0.4c0.3,0,0.6,0,1-0.1c0.4,0,0.7-0.1,1-0.3c0.3-0.2,0.6-0.4,0.8-0.7c0.2-0.4,0.3-0.8,0.3-1.4v-2.1
	C755.2,805.1,755,804.7,754.5,804.4z M753.7,807.7c0,0.4-0.1,0.8-0.4,1c-0.3,0.3-0.6,0.4-1,0.4c-0.3,0-0.5-0.1-0.6-0.2
	c-0.1-0.1-0.2-0.3-0.2-0.6c0-0.2,0.1-0.3,0.2-0.5c0.1-0.1,0.3-0.2,0.6-0.3l0.5-0.1c0.4-0.1,0.7-0.2,0.9-0.3V807.7z"/>
<linearGradient id="SVGID_65_" gradientUnits="userSpaceOnUse" x1="758.8948" y1="817.3666" x2="758.8948" y2="803.3538">
	<stop  offset="0" style="stop-color:#9F9F9F"/>
	<stop  offset="1" style="stop-color:#000000"/>
</linearGradient>
<path class="st68" d="M761.1,804.8c-0.2-0.3-0.5-0.5-0.9-0.6c-0.4-0.1-0.8-0.2-1.1-0.2c-0.7,0-1.4,0.2-2,0.6
	c-0.6,0.4-0.9,1.1-0.9,2.2v5.7h0.8c0.2,0,0.4-0.1,0.5-0.2c0.2-0.2,0.2-0.3,0.2-0.6v-2.3c0.2,0.3,0.4,0.6,0.7,0.7
	c0.3,0.1,0.6,0.2,1,0.2c0.7,0,1.3-0.3,1.8-0.9c0.5-0.6,0.7-1.4,0.7-2.3C761.8,806.1,761.5,805.4,761.1,804.8z M759.8,808.4
	c-0.2,0.3-0.5,0.5-0.9,0.5c-0.4,0-0.8-0.2-1-0.5c-0.2-0.3-0.3-0.7-0.3-1.3c0-0.6,0.1-1.1,0.3-1.4c0.2-0.3,0.6-0.5,1-0.5
	c0.4,0,0.8,0.2,1,0.5c0.2,0.3,0.4,0.8,0.4,1.4C760.2,807.7,760.1,808.1,759.8,808.4z"/>
<linearGradient id="SVGID_66_" gradientUnits="userSpaceOnUse" x1="763.4898" y1="817.3622" x2="763.4898" y2="803.3553">
	<stop  offset="0" style="stop-color:#9F9F9F"/>
	<stop  offset="1" style="stop-color:#000000"/>
</linearGradient>
<path class="st69" d="M764.1,802.5c-0.2-0.2-0.3-0.2-0.5-0.2h-0.8v1.3h1.6V803C764.3,802.8,764.2,802.7,764.1,802.5z M764.1,804.3
	c-0.2-0.1-0.3-0.2-0.5-0.2h-0.8v6.1h1.6v-5.3C764.3,804.6,764.2,804.4,764.1,804.3z"/>
<g>
	<linearGradient id="SVGID_67_" gradientUnits="userSpaceOnUse" x1="488.4967" y1="733.6763" x2="415.9202" y2="753.7303">
		<stop  offset="0" style="stop-color:#E85E2C"/>
		<stop  offset="0.3398" style="stop-color:#EB7633"/>
		<stop  offset="1" style="stop-color:#F2AE43"/>
	</linearGradient>
	<path class="st70" d="M468.9,742.5c-4.7,1.7-9.3,3.3-14.2,4.1c-4.8,0.8-9.6,1.2-14.5,1.2c-1.3,0-2.6,0-3.8-0.1l-0.6,0l0-0.3l0,0.3
		c-1-0.1-2-0.1-2.8-0.4l-0.7-0.2l7.7-3.9C440.1,743.2,468.9,742.5,468.9,742.5z"/>
	<linearGradient id="SVGID_68_" gradientUnits="userSpaceOnUse" x1="487.0728" y1="728.5229" x2="414.4963" y2="748.577">
		<stop  offset="0" style="stop-color:#E85E2C"/>
		<stop  offset="0.3398" style="stop-color:#EB7633"/>
		<stop  offset="1" style="stop-color:#F2AE43"/>
	</linearGradient>
	<path class="st71" d="M468.9,740.7h-6.2l0-0.3c-0.1-3.9-1.5-8.4-3.7-11.2l0,0l0.8,0.3c4.2,1.8,8.1,6.3,9.1,10.8L468.9,740.7z"/>
	<linearGradient id="SVGID_69_" gradientUnits="userSpaceOnUse" x1="486.5973" y1="726.8022" x2="414.0208" y2="746.8563">
		<stop  offset="0" style="stop-color:#E85E2C"/>
		<stop  offset="0.3398" style="stop-color:#EB7633"/>
		<stop  offset="1" style="stop-color:#F2AE43"/>
	</linearGradient>
	<path class="st72" d="M459.8,740.7h-9.9l0-0.3c0.3-7.6,3.4-10.4,4.8-11.2l0.1-0.1l0.1,0.1c1.3,0.8,4.5,3.6,4.8,11.2L459.8,740.7z"
		/>
	<linearGradient id="SVGID_70_" gradientUnits="userSpaceOnUse" x1="486.0605" y1="724.8596" x2="413.484" y2="744.9136">
		<stop  offset="0" style="stop-color:#E85E2C"/>
		<stop  offset="0.3398" style="stop-color:#EB7633"/>
		<stop  offset="1" style="stop-color:#F2AE43"/>
	</linearGradient>
	<path class="st73" d="M451,729.5L451,729.5c-2.7,2.6-3.9,7-4,10.8l0,0.3h-6.2l0.1-0.3c1-4.4,5.2-8.6,9.3-10.4L451,729.5z"/>
	<linearGradient id="SVGID_71_" gradientUnits="userSpaceOnUse" x1="491.6382" y1="745.0457" x2="419.0618" y2="765.0997">
		<stop  offset="0" style="stop-color:#E85E2C"/>
		<stop  offset="0.3398" style="stop-color:#EB7633"/>
		<stop  offset="1" style="stop-color:#F2AE43"/>
	</linearGradient>
	<path class="st74" d="M469.2,744.4l0,0.5c-0.7,7.5-6.7,18.9-14.2,18.9c-5.9,0-10.9-7-13.1-13.5l-0.1-0.4l0.4,0
		c7.7-0.1,18.7-1.5,26.6-5.3L469.2,744.4z"/>
	<linearGradient id="SVGID_72_" gradientUnits="userSpaceOnUse" x1="498.248" y1="768.9666" x2="425.6715" y2="789.0206">
		<stop  offset="0" style="stop-color:#E85E2C"/>
		<stop  offset="0.3398" style="stop-color:#EB7633"/>
		<stop  offset="1" style="stop-color:#F2AE43"/>
	</linearGradient>
	<path class="st75" d="M485.1,785c0,3.9-0.4,6.3-1.4,7.3c-0.7,0.7-1.8,0.7-3.7,0.7h-50.5c-1.9,0-3,0-3.7-0.7
		c-0.9-0.9-1.4-3.3-1.4-7.3c0.1-11.7,7.3-13,13.1-14c1.8-0.3,3.3-0.6,4.5-1.2c2.3-1.2,3.9-3.2,4.8-5.9l0.1-0.4l0.3,0.2
		c4.9,3.9,10.2,3.9,15.1,0.1l0.3-0.2l0.1,0.4c0.9,2.6,2.5,4.6,4.8,5.8c1.1,0.6,2.7,0.9,4.5,1.2C477.8,772.1,485.1,773.4,485.1,785z"
		/>
</g>
<g>
	<linearGradient id="SVGID_73_" gradientUnits="userSpaceOnUse" x1="423.5698" y1="812.8602" x2="423.5698" y2="798.7278">
		<stop  offset="0" style="stop-color:#9F9F9F"/>
		<stop  offset="1" style="stop-color:#000000"/>
	</linearGradient>
	<path class="st76" d="M426.2,799.8v-1.2h-4.5c-0.2,0-0.4,0.1-0.5,0.2c-0.1,0.2-0.2,0.3-0.2,0.5v6.5h5.3v-1.3h-3.8v-1.8h2.1
		c0.2,0,0.4-0.1,0.5-0.2c0.1-0.2,0.2-0.3,0.2-0.5v-0.5h-2.8v-1.6H426.2z"/>
	<linearGradient id="SVGID_74_" gradientUnits="userSpaceOnUse" x1="428.5748" y1="812.8623" x2="428.5748" y2="798.7258">
		<stop  offset="0" style="stop-color:#9F9F9F"/>
		<stop  offset="1" style="stop-color:#000000"/>
	</linearGradient>
	<path class="st77" d="M429.9,800.2c-0.4,0-0.8,0.1-1.1,0.2c-0.4,0.1-0.7,0.3-0.9,0.5c-0.3,0.2-0.5,0.5-0.7,0.9
		c-0.2,0.4-0.2,0.8-0.2,1.4v2.7h1.5v-2.9c0-0.4,0.1-0.7,0.3-0.9c0.2-0.2,0.5-0.3,0.9-0.3h0.5v-1.5H429.9z"/>
	<linearGradient id="SVGID_75_" gradientUnits="userSpaceOnUse" x1="433.3498" y1="812.8679" x2="433.3498" y2="798.7211">
		<stop  offset="0" style="stop-color:#9F9F9F"/>
		<stop  offset="1" style="stop-color:#000000"/>
	</linearGradient>
	<path class="st78" d="M435.1,800.6c-0.6-0.4-1.2-0.6-1.9-0.6c-0.9,0-1.5,0.3-1.9,0.8c-0.4,0.6-0.6,1.3-0.6,2.1
		c0,0.8,0.1,1.3,0.4,1.8c0.3,0.5,0.7,0.8,1.1,0.9s0.8,0.2,1.3,0.1c0.4-0.1,0.8-0.3,1-0.7v0.4c0,0.4-0.1,0.8-0.3,1
		c-0.2,0.2-0.4,0.4-0.6,0.4c-0.2,0-0.5,0-0.7-0.1c-0.2-0.1-0.4-0.3-0.5-0.4h-1.5c0.3,1.2,1.1,1.8,2.4,1.8c0.7,0,1.3-0.2,1.9-0.5
		c0.6-0.4,0.9-1,0.9-2v-3C436,801.7,435.7,801,435.1,800.6z M434.5,803.6c-0.1,0.3-0.2,0.6-0.3,0.7c-0.3,0.4-0.7,0.5-1.3,0.4
		c-0.6-0.1-0.8-0.6-0.8-1.6c0-0.4,0.1-0.8,0.3-1.2c0.2-0.3,0.5-0.5,1-0.5c0.4,0,0.6,0.1,0.8,0.4c0.2,0.3,0.3,0.5,0.4,0.9
		C434.6,802.9,434.6,803.2,434.5,803.6z"/>
	<linearGradient id="SVGID_76_" gradientUnits="userSpaceOnUse" x1="439.2248" y1="812.8773" x2="439.2248" y2="798.7201">
		<stop  offset="0" style="stop-color:#9F9F9F"/>
		<stop  offset="1" style="stop-color:#000000"/>
	</linearGradient>
	<path class="st79" d="M441.1,800.8c-0.5-0.5-1.1-0.8-2-0.8c-0.8,0-1.4,0.3-1.9,0.8c-0.4,0.5-0.6,1.2-0.6,2.1c0,0.9,0.2,1.7,0.7,2.2
		c0.5,0.5,1.1,0.8,1.9,0.8c0.7,0,1.2-0.2,1.6-0.5c0.4-0.3,0.7-0.8,0.9-1.3h-1.1c-0.2,0-0.3,0-0.4,0.1c-0.1,0.1-0.1,0.1-0.2,0.2
		c0,0-0.1,0.1-0.1,0.1c0,0-0.1,0.1-0.1,0.1c-0.2,0.1-0.4,0.2-0.6,0.2c-0.4,0-0.6-0.1-0.8-0.3c-0.2-0.2-0.3-0.5-0.3-1h3.6
		c0,0,0-0.1,0-0.2V803C441.8,802.1,441.6,801.4,441.1,800.8z M438.1,802.4c0-0.4,0.1-0.6,0.3-0.8c0.2-0.2,0.4-0.3,0.8-0.3
		c0.3,0,0.6,0.1,0.8,0.3c0.2,0.2,0.3,0.5,0.3,0.8H438.1z"/>
	<linearGradient id="SVGID_77_" gradientUnits="userSpaceOnUse" x1="445.0198" y1="812.8668" x2="445.0198" y2="798.7212">
		<stop  offset="0" style="stop-color:#9F9F9F"/>
		<stop  offset="1" style="stop-color:#000000"/>
	</linearGradient>
	<path class="st80" d="M446.7,800.6c-0.5-0.3-1.1-0.5-1.7-0.5c-0.6,0-1.1,0.2-1.6,0.5s-0.8,1-0.8,1.9v3.3h1.5v-3.6
		c0-0.3,0.1-0.6,0.3-0.7c0.2-0.2,0.4-0.2,0.7-0.2c0.3,0,0.5,0.1,0.7,0.2c0.2,0.2,0.3,0.4,0.3,0.7v2.9c0,0.2,0.1,0.4,0.2,0.5
		c0.1,0.1,0.3,0.2,0.5,0.2h0.7v-3.3C447.5,801.5,447.2,800.9,446.7,800.6z"/>
	<linearGradient id="SVGID_78_" gradientUnits="userSpaceOnUse" x1="454.3998" y1="812.8602" x2="454.3998" y2="798.7278">
		<stop  offset="0" style="stop-color:#9F9F9F"/>
		<stop  offset="1" style="stop-color:#000000"/>
	</linearGradient>
	<path class="st81" d="M452.3,798.6c-0.2,0-0.4,0.1-0.5,0.2c-0.1,0.2-0.2,0.3-0.2,0.5v0.5h2.1v6h1.5v-6h2.1v-1.3H452.3z"/>
	<linearGradient id="SVGID_79_" gradientUnits="userSpaceOnUse" x1="460.5448" y1="812.8773" x2="460.5448" y2="798.7201">
		<stop  offset="0" style="stop-color:#9F9F9F"/>
		<stop  offset="1" style="stop-color:#000000"/>
	</linearGradient>
	<path class="st82" d="M462.5,800.8c-0.5-0.5-1.1-0.8-2-0.8c-0.8,0-1.4,0.3-1.9,0.8c-0.4,0.5-0.7,1.2-0.7,2.1c0,0.9,0.2,1.7,0.7,2.2
		c0.4,0.5,1.1,0.8,1.9,0.8c0.7,0,1.2-0.2,1.6-0.5c0.4-0.3,0.7-0.8,0.9-1.3h-1c-0.2,0-0.3,0-0.4,0.1c-0.1,0.1-0.1,0.1-0.2,0.2
		c0,0-0.1,0.1-0.1,0.1c0,0-0.1,0.1-0.1,0.1c-0.2,0.1-0.4,0.2-0.6,0.2c-0.4,0-0.6-0.1-0.8-0.3c-0.2-0.2-0.3-0.5-0.3-1h3.6
		c0,0,0-0.1,0-0.2V803C463.1,802.1,462.9,801.4,462.5,800.8z M459.5,802.4c0-0.4,0.1-0.6,0.3-0.8c0.2-0.2,0.4-0.3,0.8-0.3
		c0.3,0,0.6,0.1,0.8,0.3c0.2,0.2,0.3,0.5,0.3,0.8H459.5z"/>
	<linearGradient id="SVGID_80_" gradientUnits="userSpaceOnUse" x1="465.4748" y1="812.8623" x2="465.4748" y2="798.7258">
		<stop  offset="0" style="stop-color:#9F9F9F"/>
		<stop  offset="1" style="stop-color:#000000"/>
	</linearGradient>
	<path class="st83" d="M466.8,800.2c-0.4,0-0.8,0.1-1.1,0.2c-0.4,0.1-0.7,0.3-0.9,0.5c-0.3,0.2-0.5,0.5-0.7,0.9
		c-0.2,0.4-0.3,0.8-0.3,1.4v2.7h1.5v-2.9c0-0.4,0.1-0.7,0.3-0.9c0.2-0.2,0.5-0.3,0.9-0.3h0.5v-1.5H466.8z"/>
	<linearGradient id="SVGID_81_" gradientUnits="userSpaceOnUse" x1="469.9848" y1="812.8773" x2="469.9848" y2="798.7201">
		<stop  offset="0" style="stop-color:#9F9F9F"/>
		<stop  offset="1" style="stop-color:#000000"/>
	</linearGradient>
	<path class="st84" d="M471.7,800.5c-0.4-0.3-1-0.4-1.8-0.4c-0.7,0-1.2,0.2-1.6,0.5c-0.3,0.3-0.5,0.6-0.6,1.1h1.4
		c0.1-0.2,0.2-0.3,0.3-0.3c0.1-0.1,0.3-0.1,0.5-0.1c0.2,0,0.4,0,0.6,0.1c0.2,0.1,0.3,0.2,0.3,0.4c0,0.3-0.3,0.5-0.9,0.5
		c-0.1,0-0.2,0-0.3,0.1c-0.1,0-0.2,0-0.3,0c-0.5,0.1-1,0.3-1.3,0.5c-0.4,0.3-0.5,0.7-0.5,1.3c0,0.6,0.2,1.1,0.6,1.4
		c0.4,0.3,0.8,0.4,1.3,0.4c0.3,0,0.5,0,0.9-0.1c0.3,0,0.6-0.1,0.9-0.3c0.3-0.1,0.5-0.4,0.7-0.7c0.2-0.3,0.3-0.8,0.3-1.3v-1.9
		C472.4,801.2,472.2,800.8,471.7,800.5z M471,803.5c0,0.4-0.1,0.7-0.3,0.9c-0.2,0.2-0.5,0.3-0.9,0.3c-0.2,0-0.4-0.1-0.5-0.2
		c-0.1-0.1-0.2-0.3-0.2-0.5c0-0.2,0-0.3,0.2-0.5c0.1-0.1,0.3-0.2,0.5-0.3l0.5-0.1c0.4-0.1,0.6-0.2,0.8-0.3V803.5z"/>
	<linearGradient id="SVGID_82_" gradientUnits="userSpaceOnUse" x1="475.7498" y1="812.876" x2="475.7498" y2="798.7202">
		<stop  offset="0" style="stop-color:#9F9F9F"/>
		<stop  offset="1" style="stop-color:#000000"/>
	</linearGradient>
	<path class="st85" d="M477.8,800.9c-0.2-0.3-0.5-0.4-0.9-0.6c-0.3-0.1-0.7-0.2-1.1-0.2c-0.7,0-1.3,0.2-1.9,0.5
		c-0.6,0.4-0.9,1-0.9,2v5.3h0.7c0.2,0,0.4-0.1,0.5-0.2c0.1-0.1,0.2-0.3,0.2-0.5v-2.1c0.2,0.3,0.4,0.5,0.7,0.7
		c0.3,0.1,0.6,0.2,0.9,0.2c0.7,0,1.2-0.3,1.6-0.8c0.4-0.6,0.6-1.3,0.6-2.2C478.4,802.1,478.2,801.4,477.8,800.9z M476.6,804.2
		c-0.2,0.3-0.5,0.5-0.9,0.5c-0.4,0-0.7-0.2-0.9-0.5c-0.2-0.3-0.3-0.7-0.3-1.2c0-0.6,0.1-1,0.3-1.3c0.2-0.3,0.5-0.4,0.9-0.4
		c0.4,0,0.7,0.1,0.9,0.4c0.2,0.3,0.3,0.7,0.3,1.3C476.9,803.5,476.8,803.9,476.6,804.2z"/>
	<linearGradient id="SVGID_83_" gradientUnits="userSpaceOnUse" x1="479.9648" y1="812.8602" x2="479.9648" y2="798.7278">
		<stop  offset="0" style="stop-color:#9F9F9F"/>
		<stop  offset="1" style="stop-color:#000000"/>
	</linearGradient>
	<path class="st86" d="M480.5,798.8c-0.2-0.1-0.3-0.2-0.5-0.2h-0.8v1.2h1.5v-0.5C480.7,799.1,480.6,798.9,480.5,798.8z M480.5,800.4
		c-0.2-0.1-0.3-0.2-0.5-0.2h-0.8v5.6h1.5v-4.9C480.7,800.7,480.6,800.6,480.5,800.4z"/>
	<linearGradient id="SVGID_84_" gradientUnits="userSpaceOnUse" x1="483.8898" y1="812.8773" x2="483.8898" y2="798.7201">
		<stop  offset="0" style="stop-color:#9F9F9F"/>
		<stop  offset="1" style="stop-color:#000000"/>
	</linearGradient>
	<path class="st87" d="M486,803c-0.3-0.2-0.8-0.5-1.5-0.6c-0.1,0-0.1,0-0.2,0c-0.1,0-0.1,0-0.2-0.1c-0.7-0.2-1.1-0.3-1.1-0.6
		c0-0.2,0.1-0.3,0.2-0.4c0.1-0.1,0.4-0.1,0.6-0.1c0.3,0,0.5,0.1,0.7,0.2l0.2,0.2c0.1,0.2,0.3,0.4,0.6,0.4h0.9c0-0.6-0.2-1-0.7-1.4
		c-0.4-0.3-1-0.5-1.8-0.5c-0.7,0-1.2,0.2-1.6,0.5c-0.4,0.4-0.6,0.8-0.6,1.3c0,0.4,0.1,0.8,0.4,1c0.3,0.3,0.8,0.5,1.5,0.6
		c0.1,0,0.3,0.1,0.6,0.1c0.6,0.1,0.9,0.3,0.9,0.6c0,0.2-0.1,0.3-0.3,0.4c-0.2,0.1-0.4,0.1-0.7,0.1c-0.3,0-0.6-0.1-0.8-0.2
		c-0.2-0.1-0.3-0.3-0.3-0.6h-1.4v0.1c0,0.6,0.2,1.1,0.6,1.4c0.4,0.3,1,0.5,1.8,0.5c0.8,0,1.5-0.2,1.9-0.5c0.4-0.3,0.7-0.8,0.7-1.4
		C486.4,803.6,486.2,803.3,486,803z"/>
	<linearGradient id="SVGID_85_" gradientUnits="userSpaceOnUse" x1="487.9298" y1="812.8602" x2="487.9298" y2="798.7278">
		<stop  offset="0" style="stop-color:#9F9F9F"/>
		<stop  offset="1" style="stop-color:#000000"/>
	</linearGradient>
	<path class="st88" d="M488.5,798.8c-0.1-0.1-0.3-0.2-0.5-0.2h-0.8v1.2h1.5v-0.5C488.7,799.1,488.6,798.9,488.5,798.8z M488.5,800.4
		c-0.1-0.1-0.3-0.2-0.5-0.2h-0.8v5.6h1.5v-4.9C488.7,800.7,488.6,800.6,488.5,800.4z"/>
</g>
<path class="st3" d="M652.4,608c-3.2,0-6.3-0.1-9.4-0.3"/>
<path class="st3" d="M560.9,550.2c-0.3-2.1-0.4-4.1-0.4-6.3"/>
<g>
	<g>
		<path class="st2" d="M384,445.6c-36.8,0-66.8,30-66.8,66.8s30,66.8,66.8,66.8c28.2,0,52.4-17.5,62.2-42.3c0.1-0.3,0.2-0.5,0.3-0.8
			v0c2.8-7.4,4.4-15.4,4.4-23.8C450.8,475.6,420.8,445.6,384,445.6z M384,577.3c-35.7,0-64.8-29.1-64.8-64.8
			c0-35.7,29.1-64.8,64.8-64.8c35.7,0,64.8,29.1,64.8,64.8C448.8,548.2,419.7,577.3,384,577.3z"/>
	</g>
	<g>
		<path class="st2" d="M600.9,295c-36.8,0-66.8,30-66.8,66.8c0,36.4,29.3,66.1,65.5,66.8c0.3,0,0.7,0,1,0h0.3
			c36.8,0,66.8-30,66.8-66.8C667.7,324.9,637.8,295,600.9,295z M600.9,426.6c-35.7,0-64.8-29.1-64.8-64.8s29.1-64.8,64.8-64.8
			c35.7,0,64.8,29.1,64.8,64.8S636.7,426.6,600.9,426.6z"/>
	</g>
	<g>
		<path class="st2" d="M452.9,704c-36.8,0-66.8,30-66.8,66.8c0,36.8,30,66.8,66.8,66.8s66.8-30,66.8-66.8
			C519.8,733.9,489.8,704,452.9,704z M452.9,835.6c-35.7,0-64.8-29.1-64.8-64.8c0-35.7,29.1-64.8,64.8-64.8
			c35.7,0,64.8,29.1,64.8,64.8C517.8,806.5,488.7,835.6,452.9,835.6z"/>
	</g>
	<g>
		<path class="st2" d="M814.9,444.1c-36.8,0-66.8,30-66.8,66.8c0,9.2,1.9,18,5.3,26.1c0.1,0.3,0.3,0.6,0.4,1
			c10.4,23.4,33.9,39.8,61.1,39.8c36.8,0,66.8-30,66.8-66.8C881.7,474.1,851.7,444.1,814.9,444.1z M814.9,575.7
			c-35.7,0-64.8-29.1-64.8-64.8c0-35.7,29.1-64.8,64.8-64.8c35.7,0,64.8,29.1,64.8,64.8C879.7,546.6,850.6,575.7,814.9,575.7z"/>
	</g>
	<g>
		<path class="st2" d="M749,704c-36.8,0-66.8,30-66.8,66.8c0,36.8,30,66.8,66.8,66.8c36.8,0,66.8-30,66.8-66.8
			C815.8,733.9,785.9,704,749,704z M749,835.6c-35.7,0-64.8-29.1-64.8-64.8S713.3,706,749,706c35.7,0,64.8,29.1,64.8,64.8
			S784.7,835.6,749,835.6z"/>
	</g>
</g>
</svg>
