<?xml version="1.0" encoding="utf-8"?>
<!-- Generator: Adobe Illustrator 22.0.1, SVG Export Plug-In . SVG Version: 6.00 Build 0)  -->
<svg version="1.1" id="katman_1" xmlns="http://www.w3.org/2000/svg" xmlns:xlink="http://www.w3.org/1999/xlink" x="0px" y="0px"
	 viewBox="0 0 1334 1204" style="enable-background:new 0 0 1334 1204;" xml:space="preserve">
<style type="text/css">
	.st0{fill:#75BA25;}
</style>
<g>
	<g>
		<path class="st0" d="M645,372c-6.2,0-12.3-0.4-17.2-1.5c-5.5-1.2-9.2-3.2-10.8-5.8v0c-9.7-15.8,5.6-30.3,5.7-30.4l0.4-0.3l0.5-0.1
			c0.5-0.1,12.6-1.4,19.7,6.5c3.2-1.5,12.2-5.1,19.4-0.8c-0.5-4-0.6-8,1-12.1c0.2-0.4,0.3-0.9,0.5-1.3c1.1-2.8,2.5-6.1,1.9-8.8
			c-0.1-0.3-0.1-0.5-0.1-0.6c-0.1,0-0.2,0.1-0.3,0.1c-0.4,0.2-1,0.4-1.6,0.6c-0.7,0.2-1.4,0.6-2.1,0.9c-1.1,0.6-2.2,1.1-3.6,1.4
			c-1.5,0.3-3.6-0.2-4.8-1.5c-0.8-0.9-1-2-0.6-3.1c0.2-0.5,0.4-0.9,0.6-1.2c0.1-0.2,0.2-0.3,0.3-0.5c0.3-0.6-0.1-1.6-0.4-2.4
			c-0.1-0.2-0.2-0.4-0.2-0.6c-0.7-2-0.1-4.3,1.5-6.5c1.7-2.2,4.2-3.6,6.2-3.5c1.1,0.1,2.2,0,3.5-0.1c2.4-0.1,5-0.2,7.2,0.5
			c3.5,1.2,4.4,4.2,5.2,7.1c1.6,5.9,3.5,11.8,5.6,17.5c0.3,0.9,0.6,1.8,0.9,2.8c0.7,2.3,1.5,4.8,2.8,6.6c0.6,0.8,1.3,1.5,2,2.3
			c1.7,1.7,3.6,3.6,3.8,7c0.2,2.2-0.4,4.2-0.9,6.1c-0.2,0.8-0.4,1.5-0.6,2.2c-0.3,1.6-0.2,2.9-0.1,4.5c0.1,0.7,0.1,1.5,0.1,2.4
			c0,2.7-0.8,4.9-2.3,6.2c-1.1,0.9-3,1.8-6.2,1.1l-0.2-0.1c-0.1,0-3.2-1-7.1,1.6C671.8,370.1,658.2,372,645,372z M619.6,363.1
			c1.2,1.9,4.2,3.4,8.9,4.5c15.4,3.4,41.7,0,44.5-1.9c4.8-3.2,8.9-2.2,9.7-2c1.1,0.2,2.6,0.3,3.6-0.5c1.1-0.9,1.3-2.6,1.3-3.8
			c0-0.7-0.1-1.5-0.1-2.2c-0.1-1.6-0.3-3.4,0.2-5.4c0.2-0.8,0.4-1.6,0.6-2.4c0.5-1.7,0.9-3.4,0.8-5c-0.2-2.2-1.4-3.5-3-5.1
			c-0.8-0.8-1.6-1.6-2.3-2.7c-1.6-2.3-2.4-4.9-3.2-7.5c-0.3-0.9-0.6-1.8-0.9-2.7c-2.1-5.8-4-11.7-5.6-17.7c-0.8-3-1.3-4.5-3.3-5.1
			c-1.7-0.6-4-0.5-6.1-0.4c-1.3,0.1-2.6,0.1-3.8,0c-0.9-0.1-2.4,0.7-3.6,2.3c-1,1.3-1.4,2.7-1.1,3.7c0.1,0.2,0.1,0.4,0.2,0.6
			c0.5,1.3,1.1,3,0.4,4.7c-0.1,0.3-0.3,0.5-0.4,0.8c-0.1,0.3-0.3,0.5-0.3,0.7c0,0.1,0,0.2,0,0.2c0.3,0.4,1.3,0.6,2,0.5
			c0.9-0.2,1.8-0.6,2.7-1.1c0.8-0.4,1.6-0.8,2.5-1.1c0.5-0.2,1-0.3,1.3-0.5c1-0.4,2-0.8,3-0.3c1,0.6,1.4,1.8,1.6,2.9
			c0.7,3.6-0.8,7.3-2.1,10.5c-0.2,0.4-0.4,0.9-0.5,1.3c-1.7,4.3-1.1,8.8-0.5,13.4l0.8,5.6l-3.2-3.5c-7.1-7.7-19.8-0.7-19.9-0.6
			l-1.1,0.6l-0.8-1c-5.2-6.8-15-6.5-17.3-6.4C622.3,339,611.8,350.5,619.6,363.1L619.6,363.1z"/>
	</g>
	<g>
		<polygon class="st0" points="466.9,481.2 463.4,481.2 443.9,500.1 424.4,481.2 420.9,481.2 443.9,503.7 		"/>
		<path class="st0" d="M469.5,453.2c-3-3-7.1-4.7-11.5-4.7c-4.3,0-8.4,1.7-11.5,4.7l-2.7,2.7l-2.7-2.7c-6.3-6.3-16.6-6.3-22.9,0
			c-4.9,4.9-6.1,12.5-3.1,18.7h2.8c-3.3-5.3-2.6-12.3,2-16.9c2.6-2.6,6-4,9.7-4c3.7,0,7.1,1.4,9.7,4l4.4,4.4l4.4-4.4
			c0.2-0.2,0.4-0.4,0.6-0.5c5.4-4.9,13.7-4.6,18.9,0.5c2.6,2.6,4,6,4,9.7c0,2.6-0.7,5.1-2.1,7.3h2.8c1.1-2.2,1.7-4.7,1.7-7.3
			C474.3,460.3,472.6,456.2,469.5,453.2z"/>
		<path class="st0" d="M463,474.9h-6.7l-6.5-15.9l-5.4,16.1l-1.7-2l-2.7,7l-2.1-4.6l-4.9-9.7l-6.5,8.9h-4.3h-5.9c0,0,0,0,0,0
			c0.6,0.8,1.2,1.6,1.9,2.3l0.3,0.3l0,0h9h0.3l4.8-6.6l3,5.8l4.6,10.2l3.4-8.7l1.9,2.2l4.6-13.8l4.5,10.9h5.9h8.9l0,0l0.4-0.4
			c0.7-0.7,1.3-1.4,1.9-2.2c0,0,0,0,0,0H463z"/>
	</g>
	<g>
		<path class="st0" d="M756.8,563.7c0-0.4,0-0.9,0-1.3c-1.2-55.5-46.7-100.3-102.4-100.6c-0.2,0-0.3,0-0.5,0c-0.2,0-0.3,0-0.5,0
			c-55.5,0.3-100.8,44.7-102.4,100c0,0.4,0,0.9,0,1.3c0,0.6,0,1.1,0,1.7c0,35.9,18.4,67.5,46.3,85.9c0.3,0.2,0.6,0.4,0.8,0.6
			c16.1,10.4,35.2,16.5,55.8,16.5c20.9,0,40.3-6.3,56.6-17c0.3-0.2,0.6-0.4,0.8-0.5c27.4-18.5,45.5-49.9,45.5-85.4
			C756.8,564.4,756.8,564.1,756.8,563.7z M653.9,663.7c-54.6,0-98.9-44.4-98.9-98.9c0-54.5,44.4-98.9,98.9-98.9s98.9,44.4,98.9,98.9
			C752.8,619.3,708.4,663.7,653.9,663.7z"/>
	</g>
	<g>
		<path class="st0" d="M443.7,428.2c-36.8,0-66.8,30-66.8,66.8c0,36.8,30,66.8,66.8,66.8c28.2,0,52.3-17.5,62.2-42.3
			c0.1-0.2,0.2-0.5,0.3-0.7c2.8-7.4,4.4-15.4,4.4-23.8C510.5,458.2,480.5,428.2,443.7,428.2z M443.7,559.8
			c-35.7,0-64.8-29.1-64.8-64.8c0-35.7,29.1-64.8,64.8-64.8s64.8,29.1,64.8,64.8C508.5,530.8,479.4,559.8,443.7,559.8z"/>
	</g>
	<g>
		<path class="st0" d="M654.6,285.6c-36.8,0-66.8,30-66.8,66.8c0,36.4,29.3,66.1,65.5,66.8c0.3,0,0.7,0,1,0h0.3
			c36.8,0,66.8-30,66.8-66.8C721.5,315.5,691.5,285.6,654.6,285.6z M654.6,417.2c-35.7,0-64.8-29.1-64.8-64.8
			c0-35.7,29.1-64.8,64.8-64.8s64.8,29.1,64.8,64.8C719.5,388.1,690.4,417.2,654.6,417.2z"/>
	</g>
	<g>
		<path class="st0" d="M452.9,637c-36.8,0-66.8,30-66.8,66.8c0,36.8,30,66.8,66.8,66.8c36.8,0,66.8-30,66.8-66.8
			C519.7,667,489.7,637,452.9,637z M452.9,768.6c-35.7,0-64.8-29.1-64.8-64.8c0-35.7,29.1-64.8,64.8-64.8s64.8,29.1,64.8,64.8
			C517.7,739.5,488.6,768.6,452.9,768.6z"/>
	</g>
	<g>
		<path class="st0" d="M862.6,426.7c-36.8,0-66.8,30-66.8,66.8c0,9.2,1.9,18,5.3,26.1c0.1,0.3,0.3,0.6,0.4,1
			c10.4,23.4,33.9,39.8,61.1,39.8c36.8,0,66.8-30,66.8-66.8S899.4,426.7,862.6,426.7z M862.6,558.3c-35.7,0-64.8-29.1-64.8-64.8
			c0-35.7,29.1-64.8,64.8-64.8s64.8,29.1,64.8,64.8C927.4,529.2,898.3,558.3,862.6,558.3z"/>
	</g>
	<g>
		<path class="st0" d="M621.4,387.3c-0.2-0.4-0.5-0.6-0.8-0.9l-0.8-0.3c-0.1,0-0.3-0.1-0.6-0.2c-0.3-0.1-0.5-0.2-0.9-0.3
			c-0.2,0-0.4-0.1-0.7-0.2c-1.1-0.2-1.6-0.6-1.6-1.1c0-0.4,0.1-0.7,0.4-0.9c0.2-0.2,0.6-0.3,1.2-0.3c0.6,0,1,0.1,1.3,0.4
			c0.2,0.1,0.3,0.3,0.4,0.5c0.2,0.4,0.5,0.6,0.9,0.6h1.1c0-0.9-0.4-1.7-1-2.2c-0.6-0.5-1.5-0.8-2.6-0.8c-1.2,0-2.1,0.3-2.7,0.8
			c-0.6,0.5-0.9,1.2-0.9,2.1c0,0.5,0.1,0.9,0.3,1.3c0.1,0.4,0.4,0.7,0.8,0.9c0.3,0.2,0.9,0.4,1.9,0.6l0.2,0.1l0.1,0
			c1.7,0.4,2.5,0.8,2.5,1.4c0,0.4-0.2,0.7-0.4,0.9c-0.3,0.2-0.7,0.3-1.3,0.3c-0.6,0-1.2-0.1-1.5-0.4c-0.4-0.2-0.6-0.6-0.6-1.2H614
			c0.1,1,0.4,1.8,1.1,2.4c0.6,0.5,1.6,0.8,2.8,0.8c1.2,0,2.2-0.3,2.8-0.8c0.7-0.5,1-1.3,1-2.3C621.8,388.1,621.7,387.7,621.4,387.3z
			"/>
		<path class="st0" d="M629,385c-0.3-0.3-0.7-0.6-1.1-0.8c-0.5-0.2-0.9-0.3-1.4-0.3c-0.9,0-1.7,0.2-2.5,0.7
			c-0.8,0.5-1.1,1.4-1.1,2.6v6.9h0.9c0.3,0,0.5-0.1,0.7-0.3c0.2-0.2,0.3-0.4,0.3-0.7v-2.7c0.2,0.4,0.5,0.7,0.9,0.9
			c0.3,0.2,0.8,0.3,1.2,0.3c0.9,0,1.6-0.3,2.1-1c0.5-0.7,0.8-1.7,0.8-2.8C629.8,386.6,629.5,385.7,629,385z M627.5,389.4
			c-0.3,0.4-0.7,0.6-1.1,0.6c-0.5,0-0.9-0.2-1.2-0.6c-0.3-0.3-0.4-0.9-0.4-1.6c0-0.8,0.1-1.3,0.4-1.7c0.3-0.4,0.7-0.6,1.2-0.6
			c0.5,0,0.9,0.2,1.2,0.6c0.3,0.4,0.4,0.9,0.4,1.7C627.9,388.5,627.7,389,627.5,389.4z"/>
		<path class="st0" d="M637,385.6c-0.3-0.7-0.8-1.2-1.5-1.4c-0.6-0.2-1.3-0.3-2-0.2c-0.8,0.1-1.4,0.4-1.9,1
			c-0.3,0.3-0.5,0.7-0.6,1.2c-0.1,0.5-0.2,1-0.2,1.5c0,0.6,0.1,1.2,0.3,1.8c0.2,0.6,0.4,1,0.8,1.3c0.4,0.3,0.9,0.6,1.5,0.7
			c0.6,0.1,1.2,0.1,1.8,0c0.7-0.1,1.3-0.5,1.7-1.1c0.2-0.3,0.4-0.7,0.5-1.1c0.1-0.4,0.2-0.9,0.2-1.5
			C637.4,386.9,637.3,386.2,637,385.6z M635.2,389.3c-0.2,0.3-0.5,0.5-0.8,0.6c-0.3,0.1-0.6,0.1-0.8,0c-0.3-0.1-0.5-0.2-0.6-0.4
			c-0.3-0.3-0.4-0.9-0.5-1.8c0-0.8,0.1-1.5,0.5-1.9c0.1-0.1,0.3-0.2,0.6-0.3c0.3-0.1,0.6-0.1,0.8,0c0.3,0.1,0.5,0.3,0.7,0.6
			c0.2,0.3,0.3,0.8,0.3,1.5C635.5,388.5,635.4,389,635.2,389.3z"/>
		<path class="st0" d="M642.3,384.1c-0.5,0-1,0.1-1.4,0.2c-0.5,0.1-0.9,0.3-1.2,0.6c-0.4,0.3-0.7,0.7-0.9,1.2
			c-0.2,0.5-0.3,1.1-0.3,1.8v3.6h1.9v-3.8c0-0.6,0.1-1,0.4-1.2s0.7-0.4,1.2-0.4h0.6v-2H642.3z"/>
		<path class="st0" d="M648.6,389.2c-0.2,0-0.4,0-0.5,0.1c-0.1,0.1-0.2,0.2-0.2,0.2c-0.1,0.1-0.1,0.1-0.2,0.2
			c-0.1,0-0.1,0.1-0.2,0.1c-0.2,0.1-0.5,0.2-0.8,0.2c-0.5,0-0.8-0.2-1.1-0.5c-0.3-0.4-0.5-0.9-0.5-1.8c0-0.9,0.2-1.5,0.5-1.8
			c0.3-0.3,0.6-0.4,1-0.4c0.5,0,0.8,0.1,1,0.4c0.1,0.1,0.2,0.2,0.3,0.4h1.9c-0.2-0.5-0.4-1-0.7-1.4c-0.6-0.7-1.5-1-2.6-1
			c-1.1,0-1.9,0.3-2.5,1c-0.6,0.7-0.9,1.6-0.9,2.8c0,1.2,0.3,2.2,0.9,2.8c0.6,0.7,1.4,1,2.5,1c0.9,0,1.6-0.2,2.1-0.6
			c0.6-0.4,1-1,1.2-1.8H648.6z"/>
		<path class="st0" d="M656.4,384.1c-0.3,0-0.5,0.1-0.7,0.3c-0.2,0.2-0.3,0.4-0.3,0.7v3.8c0,0.4-0.1,0.8-0.4,1
			c-0.3,0.2-0.6,0.3-0.9,0.3s-0.6-0.1-0.9-0.3c-0.3-0.2-0.4-0.5-0.4-1v-4.7H651v4.3c0,1.3,0.3,2.1,1,2.5c0.7,0.4,1.4,0.6,2.2,0.7
			c0.8,0,1.6-0.2,2.2-0.6c0.7-0.4,1-1.3,1-2.6v-4.3H656.4z"/>
		<path class="st0" d="M669.3,383.1c-0.7-0.8-1.8-1.2-3.3-1.2h-2.7c-0.3,0-0.5,0.1-0.7,0.3c-0.2,0.2-0.3,0.4-0.3,0.7v8.5h3.2
			c0.9,0,1.6-0.1,2-0.2c0.5-0.1,0.9-0.3,1.3-0.7c0.5-0.4,0.9-0.9,1.2-1.6c0.3-0.7,0.4-1.4,0.4-2.3
			C670.4,385.1,670,383.9,669.3,383.1z M667.8,389c-0.4,0.5-1.1,0.7-2,0.7h-1.6v-6.1h1.8c0.8,0,1.4,0.3,1.8,0.8
			c0.4,0.5,0.6,1.3,0.6,2.3C668.4,387.8,668.2,388.6,667.8,389z"/>
		<path class="st0" d="M673.2,382.2c-0.2-0.2-0.4-0.3-0.7-0.3h-1v1.5h1.9v-0.6C673.4,382.6,673.4,382.4,673.2,382.2z M673.2,384.4
			c-0.2-0.2-0.4-0.3-0.7-0.3h-1v7.3h1.9V385C673.4,384.8,673.4,384.6,673.2,384.4z"/>
		<path class="st0" d="M680.3,384.1c-0.5,0-0.8,0.2-0.9,0.7l-1.3,4.5l-1.5-5.2h-2.1l2.6,7.3c0.1,0.4,0.1,0.7-0.1,0.8
			c-0.2,0.2-0.5,0.3-0.9,0.3h-0.5v1.5c0.1,0,0.1,0,0.2,0c0.1,0,0.2,0,0.2,0h0.4c0.8,0,1.3-0.1,1.6-0.3c0.3-0.3,0.6-0.7,0.8-1.3
			l2.8-8.4H680.3z"/>
		<path class="st0" d="M688.4,384.9c-0.6-0.7-1.5-1-2.6-1c-1.1,0-1.9,0.3-2.5,1c-0.6,0.7-0.9,1.6-0.9,2.8c0,1.2,0.3,2.2,0.9,2.8
			c0.6,0.7,1.4,1,2.5,1c0.9,0,1.6-0.2,2.2-0.6c0.6-0.4,0.9-1,1.2-1.8h-1.4c-0.2,0-0.4,0-0.5,0.1c-0.1,0.1-0.2,0.2-0.2,0.2
			c-0.1,0.1-0.1,0.1-0.2,0.2c0,0-0.1,0.1-0.2,0.1c-0.2,0.1-0.5,0.2-0.8,0.2c-0.5,0-0.8-0.2-1.1-0.5c-0.3-0.3-0.4-0.7-0.4-1.3h4.8
			c0,0,0-0.1,0-0.2v-0.3C689.3,386.6,689,385.6,688.4,384.9z M684.5,387c0-0.5,0.2-0.8,0.4-1.1c0.3-0.3,0.6-0.4,1-0.4
			c0.4,0,0.8,0.1,1,0.4c0.2,0.2,0.3,0.6,0.4,1.1H684.5z"/>
		<path class="st0" d="M692.6,385.4c0.3,0,0.5-0.1,0.7-0.3c0.2-0.2,0.3-0.4,0.3-0.7v-0.4h-1.1v-1.3c0-0.3-0.1-0.5-0.3-0.7
			c-0.2-0.2-0.4-0.3-0.6-0.3h-1v8.1c0,0.9,0.4,1.3,1.1,1.4c0.7,0.1,1.4,0.1,2,0V390H693c-0.4,0-0.5-0.1-0.5-0.5v-4.1H692.6z"/>
		<path class="st0" d="M696.2,382.2c-0.2-0.2-0.4-0.3-0.7-0.3h-1v1.5h1.9v-0.6C696.4,382.6,696.4,382.4,696.2,382.2z M696.2,384.4
			c-0.2-0.2-0.4-0.3-0.7-0.3h-1v7.3h1.9V385C696.4,384.8,696.4,384.6,696.2,384.4z"/>
	</g>
	<g>
		<path class="st0" d="M415.2,511.5v2.7h-2.9v-2.7h-0.7c-0.2,0-0.4,0.1-0.5,0.2c-0.1,0.2-0.2,0.3-0.2,0.5v6.4h1.5v-3.2h2.9v3.2h1.5
			v-7.1H415.2z"/>
		<path class="st0" d="M421.9,513.4c-0.4-0.3-1-0.4-1.7-0.4c-0.7,0-1.2,0.2-1.6,0.5c-0.3,0.3-0.5,0.6-0.6,1h1.4
			c0.1-0.1,0.2-0.3,0.3-0.3c0.2,0,0.3-0.1,0.5-0.1c0.2,0,0.4,0,0.6,0.1s0.3,0.2,0.3,0.4c0,0.3-0.3,0.5-0.9,0.5c-0.1,0-0.2,0-0.3,0
			c-0.1,0-0.2,0-0.3,0c-0.5,0.1-1,0.3-1.3,0.5c-0.3,0.3-0.5,0.7-0.5,1.2c0,0.6,0.2,1.1,0.6,1.3s0.8,0.4,1.3,0.4c0.3,0,0.5,0,0.9,0
			c0.3,0,0.6-0.1,0.9-0.3c0.3-0.1,0.5-0.4,0.7-0.7s0.3-0.7,0.3-1.3v-1.9C422.5,514,422.3,513.6,421.9,513.4z M421.2,516.3
			c0,0.4-0.1,0.7-0.3,0.9c-0.2,0.2-0.5,0.3-0.9,0.3c-0.2,0-0.4-0.1-0.5-0.2c-0.1-0.1-0.2-0.3-0.2-0.5c0-0.2,0-0.3,0.1-0.5
			c0.1-0.1,0.3-0.2,0.5-0.3l0.5-0.1c0.3-0.1,0.6-0.2,0.8-0.3V516.3z"/>
		<path class="st0" d="M428.1,515.8c-0.3-0.2-0.8-0.4-1.5-0.6c-0.1,0-0.1,0-0.2,0c-0.1,0-0.1,0-0.2-0.1c-0.7-0.2-1.1-0.3-1.1-0.6
			c0-0.2,0.1-0.3,0.2-0.4c0.1-0.1,0.3-0.1,0.6-0.1c0.3,0,0.5,0.1,0.7,0.2c0,0.1,0.1,0.1,0.2,0.2c0.1,0.2,0.3,0.3,0.6,0.3h0.9
			c0-0.5-0.2-1-0.6-1.3c-0.4-0.3-1-0.5-1.7-0.5c-0.7,0-1.2,0.2-1.6,0.5c-0.4,0.3-0.6,0.8-0.6,1.3c0,0.4,0.1,0.7,0.4,1
			c0.3,0.3,0.7,0.5,1.5,0.6c0.1,0,0.3,0.1,0.5,0.1c0.6,0.1,0.9,0.3,0.9,0.6c0,0.2-0.1,0.3-0.3,0.4c-0.2,0.1-0.4,0.2-0.6,0.2
			c-0.3,0-0.6-0.1-0.8-0.2c-0.2-0.1-0.3-0.3-0.3-0.6h-1.4v0.1c0,0.6,0.2,1.1,0.6,1.4c0.4,0.3,1,0.5,1.8,0.5c0.8,0,1.4-0.2,1.9-0.4
			c0.4-0.3,0.7-0.8,0.7-1.4C428.5,516.4,428.4,516.1,428.1,515.8z"/>
		<path class="st0" d="M431.6,514.1c0.2,0,0.4-0.1,0.5-0.2c0.1-0.1,0.2-0.3,0.2-0.5v-0.3h-0.8v-0.9c0-0.2-0.1-0.4-0.2-0.5
			s-0.3-0.2-0.5-0.2H430v6.1c0,0.6,0.3,1,0.8,1s1,0.1,1.5,0v-1.1h-0.4c-0.3,0-0.4-0.1-0.4-0.3v-3.1H431.6z"/>
		<path class="st0" d="M437.4,513.4c-0.4-0.3-1-0.4-1.7-0.4c-0.7,0-1.2,0.2-1.6,0.5c-0.3,0.3-0.5,0.6-0.6,1h1.4
			c0.1-0.1,0.2-0.3,0.3-0.3c0.2,0,0.3-0.1,0.5-0.1c0.2,0,0.4,0,0.6,0.1c0.2,0.1,0.3,0.2,0.3,0.4c0,0.3-0.3,0.5-0.9,0.5
			c-0.1,0-0.2,0-0.3,0c-0.1,0-0.2,0-0.2,0c-0.5,0.1-1,0.3-1.3,0.5c-0.3,0.3-0.5,0.7-0.5,1.2c0,0.6,0.2,1.1,0.6,1.3
			c0.4,0.3,0.8,0.4,1.3,0.4c0.3,0,0.5,0,0.9,0c0.3,0,0.6-0.1,0.9-0.3c0.3-0.1,0.5-0.4,0.7-0.7c0.2-0.3,0.3-0.7,0.3-1.3v-1.9
			C438,514,437.8,513.6,437.4,513.4z M436.6,516.3c0,0.4-0.1,0.7-0.3,0.9c-0.2,0.2-0.5,0.3-0.9,0.3c-0.2,0-0.4-0.1-0.5-0.2
			c-0.1-0.1-0.2-0.3-0.2-0.5c0-0.2,0-0.3,0.1-0.5c0.1-0.1,0.3-0.2,0.5-0.3l0.5-0.1c0.3-0.1,0.6-0.2,0.8-0.3V516.3z"/>
		<path class="st0" d="M440.5,511.7c-0.1-0.1-0.3-0.2-0.5-0.2h-0.8v7.1h1.4v-6.4C440.7,512,440.7,511.8,440.5,511.7z"/>
		<path class="st0" d="M443.3,513.3c-0.1-0.1-0.3-0.2-0.5-0.2H442v5.5h1.4v-4.8C443.5,513.6,443.4,513.4,443.3,513.3z"/>
		<path class="st0" d="M447.8,515.2l2-2.1H448l-1.8,2v-2.9c0-0.2-0.1-0.3-0.2-0.5c-0.1-0.1-0.3-0.2-0.5-0.2h-0.7v7.1h1.4v-2.1
			c0-0.1,0.1-0.2,0.2-0.2c0.2-0.1,0.3,0.1,0.5,0.5l1,1.9h1.7L447.8,515.2z"/>
		<path class="st0" d="M452.4,511.7c-0.1-0.1-0.3-0.2-0.5-0.2h-0.8v7.1h1.4v-6.4C452.6,512,452.5,511.8,452.4,511.7z"/>
		<path class="st0" d="M457.8,513.4c-0.4-0.3-1-0.4-1.7-0.4c-0.7,0-1.2,0.2-1.6,0.5c-0.3,0.3-0.5,0.6-0.6,1h1.4
			c0.1-0.1,0.2-0.3,0.3-0.3c0.1,0,0.3-0.1,0.5-0.1c0.2,0,0.4,0,0.6,0.1c0.2,0.1,0.3,0.2,0.3,0.4c0,0.3-0.3,0.5-0.9,0.5
			c-0.1,0-0.2,0-0.3,0c-0.1,0-0.2,0-0.3,0c-0.5,0.1-1,0.3-1.3,0.5c-0.3,0.3-0.5,0.7-0.5,1.2c0,0.6,0.2,1.1,0.6,1.3s0.8,0.4,1.3,0.4
			c0.3,0,0.5,0,0.9,0c0.3,0,0.6-0.1,0.9-0.3c0.3-0.1,0.5-0.4,0.7-0.7s0.3-0.7,0.3-1.3v-1.9C458.4,514,458.2,513.6,457.8,513.4z
			 M457.1,516.3c0,0.4-0.1,0.7-0.3,0.9c-0.2,0.2-0.5,0.3-0.9,0.3c-0.2,0-0.4-0.1-0.5-0.2c-0.1-0.1-0.2-0.3-0.2-0.5
			c0-0.2,0.1-0.3,0.1-0.5c0.1-0.1,0.3-0.2,0.5-0.3l0.5-0.1c0.3-0.1,0.6-0.2,0.8-0.3V516.3z"/>
		<path class="st0" d="M462.5,513.1c-0.4,0-0.7,0-1.1,0.1s-0.7,0.3-0.9,0.4c-0.3,0.2-0.5,0.5-0.6,0.9c-0.2,0.4-0.2,0.8-0.2,1.4v2.7
			h1.4v-2.8c0-0.4,0.1-0.7,0.3-0.9c0.2-0.2,0.5-0.3,0.9-0.3h0.5v-1.5H462.5z"/>
		<path class="st0" d="M469,511.7c-0.1-0.1-0.3-0.2-0.5-0.2h-0.7v2.4c-0.2-0.3-0.4-0.5-0.7-0.6c-0.3-0.1-0.6-0.2-0.9-0.2
			c-0.7,0-1.2,0.3-1.6,0.8c-0.4,0.5-0.6,1.2-0.6,2.1c0,0.9,0.2,1.6,0.6,2.1c0.2,0.3,0.5,0.5,0.8,0.6c0.3,0.1,0.7,0.2,1,0.2
			c0.7,0,1.3-0.2,1.8-0.5c0.6-0.3,0.8-1,0.8-2v-4C469.2,512,469.1,511.9,469,511.7z M467.3,517.1c-0.2,0.3-0.5,0.4-0.9,0.4
			c-0.4,0-0.7-0.1-0.9-0.4c-0.2-0.3-0.3-0.7-0.3-1.3c0-0.5,0.1-0.9,0.3-1.2c0.2-0.3,0.5-0.4,0.9-0.4c0.4,0,0.7,0.1,0.9,0.4
			c0.2,0.3,0.3,0.7,0.3,1.2C467.6,516.4,467.5,516.8,467.3,517.1z"/>
		<path class="st0" d="M474.6,513.4c-0.4-0.3-1-0.4-1.7-0.4c-0.7,0-1.2,0.2-1.6,0.5c-0.3,0.3-0.5,0.6-0.6,1h1.4
			c0.1-0.1,0.2-0.3,0.3-0.3c0.1,0,0.3-0.1,0.5-0.1c0.2,0,0.4,0,0.6,0.1c0.2,0.1,0.3,0.2,0.3,0.4c0,0.3-0.3,0.5-0.9,0.5
			c-0.1,0-0.2,0-0.3,0c-0.1,0-0.2,0-0.3,0c-0.5,0.1-0.9,0.3-1.3,0.5c-0.3,0.3-0.5,0.7-0.5,1.2c0,0.6,0.2,1.1,0.6,1.3
			c0.4,0.3,0.8,0.4,1.3,0.4c0.2,0,0.5,0,0.8,0c0.3,0,0.6-0.1,0.9-0.3c0.3-0.1,0.5-0.4,0.7-0.7c0.2-0.3,0.3-0.7,0.3-1.3v-1.9
			C475.2,514,475,513.6,474.6,513.4z M473.8,516.3c0,0.4-0.1,0.7-0.3,0.9c-0.2,0.2-0.5,0.3-0.9,0.3c-0.2,0-0.4-0.1-0.5-0.2
			c-0.1-0.1-0.2-0.3-0.2-0.5c0-0.2,0-0.3,0.1-0.5c0.1-0.1,0.3-0.2,0.5-0.3l0.5-0.1c0.3-0.1,0.6-0.2,0.8-0.3V516.3z"/>
		<path class="st0" d="M401.4,525c-0.5-0.6-1.4-0.9-2.4-0.9h-2c-0.2,0-0.4,0.1-0.5,0.2c-0.1,0.1-0.2,0.3-0.2,0.5v6.4h2.4
			c0.7,0,1.2,0,1.5-0.1c0.4-0.1,0.7-0.3,1-0.5c0.4-0.3,0.7-0.7,0.9-1.2c0.2-0.5,0.3-1.1,0.3-1.7C402.2,526.6,401.9,525.7,401.4,525z
			 M400.2,529.5c-0.3,0.3-0.8,0.5-1.5,0.5h-1.2v-4.6h1.4c0.6,0,1,0.2,1.3,0.5c0.3,0.4,0.4,1,0.4,1.8
			C400.7,528.6,400.5,529.1,400.2,529.5z"/>
		<path class="st0" d="M404.8,524.4c-0.1-0.1-0.3-0.2-0.5-0.2h-0.7v1.1h1.4v-0.4C405,524.7,404.9,524.5,404.8,524.4z M404.8,526
			c-0.1-0.1-0.3-0.2-0.5-0.2h-0.7v5.5h1.4v-4.8C405,526.3,404.9,526.1,404.8,526z"/>
		<path class="st0" d="M410.7,525.8c-0.4,0-0.6,0.2-0.7,0.5l-1,3.4l-1.1-3.9h-1.6l1.9,5.5c0.1,0.3,0.1,0.5-0.1,0.6
			c-0.2,0.1-0.4,0.2-0.7,0.2h-0.4v1.1c0,0,0.1,0,0.1,0c0.1,0,0.1,0,0.2,0h0.3c0.6,0,1-0.1,1.2-0.3c0.3-0.2,0.5-0.5,0.6-1l2.1-6.3
			H410.7z"/>
		<path class="st0" d="M417.3,526.4c-0.4-0.5-1.1-0.8-1.9-0.8c-0.8,0-1.4,0.3-1.8,0.8c-0.4,0.5-0.6,1.2-0.6,2.1
			c0,0.9,0.2,1.6,0.7,2.1c0.4,0.5,1.1,0.8,1.8,0.8c0.6,0,1.2-0.2,1.6-0.5c0.4-0.3,0.7-0.7,0.9-1.3h-1c-0.2,0-0.3,0-0.4,0.1
			s-0.1,0.1-0.2,0.2c0,0-0.1,0.1-0.1,0.1c0,0-0.1,0.1-0.1,0.1c-0.2,0.1-0.4,0.2-0.6,0.2c-0.4,0-0.6-0.1-0.8-0.3
			c-0.2-0.2-0.3-0.5-0.3-0.9h3.6c0,0,0-0.1,0-0.2v-0.2C417.9,527.6,417.7,526.9,417.3,526.4z M414.3,528c0-0.4,0.1-0.6,0.3-0.8
			c0.2-0.2,0.4-0.3,0.7-0.3c0.3,0,0.6,0.1,0.8,0.3c0.2,0.2,0.3,0.5,0.3,0.8H414.3z"/>
		<path class="st0" d="M420.9,526.8c0.2,0,0.4-0.1,0.5-0.2c0.1-0.1,0.2-0.3,0.2-0.5v-0.3h-0.9v-0.9c0-0.2-0.1-0.4-0.2-0.5
			c-0.1-0.1-0.3-0.2-0.5-0.2h-0.8v6.1c0,0.6,0.3,1,0.8,1c0.5,0,1,0.1,1.5,0v-1.1h-0.4c-0.3,0-0.4-0.1-0.4-0.3v-3.1H420.9z"/>
		<path class="st0" d="M431.5,525c-0.5-0.6-1.3-0.9-2.4-0.9h-2c-0.2,0-0.4,0.1-0.5,0.2c-0.1,0.1-0.2,0.3-0.2,0.5v6.4h2.4
			c0.7,0,1.2,0,1.5-0.1c0.3-0.1,0.7-0.3,1-0.5c0.4-0.3,0.6-0.7,0.9-1.2c0.2-0.5,0.3-1.1,0.3-1.7C432.3,526.6,432,525.7,431.5,525z
			 M430.4,529.5c-0.3,0.3-0.8,0.5-1.5,0.5h-1.2v-4.6h1.4c0.6,0,1.1,0.2,1.3,0.5c0.3,0.4,0.4,1,0.4,1.8
			C430.8,528.6,430.7,529.1,430.4,529.5z"/>
		<path class="st0" d="M437.6,526.1c-0.4-0.3-1-0.4-1.7-0.4c-0.7,0-1.2,0.2-1.6,0.5c-0.3,0.3-0.5,0.6-0.6,1h1.4
			c0.1-0.2,0.2-0.3,0.3-0.3c0.1-0.1,0.3-0.1,0.5-0.1c0.2,0,0.4,0,0.6,0.1c0.2,0.1,0.3,0.2,0.3,0.4c0,0.3-0.3,0.4-0.9,0.5
			c-0.1,0-0.2,0-0.3,0.1c-0.1,0-0.2,0-0.3,0c-0.5,0.1-0.9,0.2-1.3,0.5c-0.3,0.3-0.5,0.7-0.5,1.2c0,0.6,0.2,1.1,0.6,1.3
			c0.4,0.3,0.8,0.4,1.3,0.4c0.2,0,0.5,0,0.8-0.1c0.3,0,0.6-0.1,0.9-0.3c0.3-0.1,0.5-0.4,0.7-0.7c0.2-0.3,0.3-0.7,0.3-1.3v-1.9
			C438.2,526.7,438,526.3,437.6,526.1z M436.8,529c0,0.4-0.1,0.7-0.3,0.9c-0.2,0.2-0.5,0.3-0.9,0.3c-0.2,0-0.4,0-0.5-0.2
			c-0.1-0.1-0.2-0.3-0.2-0.5c0-0.2,0.1-0.3,0.1-0.4c0.1-0.1,0.3-0.2,0.5-0.3l0.5-0.1c0.3-0.1,0.6-0.2,0.8-0.3V529z"/>
		<path class="st0" d="M443.5,526.1c-0.5-0.3-1.1-0.5-1.7-0.5c-0.6,0-1.1,0.2-1.6,0.5c-0.5,0.3-0.7,0.9-0.7,1.9v3.2h1.5v-3.5
			c0-0.3,0.1-0.6,0.3-0.7c0.2-0.1,0.4-0.2,0.7-0.2c0.2,0,0.5,0.1,0.7,0.2c0.2,0.2,0.3,0.4,0.3,0.7v2.8c0,0.2,0.1,0.4,0.2,0.5
			c0.1,0.1,0.3,0.2,0.5,0.2h0.7v-3.2C444.2,527.1,444,526.5,443.5,526.1z"/>
		<path class="st0" d="M447.1,526c-0.1-0.1-0.3-0.2-0.5-0.2h-0.7v5.5h1.4v-4.8C447.3,526.3,447.2,526.1,447.1,526z"/>
		<path class="st0" d="M452.9,528.5c-0.3-0.2-0.8-0.4-1.5-0.6c0,0-0.1,0-0.2,0c-0.1,0-0.1,0-0.2-0.1c-0.7-0.2-1.1-0.3-1.1-0.6
			c0-0.2,0.1-0.3,0.2-0.4c0.1-0.1,0.3-0.1,0.6-0.1c0.3,0,0.5,0.1,0.7,0.2c0.1,0,0.1,0.1,0.2,0.2c0.1,0.2,0.3,0.3,0.6,0.3h0.9
			c0-0.6-0.2-1-0.6-1.3c-0.4-0.3-1-0.5-1.7-0.5c-0.7,0-1.2,0.2-1.6,0.5c-0.4,0.3-0.6,0.8-0.6,1.3c0,0.4,0.1,0.7,0.4,1
			c0.3,0.3,0.7,0.5,1.5,0.6c0.1,0,0.3,0.1,0.6,0.1c0.6,0.1,0.9,0.3,0.9,0.5c0,0.2-0.1,0.3-0.2,0.4c-0.2,0.1-0.4,0.1-0.6,0.1
			c-0.3,0-0.6-0.1-0.8-0.2c-0.2-0.1-0.3-0.3-0.3-0.6h-1.4v0.1c0,0.6,0.2,1.1,0.6,1.4c0.4,0.3,1,0.5,1.8,0.5c0.8,0,1.4-0.2,1.9-0.5
			c0.4-0.3,0.7-0.8,0.7-1.4C453.3,529.1,453.2,528.8,452.9,528.5z M450.8,531.8c-0.3,0-0.4,0.1-0.4,0.3v0.4h0.4c0.2,0,0.2,0,0.2,0.1
			c0,0.1,0,0.2-0.1,0.2c-0.1,0-0.1,0.1-0.2,0.1c-0.2,0.1-0.3,0.1-0.3,0.2v0.1c0.3,0,0.6-0.1,0.9-0.3c0.2-0.1,0.3-0.3,0.3-0.5v-0.6
			H450.8z"/>
		<path class="st0" d="M462,526.1c-0.5-0.3-1.1-0.5-1.7-0.5c-0.3,0-0.6,0.1-0.9,0.1c-0.3,0.1-0.5,0.2-0.7,0.4
			c-0.3-0.2-0.5-0.3-0.8-0.4c-0.3-0.1-0.6-0.1-0.9-0.1c-0.6,0-1.1,0.2-1.6,0.5s-0.7,0.9-0.7,1.9v3.2h1.4v-3.5c0-0.3,0.1-0.6,0.3-0.7
			c0.2-0.1,0.4-0.2,0.7-0.2s0.5,0.1,0.7,0.2c0.2,0.2,0.3,0.4,0.3,0.7v3.5h1.4v-3.5c0-0.3,0.1-0.6,0.3-0.7c0.2-0.1,0.4-0.2,0.7-0.2
			s0.5,0.1,0.7,0.2c0.2,0.2,0.3,0.4,0.3,0.7v2.8c0,0.2,0.1,0.4,0.2,0.5c0.1,0.1,0.3,0.2,0.5,0.2h0.7v-3.2
			C462.8,527.1,462.5,526.5,462,526.1z"/>
		<path class="st0" d="M468.1,526.1c-0.4-0.3-1-0.4-1.7-0.4c-0.7,0-1.2,0.2-1.6,0.5c-0.3,0.3-0.5,0.6-0.6,1h1.4
			c0.1-0.2,0.2-0.3,0.3-0.3c0.2-0.1,0.3-0.1,0.5-0.1c0.2,0,0.4,0,0.6,0.1c0.2,0.1,0.3,0.2,0.3,0.4c0,0.3-0.3,0.4-0.9,0.5
			c-0.1,0-0.2,0-0.3,0.1c-0.1,0-0.2,0-0.3,0c-0.5,0.1-1,0.2-1.3,0.5c-0.3,0.3-0.5,0.7-0.5,1.2c0,0.6,0.2,1.1,0.6,1.3
			c0.4,0.3,0.8,0.4,1.3,0.4c0.3,0,0.5,0,0.9-0.1c0.3,0,0.6-0.1,0.9-0.3c0.3-0.1,0.5-0.4,0.7-0.7c0.2-0.3,0.3-0.7,0.3-1.3v-1.9
			C468.7,526.7,468.5,526.3,468.1,526.1z M467.4,529c0,0.4-0.1,0.7-0.3,0.9c-0.2,0.2-0.5,0.3-0.9,0.3c-0.2,0-0.4,0-0.5-0.2
			c-0.1-0.1-0.2-0.3-0.2-0.5c0-0.2,0-0.3,0.1-0.4c0.1-0.1,0.3-0.2,0.5-0.3l0.5-0.1c0.3-0.1,0.6-0.2,0.8-0.3V529z"/>
		<path class="st0" d="M474,526.1c-0.5-0.3-1.1-0.5-1.7-0.5c-0.6,0-1.1,0.2-1.6,0.5s-0.7,0.9-0.7,1.9v3.2h1.5v-3.5
			c0-0.3,0.1-0.6,0.3-0.7c0.2-0.1,0.4-0.2,0.7-0.2s0.5,0.1,0.7,0.2c0.2,0.2,0.3,0.4,0.3,0.7v2.8c0,0.2,0.1,0.4,0.2,0.5
			s0.3,0.2,0.5,0.2h0.7v-3.2C474.8,527.1,474.5,526.5,474,526.1z"/>
		<path class="st0" d="M477.7,524.4c-0.1-0.1-0.3-0.2-0.5-0.2h-0.8v7.1h1.5v-6.4C477.9,524.7,477.8,524.5,477.7,524.4z"/>
		<path class="st0" d="M480.5,526c-0.1-0.1-0.3-0.2-0.5-0.2h-0.7v5.5h1.4v-4.8C480.7,526.3,480.6,526.1,480.5,526z"/>
		<path class="st0" d="M486.2,526.2c-0.6-0.4-1.2-0.5-1.8-0.5c-0.9,0-1.5,0.3-1.9,0.8c-0.4,0.5-0.6,1.2-0.6,2.1
			c0,0.7,0.1,1.3,0.4,1.8c0.3,0.4,0.7,0.8,1.1,0.9c0.4,0.2,0.8,0.2,1.3,0.1c0.4-0.1,0.8-0.3,1-0.7v0.3c0,0.4-0.1,0.8-0.3,1
			c-0.2,0.2-0.4,0.4-0.6,0.4c-0.2,0.1-0.5,0-0.7-0.1c-0.2-0.1-0.4-0.3-0.5-0.4H482c0.3,1.2,1.1,1.8,2.3,1.8c0.7,0,1.3-0.2,1.8-0.5
			c0.6-0.3,0.8-1,0.8-2v-2.9C487,527.2,486.7,526.6,486.2,526.2z M485.6,529.1c-0.1,0.3-0.1,0.6-0.3,0.7c-0.3,0.4-0.7,0.5-1.2,0.4
			c-0.6-0.1-0.8-0.6-0.8-1.6c0-0.4,0.1-0.8,0.3-1.2c0.2-0.3,0.5-0.5,1-0.5c0.3,0,0.6,0.1,0.8,0.4c0.2,0.2,0.3,0.5,0.3,0.8
			C485.6,528.4,485.6,528.7,485.6,529.1z M483.4,524.5c-0.4,0-0.5,0.2-0.5,0.5v0.5h2.8v-1H483.4z M485.7,524.5h-1.3v1h1.7V525
			C486.1,524.7,486,524.5,485.7,524.5z"/>
		<path class="st0" d="M489.5,526c-0.1-0.1-0.3-0.2-0.5-0.2h-0.8v5.5h1.4v-4.8C489.8,526.3,489.7,526.1,489.5,526z"/>
	</g>
	<g>
		<g>
			<g>
				<g>
					<path class="st0" d="M871.8,448.9h-18.4c-11.3,0-20.5,9.2-20.5,20.5v18.4c0,11.3,9.2,20.5,20.5,20.5h18.4
						c11.3,0,20.5-9.2,20.5-20.5v-18.4C892.3,458.1,883.1,448.9,871.8,448.9z M889.6,487.8c0,9.8-8,17.9-17.9,17.9h-18.4
						c-9.8,0-17.8-8-17.8-17.9v-18.4c0-9.8,8-17.8,17.8-17.8h18.4c9.8,0,17.9,8,17.9,17.8V487.8z"/>
				</g>
			</g>
			<g>
				<g>
					<path class="st0" d="M862.6,456.6c-6.4,0-11.6,5.2-11.6,11.6c0,6.4,5.2,11.6,11.6,11.6c6.4,0,11.6-5.2,11.6-11.6
						C874.2,461.8,869,456.6,862.6,456.6z M862.6,477.1c-4.9,0-8.9-4-8.9-8.9c0-4.9,4-8.9,8.9-8.9c4.9,0,8.9,4,8.9,8.9
						C871.5,473.1,867.5,477.1,862.6,477.1z"/>
				</g>
			</g>
			<g>
				<g>
					<circle class="st0" cx="862.6" cy="468.9" r="1.8"/>
				</g>
			</g>
			<g>
				<g>
					<polygon class="st0" points="861.9,468.9 859.9,462.4 863.2,468.4 					"/>
				</g>
			</g>
		</g>
		<g>
			<rect x="834.2" y="484.8" class="st0" width="56.8" height="2.7"/>
		</g>
	</g>
	<g>
		<path class="st0" d="M826.9,523.7l4.3-4.3h-2.8l-4.2,4.4v-4.4h-1.1c-0.3,0-0.6,0.1-0.8,0.3c-0.2,0.2-0.3,0.5-0.3,0.8v9.6h2.2v-3.8
			c0-0.4,0.2-0.6,0.6-0.8c0.4-0.1,0.8,0.1,1.3,0.7l2.7,3.8h2.7L826.9,523.7z"/>
		<path class="st0" d="M834.8,519.7c-0.2-0.2-0.4-0.3-0.8-0.3h-1.1v1.7h2.2v-0.7C835.1,520.1,835,519.9,834.8,519.7z M834.8,522.1
			c-0.2-0.2-0.4-0.3-0.8-0.3h-1.1v8.3h2.2v-7.3C835.1,522.6,835,522.3,834.8,522.1z"/>
		<path class="st0" d="M838.3,519.7c-0.2-0.2-0.5-0.3-0.8-0.3h-1.1v10.8h2.2v-9.7C838.6,520.1,838.5,519.9,838.3,519.7z"/>
		<path class="st0" d="M846.8,523.5c-0.4-0.8-1-1.3-1.8-1.6c-0.7-0.3-1.5-0.3-2.3-0.2c-0.9,0.1-1.6,0.5-2.1,1.1
			c-0.3,0.4-0.6,0.8-0.7,1.4c-0.2,0.6-0.2,1.1-0.2,1.7c0,0.7,0.1,1.3,0.3,2c0.2,0.6,0.5,1.1,0.9,1.5c0.4,0.4,1,0.6,1.7,0.8
			c0.7,0.1,1.4,0.1,2.1-0.1c0.8-0.2,1.4-0.6,1.9-1.3c0.2-0.3,0.4-0.7,0.6-1.2c0.2-0.5,0.2-1.1,0.2-1.7
			C847.3,525,847.1,524.2,846.8,523.5z M844.8,527.7c-0.3,0.4-0.5,0.6-0.9,0.7c-0.3,0.1-0.6,0.1-1,0c-0.3-0.1-0.5-0.3-0.7-0.4
			c-0.3-0.4-0.5-1-0.5-2c0-1,0.2-1.7,0.6-2.1c0.1-0.2,0.4-0.3,0.7-0.4c0.3-0.1,0.6-0.1,0.9,0c0.3,0.1,0.6,0.3,0.8,0.7
			c0.2,0.4,0.4,0.9,0.4,1.7C845.1,526.8,845,527.4,844.8,527.7z"/>
		<path class="st0" d="M857.7,523.7l4.3-4.3h-2.8l-4.2,4.4v-4.4h-1.1c-0.3,0-0.6,0.1-0.8,0.3c-0.2,0.2-0.3,0.5-0.3,0.8v9.6h2.2v-3.8
			c0-0.4,0.2-0.6,0.6-0.8c0.4-0.1,0.8,0.1,1.3,0.7l2.7,3.8h2.7L857.7,523.7z"/>
		<path class="st0" d="M870.6,523.5c-0.4-0.8-1-1.3-1.8-1.6c-0.7-0.3-1.5-0.3-2.3-0.2c-0.8,0.1-1.5,0.5-2.1,1.1
			c-0.3,0.4-0.6,0.8-0.7,1.4c-0.2,0.6-0.2,1.1-0.2,1.7c0,0.7,0.1,1.3,0.3,2c0.2,0.6,0.5,1.1,0.9,1.5c0.4,0.4,1,0.6,1.7,0.8
			c0.7,0.1,1.4,0.1,2.1-0.1c0.8-0.2,1.4-0.6,1.9-1.3c0.2-0.3,0.4-0.7,0.6-1.2c0.1-0.5,0.2-1.1,0.2-1.7
			C871.1,525,870.9,524.2,870.6,523.5z M868.6,527.7c-0.3,0.4-0.5,0.6-0.9,0.7c-0.3,0.1-0.6,0.1-1,0c-0.3-0.1-0.5-0.3-0.6-0.4
			c-0.3-0.4-0.5-1-0.5-2c-0.1-1,0.1-1.7,0.6-2.1c0.1-0.2,0.4-0.3,0.7-0.4c0.3-0.1,0.6-0.1,0.9,0c0.3,0.1,0.6,0.3,0.8,0.7
			c0.2,0.4,0.4,0.9,0.4,1.7C869,526.8,868.8,527.4,868.6,527.7z"/>
		<path class="st0" d="M876.6,521.8c-0.6,0-1.1,0.1-1.7,0.2c-0.5,0.1-1,0.4-1.4,0.7c-0.4,0.3-0.7,0.8-1,1.3
			c-0.2,0.6-0.4,1.2-0.4,2.1v4h2.2v-4.3c0-0.6,0.1-1.1,0.4-1.4c0.3-0.3,0.7-0.4,1.3-0.4h0.7v-2.2H876.6z"/>
		<path class="st0" d="M884.1,521.8c-0.3,0-0.6,0.1-0.8,0.3s-0.3,0.5-0.3,0.8v4.3c0,0.5-0.1,0.9-0.4,1.1c-0.3,0.2-0.6,0.3-1,0.3
			c-0.4,0-0.7-0.1-1-0.3c-0.3-0.2-0.4-0.6-0.4-1.1v-5.3H878v4.9c0,1.4,0.4,2.4,1.1,2.8c0.7,0.5,1.6,0.7,2.4,0.8
			c0.9,0,1.8-0.2,2.5-0.7s1.2-1.4,1.2-2.9v-4.9H884.1z"/>
		<path class="st0" d="M897.6,522.3c-0.8-0.5-1.6-0.7-2.5-0.7c-0.5,0-0.9,0.1-1.3,0.2c-0.4,0.1-0.8,0.3-1.1,0.6
			c-0.4-0.3-0.8-0.5-1.3-0.6c-0.5-0.1-0.9-0.2-1.4-0.2c-0.9,0-1.7,0.3-2.4,0.8c-0.7,0.5-1.1,1.4-1.1,2.8v4.9h2.2v-5.3
			c0-0.5,0.1-0.9,0.4-1.1c0.3-0.2,0.6-0.3,1-0.3c0.4,0,0.7,0.1,1,0.3c0.3,0.2,0.5,0.6,0.5,1.1v5.3h2.2v-5.3c0-0.5,0.1-0.9,0.4-1.1
			c0.3-0.2,0.6-0.3,1-0.3c0.4,0,0.7,0.1,1,0.3c0.3,0.2,0.4,0.6,0.4,1.1v4.3c0,0.3,0.1,0.6,0.3,0.8c0.2,0.2,0.4,0.3,0.8,0.3h1.1v-4.9
			C898.7,523.8,898.3,522.8,897.6,522.3z"/>
		<path class="st0" d="M906,522.2c-0.6-0.4-1.5-0.6-2.6-0.6c-1,0-1.8,0.2-2.4,0.7c-0.5,0.4-0.8,0.9-0.9,1.6h2.1
			c0.1-0.2,0.3-0.4,0.5-0.5c0.2-0.1,0.5-0.1,0.8-0.1c0.3,0,0.6,0.1,0.9,0.1c0.3,0.1,0.5,0.3,0.5,0.6c0,0.4-0.5,0.7-1.4,0.8
			c-0.2,0-0.3,0-0.5,0.1c-0.1,0-0.3,0-0.4,0c-0.8,0.1-1.4,0.4-2,0.8c-0.5,0.4-0.8,1-0.8,1.9c0,0.9,0.3,1.6,0.8,2
			c0.6,0.4,1.2,0.6,2,0.6c0.4,0,0.8,0,1.3-0.1c0.5,0,1-0.2,1.4-0.4c0.4-0.2,0.8-0.5,1.1-1c0.3-0.5,0.5-1.1,0.5-2v-2.8
			C906.9,523.2,906.6,522.6,906,522.2z M904.9,526.7c0,0.6-0.2,1.1-0.5,1.4c-0.3,0.3-0.8,0.5-1.4,0.5c-0.4,0-0.6-0.1-0.8-0.3
			c-0.2-0.2-0.3-0.4-0.3-0.8c0-0.2,0.1-0.5,0.2-0.7c0.2-0.2,0.4-0.3,0.8-0.4l0.7-0.2c0.5-0.1,0.9-0.3,1.2-0.4V526.7z"/>
	</g>
	<g>
		<g>
			<path class="st0" d="M850.1,638c-36.8,0-66.8,30-66.8,66.8c0,36.8,30,66.8,66.8,66.8s66.8-30,66.8-66.8
				C916.9,668,887,638,850.1,638z M850.1,769.6c-35.7,0-64.8-29.1-64.8-64.8s29.1-64.8,64.8-64.8c35.7,0,64.8,29.1,64.8,64.8
				S885.9,769.6,850.1,769.6z"/>
		</g>
		<path class="st0" d="M868.4,697.8c-1.7-4.2-5.8-4.8-9.7-5.7c-6.6-1.5-5.1-7.9-5.1-7.9s4.2-0.2,8-1.4c2.4-0.7,4.7-1.8,5.7-3.5
			c0,0-6.1,2.9-6.9-16.6c-0.5-13.3-8.4-13.6-13.3-12.5c-4.9-1.1-12.8-0.8-13.3,12.5c-0.7,19.4-6.9,16.6-6.9,16.6
			c1,1.6,3.2,2.7,5.7,3.5c3.8,1.2,8,1.4,8,1.4s1.5,6.4-5.1,7.9c-2.8,0.7-6.2,1.1-8.3,3.3c-4.9,5.3-1.2,13.9,2.7,18.6
			c1.4,1.6,3,3,4.7,4.2c-0.2-0.9-0.3-1.8-0.3-2.7c0-6.3,4.6-11.5,10.6-12.5c-3.3-0.9-5.7-3.9-5.7-7.5c0-4.3,3.5-7.8,7.8-7.8
			c4.3,0,7.8,3.5,7.8,7.8c0,3.6-2.4,6.6-5.7,7.5c6,1,10.6,6.2,10.6,12.5c0,0.9-0.1,1.8-0.3,2.6c3.3-2.2,6.2-5.1,7.9-8.5
			C869.3,706.1,870,701.6,868.4,697.8z"/>
		<g>
			<path class="st0" d="M806.9,734.1v-7.2c0-0.2,0.1-0.4,0.2-0.6c0.2-0.2,0.4-0.2,0.6-0.2h5v1.4h-4.2v1.7h3.1v0.5
				c0,0.2-0.1,0.4-0.2,0.6c-0.2,0.2-0.4,0.2-0.6,0.2h-2.3v2h4.2v1.5H806.9z"/>
			<path class="st0" d="M819,734.1h-1.6v-3.6v-0.3c0-0.4-0.1-0.6-0.3-0.8c-0.2-0.2-0.5-0.3-0.8-0.3c-0.3,0-0.5,0.1-0.7,0.3
				c-0.2,0.2-0.3,0.4-0.3,0.8v4h-1.6v-3.6c0-1.1,0.3-1.8,0.8-2.1c0.6-0.4,1.2-0.6,1.8-0.6c0.4,0,0.7,0,1,0.1
				c0.3,0.1,0.7,0.2,0.9,0.5c0.2-0.2,0.5-0.3,0.8-0.4c0.3-0.1,0.6-0.1,1-0.2c0.7,0,1.3,0.2,1.9,0.5c0.6,0.4,0.9,1.1,0.9,2.2v3.6H822
				c-0.2,0-0.4-0.1-0.6-0.2c-0.1-0.1-0.2-0.3-0.2-0.6v-3.2c0-0.4-0.1-0.6-0.3-0.8c-0.2-0.2-0.5-0.3-0.8-0.3c-0.3,0-0.5,0.1-0.8,0.3
				c-0.2,0.2-0.3,0.4-0.3,0.8v0.3V734.1z"/>
			<path class="st0" d="M823.8,734.1v-1.2l3.3-3.7h-2.4c-0.2,0-0.4-0.1-0.6-0.2c-0.2-0.1-0.2-0.3-0.2-0.5v-0.5h5.1v1.3l-3.3,3.5h3.4
				v1.3H823.8z"/>
			<path class="st0" d="M830.1,726.1h0.8c0.2,0,0.4,0.1,0.6,0.2c0.2,0.2,0.2,0.3,0.2,0.6v0.5h-1.6V726.1z M830.1,727.9h0.8
				c0.2,0,0.4,0.1,0.6,0.2c0.2,0.2,0.2,0.3,0.2,0.6v5.4h-1.6V727.9z"/>
			<path class="st0" d="M834.3,727.9v2.3l2-2.3h2l-2.2,2.4l2.2,3.8h-2l-1.1-2.1c-0.2-0.4-0.4-0.6-0.6-0.5c-0.2,0.1-0.3,0.2-0.3,0.3
				v0.9v1.5h-1.6v-8h0.8c0.2,0,0.4,0.1,0.6,0.2c0.2,0.2,0.2,0.3,0.2,0.5V727.9z"/>
			<path class="st0" d="M839.2,726.1h0.8c0.2,0,0.4,0.1,0.6,0.2c0.2,0.1,0.2,0.3,0.2,0.5v7.2h-1.6V726.1z"/>
			<path class="st0" d="M841.7,726.1h0.8c0.2,0,0.4,0.1,0.6,0.2c0.2,0.2,0.2,0.3,0.2,0.6v0.5h-1.6V726.1z M841.7,727.9h0.8
				c0.2,0,0.4,0.1,0.6,0.2c0.2,0.2,0.2,0.3,0.2,0.6v5.4h-1.6V727.9z"/>
			<path class="st0" d="M845.9,727.9v2.3l2-2.3h2l-2.2,2.4l2.2,3.8h-2l-1.1-2.1c-0.2-0.4-0.4-0.6-0.6-0.5c-0.2,0.1-0.3,0.2-0.3,0.3
				v0.9v1.5h-1.6v-8h0.8c0.2,0,0.4,0.1,0.6,0.2c0.2,0.2,0.2,0.3,0.2,0.5V727.9z"/>
			<path class="st0" d="M854,734.1v-7.2c0-0.2,0.1-0.4,0.2-0.6c0.2-0.2,0.4-0.2,0.6-0.2h2.3c1.2,0,2.1,0.3,2.7,1
				c0.6,0.7,0.9,1.7,0.9,3c0,0.7-0.1,1.4-0.3,1.9c-0.2,0.6-0.6,1-1,1.3c-0.3,0.3-0.7,0.5-1.1,0.6c-0.4,0.1-0.9,0.2-1.7,0.2H854z
				 M855.6,732.7h1.3c0.8,0,1.3-0.2,1.7-0.6c0.3-0.4,0.5-1,0.5-2c0-0.9-0.2-1.6-0.5-2c-0.3-0.4-0.8-0.6-1.5-0.6h-1.5V732.7z"/>
			<path class="st0" d="M862.5,733.5c-0.3-0.3-0.6-0.7-0.7-1.1c-0.1-0.5-0.2-1-0.2-1.5c0-0.4,0.1-0.8,0.2-1.3c0.1-0.4,0.3-0.8,0.5-1
				c0.4-0.5,0.9-0.7,1.6-0.8c0.6-0.1,1.2,0,1.7,0.2c0.6,0.2,1,0.6,1.3,1.2c0.3,0.5,0.4,1.1,0.4,1.8c0,0.5-0.1,0.9-0.2,1.3
				c-0.1,0.4-0.2,0.7-0.4,0.9c-0.4,0.5-0.9,0.8-1.4,0.9c-0.5,0.1-1,0.2-1.5,0C863.2,734,862.8,733.8,862.5,733.5z M863.9,726.7v0.7
				h-1v-1h0.7C863.8,726.3,863.9,726.4,863.9,726.7z M863.6,729.4c-0.3,0.4-0.5,0.9-0.4,1.6c0,0.7,0.2,1.2,0.4,1.5
				c0.1,0.1,0.3,0.2,0.5,0.3c0.2,0.1,0.5,0.1,0.7,0c0.2-0.1,0.5-0.2,0.6-0.5c0.2-0.3,0.3-0.7,0.3-1.3c0-0.6-0.1-1-0.3-1.3
				c-0.2-0.3-0.4-0.5-0.6-0.5c-0.2-0.1-0.5-0.1-0.7,0C863.9,729.2,863.7,729.3,863.6,729.4z M866,726.7v0.7h-1v-1h0.7
				C865.9,726.3,866,726.4,866,726.7z"/>
			<path class="st0" d="M873.5,734.1h-0.8c-0.2,0-0.4-0.1-0.6-0.2c-0.1-0.1-0.2-0.3-0.2-0.6v-3.2c0-0.4-0.1-0.6-0.3-0.8
				c-0.2-0.2-0.5-0.3-0.8-0.3c-0.3,0-0.5,0.1-0.7,0.3c-0.2,0.2-0.3,0.4-0.3,0.8v4h-1.6v-3.6c0-1.1,0.3-1.8,0.8-2.1
				c0.6-0.4,1.2-0.6,1.8-0.6c0.7,0,1.3,0.2,1.9,0.5c0.6,0.4,0.9,1.1,0.9,2.2V734.1z"/>
			<path class="st0" d="M879,732.2h1.2c-0.2,0.7-0.5,1.1-1,1.5c-0.5,0.4-1.1,0.5-1.8,0.5c-0.9,0-1.6-0.3-2.1-0.9
				c-0.5-0.6-0.7-1.4-0.7-2.4c0-1,0.2-1.8,0.7-2.3c0.5-0.6,1.2-0.9,2.1-0.9c0.9,0,1.7,0.3,2.2,0.8c0.5,0.6,0.7,1.4,0.7,2.4
				c0,0.1,0,0.1,0,0.2c0,0,0,0.1,0,0.1c0,0.1,0,0.1,0,0.2h-4c0,0.5,0.1,0.8,0.3,1.1c0.2,0.2,0.5,0.4,0.9,0.4c0.3,0,0.5-0.1,0.7-0.2
				c0,0,0.1,0,0.1-0.1c0,0,0.1-0.1,0.1-0.1c0,0,0.1-0.1,0.2-0.2C878.7,732.2,878.9,732.2,879,732.2z M876.3,730.4h2.4
				c0-0.4-0.1-0.7-0.3-0.9c-0.2-0.2-0.5-0.3-0.9-0.3c-0.3,0-0.6,0.1-0.8,0.3C876.4,729.7,876.3,730,876.3,730.4z"/>
			<path class="st0" d="M886.6,734.1h-1.6v-3.6v-0.3c0-0.4-0.1-0.6-0.3-0.8c-0.2-0.2-0.5-0.3-0.8-0.3s-0.5,0.1-0.7,0.3
				c-0.2,0.2-0.3,0.4-0.3,0.8v4h-1.6v-3.6c0-1.1,0.3-1.8,0.8-2.1c0.6-0.4,1.2-0.6,1.8-0.6c0.4,0,0.7,0,1,0.1
				c0.3,0.1,0.7,0.2,0.9,0.5c0.2-0.2,0.5-0.3,0.8-0.4c0.3-0.1,0.6-0.1,1-0.2c0.7,0,1.3,0.2,1.9,0.5c0.6,0.4,0.9,1.1,0.9,2.2v3.6
				h-0.8c-0.2,0-0.4-0.1-0.6-0.2c-0.1-0.1-0.2-0.3-0.2-0.6v-3.2c0-0.4-0.1-0.6-0.3-0.8c-0.2-0.2-0.5-0.3-0.8-0.3s-0.5,0.1-0.8,0.3
				c-0.2,0.2-0.3,0.4-0.3,0.8v0.3V734.1z"/>
			<path class="st0" d="M891.4,726.1h0.8c0.2,0,0.4,0.1,0.6,0.2c0.2,0.2,0.2,0.3,0.2,0.6v0.5h-1.6V726.1z M891.4,727.9h0.8
				c0.2,0,0.4,0.1,0.6,0.2c0.2,0.2,0.2,0.3,0.2,0.6v5.4h-1.6V727.9z"/>
			<path class="st0" d="M836.9,748.4v-7.2c0-0.2,0.1-0.4,0.2-0.6s0.4-0.2,0.6-0.2h2.3c1.2,0,2.1,0.3,2.7,1c0.6,0.7,0.9,1.7,0.9,3
				c0,0.7-0.1,1.4-0.3,1.9c-0.2,0.6-0.6,1-1,1.3c-0.3,0.3-0.7,0.5-1.1,0.6c-0.4,0.1-0.9,0.2-1.7,0.2H836.9z M838.5,747h1.3
				c0.8,0,1.3-0.2,1.7-0.6c0.3-0.4,0.5-1,0.5-2c0-0.9-0.2-1.6-0.5-2c-0.3-0.4-0.8-0.6-1.5-0.6h-1.5V747z"/>
			<path class="st0" d="M844.7,740.4h0.8c0.2,0,0.4,0.1,0.6,0.2c0.2,0.2,0.2,0.3,0.2,0.6v0.5h-1.6V740.4z M844.7,742.2h0.8
				c0.2,0,0.4,0.1,0.6,0.2c0.2,0.2,0.2,0.3,0.2,0.6v5.4h-1.6V742.2z"/>
			<path class="st0" d="M848.1,750.6v-1.3h0.4c0.3,0,0.6-0.1,0.7-0.2c0.2-0.1,0.2-0.4,0.1-0.7l-2.2-6.2h1.8l1.3,4.4l1.1-3.8
				c0.1-0.4,0.3-0.6,0.7-0.6h1.1l-2.4,7.1c-0.2,0.5-0.4,0.9-0.7,1.1c-0.3,0.2-0.7,0.3-1.4,0.3c0,0-0.1,0-0.2,0c-0.1,0-0.1,0-0.2,0
				c0,0-0.1,0-0.2,0C848.2,750.6,848.1,750.6,848.1,750.6z"/>
			<path class="st0" d="M858.4,746.5h1.2c-0.2,0.7-0.5,1.1-1,1.5c-0.5,0.4-1.1,0.5-1.8,0.5c-0.9,0-1.6-0.3-2.1-0.9
				c-0.5-0.6-0.7-1.4-0.7-2.4c0-1,0.2-1.8,0.7-2.3c0.5-0.6,1.2-0.9,2.1-0.9c0.9,0,1.7,0.3,2.2,0.8c0.5,0.6,0.7,1.4,0.7,2.4
				c0,0.1,0,0.1,0,0.2c0,0,0,0.1,0,0.1c0,0.1,0,0.1,0,0.2h-4c0,0.5,0.1,0.8,0.3,1.1c0.2,0.2,0.5,0.4,0.9,0.4c0.3,0,0.5-0.1,0.7-0.2
				c0,0,0.1,0,0.1-0.1c0,0,0.1-0.1,0.1-0.1c0,0,0.1-0.1,0.2-0.2C858.1,746.5,858.2,746.5,858.4,746.5z M855.6,744.7h2.4
				c0-0.4-0.1-0.7-0.3-0.9c-0.2-0.2-0.5-0.3-0.9-0.3c-0.3,0-0.6,0.1-0.8,0.3C855.7,744,855.6,744.3,855.6,744.7z"/>
			<path class="st0" d="M863.2,748.4c-0.5,0-1.1,0-1.7,0c-0.6,0-0.9-0.4-0.9-1.1v-6.8h0.8c0.2,0,0.4,0.1,0.5,0.2
				c0.2,0.2,0.2,0.3,0.2,0.6v1h1v0.3c0,0.2-0.1,0.4-0.2,0.6c-0.2,0.1-0.3,0.2-0.6,0.2h-0.2v3.4c0,0.3,0.2,0.4,0.5,0.4h0.5V748.4z"/>
		</g>
	</g>
	<g>
		<path class="st0" d="M469.2,700.7c-1.1-2.6-4.8-5.1-6-7.6c0,0,0,0,0-0.1c1.4-1.3,2.3-3.2,2.2-4.9c0-1.5-0.7-3.1-2.1-4.6
			c-5.1-5.5-22.7-9.8-22.7,2.5c0,0.6,0,1.3,0,1.9c0.3,0.2,0.5,0.5,0.8,0.7c3.3,2.7,8,4.8,13.2,5.9c1.2,0.3,2.2,1.3,2.2,2.6
			c-0.1,1.4-1.2,2.4-2.5,2.4c-0.2,0-0.3,0-0.5,0c-4.9-1-9.4-2.8-13.1-5.2c0,0-0.1,0-0.1,0c0.1,3.6,0.2,7.2,0.3,10.8
			c0.2,6.2,5.3,11.2,11.5,11.2c0.1,0,0.1,0,0.1,0c4.9,0,12.9-2.1,15.9-6.4C470.9,706.8,470.5,703.7,469.2,700.7z"/>
		
			<ellipse transform="matrix(0.9871 -0.1602 0.1602 0.9871 -100.8311 80.5951)" class="st0" cx="449.5" cy="665.7" rx="9.8" ry="9.8"/>
		<path class="st0" d="M438.7,669.6c-1.4-6.6-1.2-10.5,2.5-10.3c0,0-5.1-6-8.4,1.9c-3.4,7.8,2.8,13.2-6.5,13.8c0.5,0,1.6,2.6,2,3
			c2.1,2,5.6,1.9,7.9,0.4C439.4,676.4,439.4,672.8,438.7,669.6z"/>
	</g>
	<g>
		<path class="st0" d="M412.3,731.7v-6.6c0-0.2,0.1-0.4,0.2-0.5s0.3-0.2,0.5-0.2h0.8v2.8h3.1v-2.8h1.5v7.4h-1.5v-3.3h-3.1v3.3H412.3
			z"/>
		<path class="st0" d="M423,731.5c-0.3,0.2-0.6,0.3-1,0.3c-0.3,0-0.6,0.1-0.9,0.1c-0.5,0-1-0.1-1.4-0.4s-0.6-0.7-0.6-1.4
			c0-0.6,0.2-1,0.5-1.3c0.4-0.3,0.8-0.4,1.3-0.5c0.1,0,0.2,0,0.3,0c0.1,0,0.2,0,0.3-0.1c0.6-0.1,0.9-0.3,0.9-0.6
			c0-0.2-0.1-0.4-0.3-0.4c-0.2-0.1-0.4-0.1-0.6-0.1c-0.2,0-0.4,0-0.5,0.1c-0.2,0.1-0.3,0.2-0.3,0.3h-1.4c0.1-0.4,0.3-0.8,0.6-1.1
			c0.4-0.3,0.9-0.5,1.7-0.5c0.8,0,1.4,0.1,1.8,0.4c0.4,0.3,0.6,0.7,0.6,1.2v2c0,0.6-0.1,1-0.3,1.3
			C423.5,731.1,423.3,731.3,423,731.5z M422.6,728.8c-0.2,0.1-0.5,0.2-0.8,0.3l-0.5,0.1c-0.3,0.1-0.4,0.2-0.6,0.3
			c-0.1,0.2-0.2,0.3-0.2,0.5c0,0.2,0.1,0.4,0.2,0.5c0.1,0.1,0.3,0.2,0.6,0.2c0.4,0,0.7-0.1,0.9-0.3c0.2-0.2,0.3-0.5,0.3-0.9V728.8z"
			/>
		<path class="st0" d="M429.8,731.7h-1.5v-3.4V728c0-0.3-0.1-0.6-0.3-0.8c-0.2-0.2-0.4-0.2-0.7-0.2s-0.5,0.1-0.7,0.2
			c-0.2,0.2-0.3,0.4-0.3,0.8v3.7h-1.5v-3.4c0-1,0.3-1.6,0.8-2c0.5-0.3,1.1-0.5,1.7-0.5c0.3,0,0.7,0,1,0.1c0.3,0.1,0.6,0.2,0.9,0.4
			c0.2-0.2,0.5-0.3,0.8-0.4c0.3-0.1,0.6-0.1,0.9-0.1c0.6,0,1.2,0.2,1.7,0.5c0.5,0.3,0.8,1,0.8,2v3.4h-0.8c-0.2,0-0.4-0.1-0.5-0.2
			c-0.1-0.1-0.2-0.3-0.2-0.5V728c0-0.3-0.1-0.6-0.3-0.8c-0.2-0.2-0.4-0.2-0.7-0.2s-0.5,0.1-0.7,0.2c-0.2,0.2-0.3,0.4-0.3,0.8v0.3
			V731.7z"/>
		<path class="st0" d="M434.3,724.3h0.8c0.2,0,0.4,0.1,0.5,0.2c0.1,0.1,0.2,0.3,0.2,0.5v0.5h-1.5V724.3z M434.3,726h0.8
			c0.2,0,0.4,0.1,0.5,0.2c0.1,0.1,0.2,0.3,0.2,0.5v5h-1.5V726z"/>
		<path class="st0" d="M436.7,724.3h0.8c0.2,0,0.4,0.1,0.5,0.2c0.1,0.1,0.2,0.3,0.2,0.5v6.7h-1.5V724.3z"/>
		<path class="st0" d="M443,729.9h1.1c-0.2,0.6-0.5,1.1-0.9,1.4c-0.4,0.3-1,0.5-1.7,0.5c-0.8,0-1.5-0.3-1.9-0.8
			c-0.5-0.5-0.7-1.3-0.7-2.2c0-0.9,0.2-1.6,0.7-2.1c0.5-0.5,1.1-0.8,1.9-0.8c0.9,0,1.5,0.3,2,0.8c0.5,0.5,0.7,1.3,0.7,2.2
			c0,0.1,0,0.1,0,0.2s0,0.1,0,0.1c0,0.1,0,0.1,0,0.2h-3.7c0,0.4,0.1,0.8,0.3,1c0.2,0.2,0.5,0.3,0.8,0.3c0.2,0,0.5,0,0.6-0.2
			c0,0,0.1,0,0.1-0.1c0,0,0.1-0.1,0.1-0.1c0,0,0.1-0.1,0.2-0.2C442.7,730,442.8,729.9,443,729.9z M440.4,728.3h2.2
			c0-0.4-0.1-0.7-0.3-0.9c-0.2-0.2-0.5-0.3-0.8-0.3c-0.3,0-0.6,0.1-0.8,0.3C440.5,727.6,440.4,727.9,440.4,728.3z"/>
		<path class="st0" d="M445,724.3h0.8c0.2,0,0.4,0.1,0.5,0.2c0.1,0.1,0.2,0.3,0.2,0.5v6.7H445V724.3z"/>
		<path class="st0" d="M447.3,724.3h0.8c0.2,0,0.4,0.1,0.5,0.2c0.1,0.1,0.2,0.3,0.2,0.5v0.5h-1.5V724.3z M447.3,726h0.8
			c0.2,0,0.4,0.1,0.5,0.2c0.1,0.1,0.2,0.3,0.2,0.5v5h-1.5V726z"/>
		<path class="st0" d="M451.2,726v2.1l1.8-2.1h1.8l-2,2.2l2.1,3.5H453l-1.1-1.9c-0.2-0.4-0.4-0.6-0.6-0.5c-0.2,0.1-0.2,0.1-0.2,0.3
			v0.8v1.4h-1.5v-7.4h0.8c0.2,0,0.4,0.1,0.5,0.2c0.1,0.1,0.2,0.3,0.2,0.5V726z"/>
		<path class="st0" d="M458.7,731.7v-6.6c0-0.2,0.1-0.4,0.2-0.5s0.3-0.2,0.5-0.2h2.1c1.1,0,2,0.3,2.5,0.9c0.6,0.6,0.8,1.6,0.8,2.8
			c0,0.7-0.1,1.3-0.3,1.8c-0.2,0.5-0.5,1-0.9,1.2c-0.3,0.2-0.7,0.4-1,0.5c-0.3,0.1-0.9,0.2-1.6,0.2H458.7z M460.2,730.4h1.2
			c0.7,0,1.2-0.2,1.5-0.6c0.3-0.3,0.5-0.9,0.5-1.8c0-0.8-0.2-1.4-0.5-1.8c-0.3-0.4-0.7-0.6-1.4-0.6h-1.4V730.4z"/>
		<path class="st0" d="M466.5,731.2c-0.3-0.3-0.5-0.6-0.6-1c-0.1-0.4-0.2-0.9-0.2-1.4c0-0.4,0.1-0.8,0.2-1.2s0.3-0.7,0.5-1
			c0.4-0.4,0.9-0.7,1.4-0.8c0.6-0.1,1.1,0,1.6,0.1c0.5,0.2,0.9,0.6,1.2,1.1c0.2,0.5,0.4,1,0.4,1.7c0,0.5-0.1,0.9-0.2,1.2
			c-0.1,0.3-0.2,0.6-0.4,0.9c-0.4,0.5-0.8,0.8-1.3,0.9c-0.5,0.1-0.9,0.1-1.4,0C467.2,731.6,466.8,731.4,466.5,731.2z M467.8,724.9
			v0.6h-1v-1h0.6C467.7,724.5,467.8,724.6,467.8,724.9z M467.5,727.4c-0.3,0.3-0.4,0.8-0.4,1.5c0,0.7,0.2,1.1,0.4,1.4
			c0.1,0.1,0.2,0.2,0.5,0.3c0.2,0.1,0.4,0.1,0.7,0c0.2-0.1,0.4-0.2,0.6-0.5s0.3-0.7,0.3-1.2c0-0.5-0.1-0.9-0.2-1.2
			c-0.2-0.3-0.4-0.4-0.6-0.5c-0.2-0.1-0.4-0.1-0.6,0S467.6,727.3,467.5,727.4z M469.8,724.9v0.6h-1v-1h0.6
			C469.6,724.5,469.8,724.6,469.8,724.9z"/>
		<path class="st0" d="M476.7,731.7H476c-0.2,0-0.4-0.1-0.5-0.2c-0.1-0.1-0.2-0.3-0.2-0.5V728c0-0.3-0.1-0.6-0.3-0.8
			c-0.2-0.2-0.4-0.2-0.7-0.2s-0.5,0.1-0.7,0.2c-0.2,0.2-0.3,0.4-0.3,0.8v3.7h-1.5v-3.4c0-1,0.3-1.6,0.8-2c0.5-0.3,1.1-0.5,1.7-0.5
			c0.6,0,1.2,0.2,1.7,0.5c0.5,0.3,0.8,1,0.8,2V731.7z"/>
		<path class="st0" d="M481.8,729.9h1.1c-0.2,0.6-0.5,1.1-0.9,1.4c-0.4,0.3-1,0.5-1.7,0.5c-0.8,0-1.5-0.3-1.9-0.8
			c-0.5-0.5-0.7-1.3-0.7-2.2c0-0.9,0.2-1.6,0.7-2.1c0.5-0.5,1.1-0.8,1.9-0.8c0.9,0,1.5,0.3,2,0.8c0.5,0.5,0.7,1.3,0.7,2.2
			c0,0.1,0,0.1,0,0.2s0,0.1,0,0.1c0,0.1,0,0.1,0,0.2h-3.7c0,0.4,0.1,0.8,0.3,1c0.2,0.2,0.5,0.3,0.8,0.3c0.2,0,0.5,0,0.6-0.2
			c0,0,0.1,0,0.1-0.1c0,0,0.1-0.1,0.1-0.1c0,0,0.1-0.1,0.2-0.2C481.5,730,481.6,729.9,481.8,729.9z M479.2,728.3h2.2
			c0-0.4-0.1-0.7-0.3-0.9c-0.2-0.2-0.5-0.3-0.8-0.3c-0.3,0-0.6,0.1-0.8,0.3C479.3,727.6,479.2,727.9,479.2,728.3z"/>
		<path class="st0" d="M488.7,731.7h-1.5v-3.4V728c0-0.3-0.1-0.6-0.3-0.8c-0.2-0.2-0.4-0.2-0.7-0.2s-0.5,0.1-0.7,0.2
			c-0.2,0.2-0.3,0.4-0.3,0.8v3.7h-1.5v-3.4c0-1,0.3-1.6,0.8-2c0.5-0.3,1.1-0.5,1.7-0.5c0.3,0,0.7,0,1,0.1c0.3,0.1,0.6,0.2,0.9,0.4
			c0.2-0.2,0.5-0.3,0.8-0.4c0.3-0.1,0.6-0.1,0.9-0.1c0.6,0,1.2,0.2,1.7,0.5c0.5,0.3,0.8,1,0.8,2v3.4h-0.8c-0.2,0-0.4-0.1-0.5-0.2
			c-0.1-0.1-0.2-0.3-0.2-0.5V728c0-0.3-0.1-0.6-0.3-0.8c-0.2-0.2-0.4-0.2-0.7-0.2s-0.5,0.1-0.7,0.2c-0.2,0.2-0.3,0.4-0.3,0.8v0.3
			V731.7z"/>
		<path class="st0" d="M493.2,724.3h0.8c0.2,0,0.4,0.1,0.5,0.2c0.1,0.1,0.2,0.3,0.2,0.5v0.5h-1.5V724.3z M493.2,726h0.8
			c0.2,0,0.4,0.1,0.5,0.2c0.1,0.1,0.2,0.3,0.2,0.5v5h-1.5V726z"/>
		<path class="st0" d="M421.6,741.3v-4.8c0-0.2,0.1-0.3,0.2-0.4s0.2-0.2,0.4-0.2h1.5c0.8,0,1.4,0.2,1.8,0.7c0.4,0.5,0.6,1.1,0.6,2
			c0,0.5-0.1,0.9-0.2,1.3c-0.2,0.4-0.4,0.7-0.7,0.9c-0.2,0.2-0.5,0.3-0.7,0.4c-0.3,0.1-0.6,0.1-1.1,0.1H421.6z M422.7,740.3h0.9
			c0.5,0,0.9-0.1,1.1-0.4c0.2-0.3,0.3-0.7,0.3-1.3c0-0.6-0.1-1-0.3-1.3c-0.2-0.3-0.5-0.4-1-0.4h-1V740.3z"/>
		<path class="st0" d="M426.8,735.9h0.6c0.1,0,0.3,0.1,0.4,0.2c0.1,0.1,0.2,0.2,0.2,0.4v0.3h-1.1V735.9z M426.8,737.1h0.6
			c0.1,0,0.3,0.1,0.4,0.2c0.1,0.1,0.2,0.2,0.2,0.4v3.6h-1.1V737.1z"/>
		<path class="st0" d="M429.1,742.8v-0.9h0.3c0.2,0,0.4,0,0.5-0.1c0.1-0.1,0.1-0.3,0.1-0.5l-1.5-4.1h1.2l0.8,2.9l0.7-2.6
			c0.1-0.3,0.2-0.4,0.5-0.4h0.8l-1.6,4.7c-0.1,0.3-0.3,0.6-0.5,0.7c-0.2,0.1-0.5,0.2-0.9,0.2c0,0-0.1,0-0.1,0c0,0-0.1,0-0.1,0
			c0,0-0.1,0-0.1,0C429.2,742.8,429.1,742.8,429.1,742.8z"/>
		<path class="st0" d="M436,740h0.8c-0.1,0.4-0.3,0.8-0.7,1c-0.3,0.2-0.7,0.4-1.2,0.4c-0.6,0-1.1-0.2-1.4-0.6
			c-0.3-0.4-0.5-0.9-0.5-1.6c0-0.7,0.2-1.2,0.5-1.6c0.3-0.4,0.8-0.6,1.4-0.6c0.6,0,1.1,0.2,1.5,0.6c0.3,0.4,0.5,0.9,0.5,1.6
			c0,0,0,0.1,0,0.1s0,0.1,0,0.1c0,0.1,0,0.1,0,0.1h-2.7c0,0.3,0.1,0.6,0.2,0.7c0.1,0.2,0.3,0.3,0.6,0.3c0.2,0,0.3,0,0.5-0.1
			c0,0,0.1,0,0.1-0.1c0,0,0.1-0.1,0.1-0.1c0,0,0-0.1,0.1-0.1C435.8,740,435.9,740,436,740z M434.2,738.8h1.6c0-0.3-0.1-0.5-0.2-0.6
			c-0.1-0.1-0.3-0.2-0.6-0.2c-0.2,0-0.4,0.1-0.6,0.2C434.2,738.3,434.2,738.5,434.2,738.8z"/>
		<path class="st0" d="M439.3,741.3c-0.3,0-0.7,0-1.1,0c-0.4,0-0.6-0.3-0.6-0.8v-4.6h0.6c0.1,0,0.3,0.1,0.4,0.2
			c0.1,0.1,0.2,0.2,0.2,0.4v0.7h0.6v0.2c0,0.2-0.1,0.3-0.2,0.4c-0.1,0.1-0.2,0.1-0.4,0.1h-0.1v2.3c0,0.2,0.1,0.3,0.3,0.3h0.3V741.3z
			"/>
		<path class="st0" d="M442,741.3v-4.8c0-0.2,0.1-0.3,0.2-0.4s0.2-0.2,0.4-0.2h1.5c0.8,0,1.4,0.2,1.8,0.7c0.4,0.5,0.6,1.1,0.6,2
			c0,0.5-0.1,0.9-0.2,1.3c-0.2,0.4-0.4,0.7-0.7,0.9c-0.2,0.2-0.5,0.3-0.7,0.4c-0.3,0.1-0.6,0.1-1.1,0.1H442z M443.1,740.3h0.9
			c0.5,0,0.9-0.1,1.1-0.4c0.2-0.3,0.3-0.7,0.3-1.3c0-0.6-0.1-1-0.3-1.3c-0.2-0.3-0.5-0.4-1-0.4h-1V740.3z"/>
		<path class="st0" d="M449.8,741.1c-0.2,0.1-0.5,0.2-0.7,0.2c-0.2,0-0.5,0-0.6,0c-0.4,0-0.7-0.1-1-0.3s-0.4-0.5-0.4-1
			c0-0.4,0.1-0.8,0.4-0.9c0.3-0.2,0.6-0.3,1-0.4c0.1,0,0.1,0,0.2,0c0.1,0,0.2,0,0.3,0c0.5-0.1,0.7-0.2,0.7-0.4
			c0-0.2-0.1-0.3-0.2-0.3c-0.2,0-0.3-0.1-0.4-0.1c-0.1,0-0.3,0-0.4,0.1c-0.1,0-0.2,0.1-0.3,0.2h-1c0-0.3,0.2-0.6,0.4-0.8
			c0.3-0.2,0.7-0.4,1.2-0.4c0.6,0,1,0.1,1.3,0.3c0.3,0.2,0.5,0.5,0.5,0.9v1.4c0,0.4-0.1,0.7-0.2,1C450.2,740.8,450,741,449.8,741.1z
			 M449.6,739.2c-0.1,0.1-0.3,0.1-0.6,0.2l-0.4,0.1c-0.2,0.1-0.3,0.1-0.4,0.2c-0.1,0.1-0.1,0.2-0.1,0.3c0,0.2,0,0.3,0.1,0.4
			c0.1,0.1,0.2,0.1,0.4,0.1c0.3,0,0.5-0.1,0.7-0.3c0.2-0.2,0.3-0.4,0.3-0.7V739.2z"/>
		<path class="st0" d="M454.8,741.3h-0.5c-0.2,0-0.3,0-0.4-0.1c-0.1-0.1-0.1-0.2-0.1-0.4v-2.1c0-0.3-0.1-0.4-0.2-0.5
			c-0.2-0.1-0.3-0.2-0.5-0.2s-0.4,0.1-0.5,0.2c-0.1,0.1-0.2,0.3-0.2,0.5v2.7h-1.1v-2.4c0-0.7,0.2-1.2,0.6-1.4
			c0.4-0.2,0.8-0.4,1.2-0.4c0.5,0,0.9,0.1,1.3,0.4c0.4,0.2,0.6,0.7,0.6,1.5V741.3z"/>
		<path class="st0" d="M455.6,737.1h0.6c0.1,0,0.3,0.1,0.4,0.2c0.1,0.1,0.2,0.2,0.2,0.4v3.6h-1.1V737.1z"/>
		<path class="st0" d="M457.2,739.9h1.1c0,0.2,0.1,0.4,0.2,0.5c0.2,0.1,0.4,0.2,0.6,0.2c0.2,0,0.3,0,0.5-0.1
			c0.1-0.1,0.2-0.2,0.2-0.3c0-0.2-0.2-0.3-0.7-0.4c-0.2,0-0.3-0.1-0.4-0.1c-0.6-0.1-0.9-0.3-1.1-0.5c-0.2-0.2-0.3-0.4-0.3-0.8
			c0-0.4,0.2-0.7,0.5-1c0.3-0.2,0.7-0.4,1.2-0.4c0.5,0,1,0.1,1.3,0.4c0.3,0.3,0.5,0.6,0.5,1H460c-0.2,0-0.3-0.1-0.5-0.3
			c0,0-0.1-0.1-0.1-0.1c-0.1-0.1-0.3-0.1-0.5-0.1c-0.2,0-0.4,0-0.5,0.1c-0.1,0.1-0.1,0.2-0.1,0.3c0,0.2,0.3,0.3,0.8,0.4
			c0.1,0,0.1,0,0.2,0c0,0,0.1,0,0.1,0c0.5,0.1,0.9,0.3,1.1,0.5c0.2,0.2,0.3,0.4,0.3,0.8c0,0.5-0.2,0.8-0.5,1.1
			c-0.3,0.2-0.8,0.3-1.4,0.3c-0.6,0-1-0.1-1.3-0.4C457.3,740.8,457.2,740.4,457.2,739.9L457.2,739.9z M459,741.7h0.5v0.5
			c0,0.1-0.1,0.3-0.2,0.4c-0.2,0.1-0.4,0.2-0.7,0.2v-0.1c0-0.1,0.1-0.1,0.2-0.1c0.1,0,0.1,0,0.1-0.1c0.1-0.1,0.1-0.1,0.1-0.2
			c0,0,0-0.1-0.1-0.1h-0.3v-0.3C458.6,741.7,458.7,741.7,459,741.7z"/>
		<path class="st0" d="M465,741.3H464v-2.4v-0.2c0-0.3-0.1-0.4-0.2-0.5c-0.2-0.1-0.3-0.2-0.5-0.2s-0.4,0.1-0.5,0.2
			c-0.1,0.1-0.2,0.3-0.2,0.5v2.7h-1.1v-2.4c0-0.7,0.2-1.2,0.6-1.4c0.4-0.2,0.8-0.4,1.2-0.4c0.2,0,0.5,0,0.7,0.1
			c0.2,0.1,0.4,0.2,0.6,0.3c0.2-0.1,0.3-0.2,0.6-0.3c0.2-0.1,0.4-0.1,0.7-0.1c0.5,0,0.9,0.1,1.3,0.4c0.4,0.2,0.6,0.7,0.6,1.5v2.4
			H467c-0.2,0-0.3,0-0.4-0.1c-0.1-0.1-0.1-0.2-0.1-0.4v-2.1c0-0.3-0.1-0.4-0.2-0.5c-0.2-0.1-0.3-0.2-0.5-0.2s-0.4,0.1-0.5,0.2
			c-0.2,0.1-0.2,0.3-0.2,0.5v0.2V741.3z"/>
		<path class="st0" d="M470.9,741.1c-0.2,0.1-0.5,0.2-0.7,0.2c-0.2,0-0.5,0-0.6,0c-0.4,0-0.7-0.1-1-0.3s-0.4-0.5-0.4-1
			c0-0.4,0.1-0.8,0.4-0.9c0.3-0.2,0.6-0.3,1-0.4c0.1,0,0.1,0,0.2,0c0.1,0,0.2,0,0.3,0c0.5-0.1,0.7-0.2,0.7-0.4
			c0-0.2-0.1-0.3-0.2-0.3c-0.2,0-0.3-0.1-0.4-0.1c-0.1,0-0.3,0-0.4,0.1c-0.1,0-0.2,0.1-0.3,0.2h-1c0-0.3,0.2-0.6,0.4-0.8
			c0.3-0.2,0.7-0.4,1.2-0.4c0.6,0,1,0.1,1.3,0.3c0.3,0.2,0.5,0.5,0.5,0.9v1.4c0,0.4-0.1,0.7-0.2,1
			C471.3,740.8,471.1,741,470.9,741.1z M470.7,739.2c-0.1,0.1-0.3,0.1-0.6,0.2l-0.4,0.1c-0.2,0.1-0.3,0.1-0.4,0.2
			c-0.1,0.1-0.1,0.2-0.1,0.3c0,0.2,0,0.3,0.1,0.4c0.1,0.1,0.2,0.1,0.4,0.1c0.3,0,0.5-0.1,0.7-0.3c0.2-0.2,0.3-0.4,0.3-0.7V739.2z"/>
		<path class="st0" d="M475.9,741.3h-0.5c-0.2,0-0.3,0-0.4-0.1c-0.1-0.1-0.1-0.2-0.1-0.4v-2.1c0-0.3-0.1-0.4-0.2-0.5
			c-0.2-0.1-0.3-0.2-0.5-0.2s-0.4,0.1-0.5,0.2c-0.1,0.1-0.2,0.3-0.2,0.5v2.7h-1.1v-2.4c0-0.7,0.2-1.2,0.6-1.4
			c0.4-0.2,0.8-0.4,1.2-0.4c0.5,0,0.9,0.1,1.3,0.4c0.4,0.2,0.6,0.7,0.6,1.5V741.3z"/>
		<path class="st0" d="M476.7,735.9h0.6c0.1,0,0.3,0,0.4,0.1c0.1,0.1,0.2,0.2,0.2,0.4v4.9h-1.1V735.9z"/>
		<path class="st0" d="M478.4,737.1h0.6c0.1,0,0.3,0.1,0.4,0.2c0.1,0.1,0.2,0.2,0.2,0.4v3.6h-1.1V737.1z"/>
		<path class="st0" d="M482.9,741v-0.3c-0.2,0.3-0.4,0.5-0.8,0.5c-0.3,0.1-0.6,0-0.9-0.1s-0.6-0.4-0.8-0.7c-0.2-0.3-0.3-0.8-0.3-1.3
			c0-0.6,0.1-1.2,0.4-1.6c0.3-0.4,0.8-0.6,1.4-0.6c0.5,0,1,0.1,1.4,0.4c0.4,0.3,0.6,0.8,0.6,1.5v2.2c0,0.7-0.2,1.2-0.6,1.5
			c-0.4,0.3-0.9,0.4-1.4,0.4c-1,0-1.6-0.4-1.8-1.3h1.1c0.1,0.1,0.2,0.3,0.4,0.3s0.3,0.1,0.5,0.1c0.2,0,0.3-0.1,0.5-0.3
			C482.7,741.6,482.8,741.4,482.9,741z M480.8,736.9v-0.4c0-0.2,0.1-0.4,0.4-0.4h1.7v0.8H480.8z M481.1,739.2c0,0.7,0.2,1.1,0.6,1.2
			c0.4,0.1,0.7,0,0.9-0.3c0.1-0.1,0.2-0.3,0.2-0.5c0-0.2,0-0.5,0-0.7c0-0.2-0.1-0.5-0.3-0.6c-0.1-0.2-0.3-0.3-0.6-0.3
			c-0.4,0-0.6,0.1-0.7,0.4C481.1,738.6,481.1,738.9,481.1,739.2z M481.9,736.9v-0.8h1c0.2,0,0.3,0.1,0.3,0.4v0.4H481.9z"/>
		<path class="st0" d="M484.5,737.1h0.6c0.1,0,0.3,0.1,0.4,0.2c0.1,0.1,0.2,0.2,0.2,0.4v3.6h-1.1V737.1z"/>
	</g>
	<g>
		<g>
			<path class="st0" d="M646.6,721c-36.8,0-66.8,30-66.8,66.8c0,36.8,30,66.8,66.8,66.8c36.8,0,66.8-30,66.8-66.8
				C713.5,750.9,683.5,721,646.6,721z M646.6,852.6c-35.7,0-64.8-29.1-64.8-64.8c0-35.7,29.1-64.8,64.8-64.8s64.8,29.1,64.8,64.8
				C711.5,823.5,682.4,852.6,646.6,852.6z"/>
		</g>
		<path class="st0" d="M668,785.9L668,785.9l-0.3-0.1c-2.2-0.6-3.9-0.7-3.9-0.7h-7.9c-0.8-1.4-2-2-2.8-2.2v-1.7
			c1.9-1.4,3.7-3.4,5.3-5.7c3.7-5.4,5.8-12.2,5.8-18.6c0-0.9,0-1.8-0.1-2.7l-0.3-1.8c-0.9-5.6-3.4-10.6-6.9-14.1
			c-3.5-3.5-8-5.6-12.9-5.6c-9.8,0-18.1,8.3-19.8,19.6L624,754c-0.1,0.9-0.2,1.9-0.2,2.9c0,6.5,2.1,13.3,5.8,18.6
			c1.7,2.5,3.6,4.5,5.7,5.9v1.4c-0.8,0.2-2,0.8-2.8,2.2h-8.3c-0.9-0.1-12.4-0.7-14.6,11.5h1.7c1.1-5.7,4.5-8.1,7.5-9.1v9.2h3v-9.8
			c1.3-0.1,2.2,0,2.3,0h7.7c-0.3,0.9-0.7,2.4-0.8,4.4v11.2l11.2-5.8l2.1-1.1l2.1,1.1l11.2,5.8v-11.2c-0.1-2-0.5-3.4-0.8-4.4h7.1
			c0.1,0,0.6,0,1.3,0.1v9.7h3v-9c3.2,1.1,7.3,3.5,8.6,9h1.6l0.1,0C676.9,789.8,671.8,787,668,785.9z M625.5,756.9c0-0.3,0-0.6,0-0.8
			c0,0.2,0.7,1,0.8,1.3c0.2,0.5,0.3,1,0.3,1.5c0.1,0.7,0,1.4,0,2l1.5-1.6c0.1-0.2,3.2-3.7,2.7-10.9c3.9,1.5,15.6,5.2,26,0.1
			c0,3.2,0.3,9.8,3.1,11l0.7,0.3c0,0,0.7-2.9,1.9-3.1v0.3c0,11.9-8.1,25.9-18.5,25.9C633.6,782.8,625.5,768.9,625.5,756.9z
			 M645.6,793.7l-1.4,0.1l-1.6-0.1c-1.8-0.3-4.9-1.5-5.6-6.1v-5c2.2,1.3,4.6,1.9,7,1.9c2.5,0,5-0.7,7.3-2.1v5.2
			C650.6,792.3,647.4,793.4,645.6,793.7z"/>
		<g>
			<path class="st0" d="M612.1,808.9h1.3l2.9,8.1h-1.8l-0.5-1.7h-3.1l-0.5,1.7h-1.8l2.7-7.5C611.4,809.1,611.7,808.9,612.1,808.9z
				 M612.4,810.5l-1.1,3.4h2.3L612.4,810.5z"/>
			<path class="st0" d="M621.6,808.9h0.8c0.2,0,0.4,0.1,0.6,0.2s0.2,0.3,0.2,0.6v4.6c0,1.1-0.3,1.9-1,2.3s-1.3,0.6-2.1,0.6
				c-0.4,0-0.8-0.1-1.2-0.2s-0.7-0.3-0.9-0.6c-0.5-0.6-0.7-1.4-0.7-2.4c0-1,0.2-1.8,0.7-2.4c0.5-0.6,1.1-0.9,1.8-0.9
				c0.4,0,0.7,0.1,1,0.2c0.3,0.2,0.6,0.4,0.8,0.7V808.9z M618.7,813.8c0,0.6,0.1,1.1,0.4,1.4s0.6,0.5,1,0.5c0.4,0,0.8-0.2,1-0.5
				c0.2-0.3,0.3-0.8,0.3-1.4c0-0.6-0.1-1-0.4-1.3c-0.3-0.3-0.6-0.5-1-0.5c-0.4,0-0.7,0.2-1,0.5C618.8,812.8,618.7,813.3,618.7,813.8
				z"/>
			<path class="st0" d="M625,816.4c-0.3-0.3-0.6-0.7-0.7-1.1s-0.2-1-0.2-1.5c0-0.4,0.1-0.8,0.2-1.3s0.3-0.8,0.6-1.1
				c0.4-0.5,0.9-0.7,1.6-0.8s1.2,0,1.7,0.2c0.6,0.2,1,0.6,1.3,1.2c0.3,0.5,0.4,1.1,0.4,1.8c0,0.5-0.1,0.9-0.2,1.3s-0.3,0.7-0.4,0.9
				c-0.4,0.5-0.9,0.8-1.4,1c-0.5,0.1-1,0.2-1.6,0S625.4,816.7,625,816.4z M626.2,812.3c-0.3,0.4-0.5,0.9-0.4,1.6s0.2,1.2,0.4,1.5
				c0.1,0.1,0.3,0.2,0.5,0.3s0.5,0.1,0.7,0s0.5-0.2,0.6-0.5s0.3-0.7,0.3-1.4c0-0.6-0.1-1-0.3-1.3s-0.4-0.5-0.6-0.5s-0.5-0.1-0.7,0
				S626.3,812.2,626.2,812.3z"/>
			<path class="st0" d="M630.8,808.9h0.8c0.2,0,0.4,0.1,0.6,0.2s0.2,0.3,0.2,0.6v7.3h-1.6V808.9z"/>
			<path class="st0" d="M637.7,815.1h1.2c-0.2,0.7-0.5,1.2-1,1.5c-0.5,0.4-1.1,0.5-1.8,0.5c-0.9,0-1.6-0.3-2.1-0.9
				c-0.5-0.6-0.8-1.4-0.8-2.4c0-1,0.2-1.8,0.7-2.3c0.5-0.6,1.2-0.9,2.1-0.9c0.9,0,1.7,0.3,2.2,0.8c0.5,0.6,0.8,1.4,0.8,2.4
				c0,0.1,0,0.1,0,0.2s0,0.1,0,0.1c0,0.1,0,0.1,0,0.2h-4.1c0,0.5,0.1,0.8,0.4,1.1c0.2,0.3,0.5,0.4,0.9,0.4c0.3,0,0.5-0.1,0.7-0.2
				c0,0,0.1,0,0.1-0.1s0.1-0.1,0.1-0.1c0,0,0.1-0.1,0.2-0.2S637.5,815.1,637.7,815.1z M634.8,813.2h2.4c0-0.4-0.1-0.7-0.3-0.9
				c-0.2-0.2-0.5-0.3-0.9-0.3c-0.3,0-0.6,0.1-0.8,0.3S634.9,812.8,634.8,813.2z"/>
			<path class="st0" d="M639.6,814.9h1.6c0,0.3,0.1,0.5,0.4,0.7c0.2,0.2,0.5,0.2,0.9,0.2c0.3,0,0.5-0.1,0.7-0.2
				c0.2-0.1,0.3-0.3,0.3-0.4c0-0.3-0.3-0.5-1-0.6c-0.3,0-0.5-0.1-0.6-0.1c-0.8-0.2-1.4-0.4-1.7-0.7c-0.3-0.3-0.5-0.7-0.5-1.1
				c0-0.6,0.2-1.1,0.7-1.5c0.5-0.4,1.1-0.5,1.8-0.5c0.8,0,1.5,0.2,1.9,0.5c0.5,0.4,0.7,0.9,0.7,1.5h-1c-0.3,0-0.5-0.1-0.7-0.4
				c-0.1-0.1-0.1-0.1-0.2-0.2c-0.2-0.1-0.4-0.2-0.8-0.2c-0.3,0-0.5,0-0.7,0.1c-0.1,0.1-0.2,0.2-0.2,0.4c0,0.3,0.4,0.5,1.2,0.6
				c0.1,0,0.2,0.1,0.2,0.1s0.1,0,0.2,0c0.8,0.2,1.4,0.4,1.7,0.7c0.3,0.3,0.4,0.7,0.4,1.1c0,0.7-0.3,1.2-0.8,1.6
				c-0.5,0.3-1.2,0.5-2.1,0.5c-0.9,0-1.6-0.2-2-0.5C639.9,816.2,639.6,815.7,639.6,814.9L639.6,814.9z"/>
			<path class="st0" d="M650,816.7c-0.3,0.2-0.7,0.3-1,0.3s-0.7,0.1-1,0.1c-0.6,0-1.1-0.2-1.5-0.5s-0.6-0.8-0.6-1.5
				c0-0.7,0.2-1.1,0.6-1.4s0.9-0.5,1.5-0.6c0.1,0,0.2,0,0.3,0s0.2,0,0.4-0.1c0.7-0.1,1-0.3,1-0.6c0-0.2-0.1-0.4-0.4-0.5
				s-0.5-0.1-0.7-0.1c-0.2,0-0.4,0-0.6,0.1s-0.3,0.2-0.4,0.4h-1.6c0.1-0.5,0.3-0.9,0.7-1.2c0.4-0.4,1-0.5,1.8-0.5
				c0.9,0,1.5,0.1,2,0.4c0.5,0.3,0.7,0.8,0.7,1.3v2.1c0,0.6-0.1,1.1-0.3,1.5S650.3,816.6,650,816.7z M649.6,813.9
				c-0.2,0.1-0.5,0.2-0.9,0.3l-0.5,0.1c-0.3,0.1-0.5,0.2-0.6,0.3c-0.1,0.2-0.2,0.3-0.2,0.5c0,0.2,0.1,0.4,0.2,0.6
				c0.1,0.1,0.3,0.2,0.6,0.2c0.4,0,0.8-0.1,1-0.4s0.4-0.6,0.4-1V813.9z"/>
			<path class="st0" d="M657.4,817h-0.8c-0.2,0-0.4-0.1-0.6-0.2s-0.2-0.3-0.2-0.6V813c0-0.4-0.1-0.6-0.3-0.8s-0.5-0.3-0.8-0.3
				s-0.5,0.1-0.8,0.3s-0.3,0.4-0.3,0.8v4H652v-3.7c0-1.1,0.3-1.8,0.8-2.1s1.2-0.6,1.8-0.6c0.7,0,1.3,0.2,1.9,0.5s0.9,1.1,0.9,2.2
				V817z"/>
			<path class="st0" d="M669.1,814.2c-0.1,0.9-0.4,1.7-1.1,2.2c-0.6,0.5-1.5,0.8-2.5,0.8c-1.2,0-2.1-0.4-2.8-1.1
				c-0.6-0.7-1-1.7-1-3.1c0-1.4,0.3-2.5,1-3.2c0.7-0.7,1.6-1.1,2.9-1.1c1,0,1.9,0.3,2.5,0.8c0.6,0.5,0.9,1.2,1,2.1h-1
				c-0.4,0-0.6-0.2-0.8-0.5c-0.1-0.2-0.2-0.4-0.4-0.5c-0.3-0.2-0.7-0.4-1.2-0.4c-0.7,0-1.3,0.2-1.7,0.7c-0.4,0.5-0.6,1.2-0.6,2.1
				c0,0.9,0.2,1.5,0.6,2c0.4,0.5,0.9,0.7,1.6,0.7c0.5,0,0.9-0.1,1.2-0.4c0.3-0.2,0.5-0.6,0.6-1.1H669.1z M663.9,818.7v-0.8
				c0-0.3,0.1-0.4,0.4-0.5c0.2-0.1,0.4-0.1,0.7,0s0.5,0.2,0.7,0.2s0.5,0.1,0.7,0.2s0.4-0.1,0.6-0.3c0,0.3,0,0.5,0,0.8
				s-0.2,0.4-0.5,0.4c-0.2,0-0.5,0-0.7-0.1s-0.5-0.2-0.7-0.3s-0.5-0.1-0.7-0.1S664,818.4,663.9,818.7z"/>
			<path class="st0" d="M674.1,816.7c-0.3,0.2-0.7,0.3-1,0.3s-0.7,0.1-1,0.1c-0.6,0-1.1-0.2-1.5-0.5s-0.6-0.8-0.6-1.5
				c0-0.7,0.2-1.1,0.6-1.4s0.9-0.5,1.5-0.6c0.1,0,0.2,0,0.3,0s0.2,0,0.4-0.1c0.7-0.1,1-0.3,1-0.6c0-0.2-0.1-0.4-0.4-0.5
				s-0.5-0.1-0.7-0.1c-0.2,0-0.4,0-0.6,0.1s-0.3,0.2-0.4,0.4h-1.6c0.1-0.5,0.3-0.9,0.7-1.2c0.4-0.4,1-0.5,1.8-0.5
				c0.9,0,1.5,0.1,2,0.4c0.5,0.3,0.7,0.8,0.7,1.3v2.1c0,0.6-0.1,1.1-0.3,1.5S674.4,816.6,674.1,816.7z M673.7,813.9
				c-0.2,0.1-0.5,0.2-0.9,0.3l-0.5,0.1c-0.3,0.1-0.5,0.2-0.6,0.3c-0.1,0.2-0.2,0.3-0.2,0.5c0,0.2,0.1,0.4,0.2,0.6
				c0.1,0.1,0.3,0.2,0.6,0.2c0.4,0,0.8-0.1,1-0.4s0.4-0.6,0.4-1V813.9z"/>
			<path class="st0" d="M680.2,816.6v-0.4c-0.3,0.4-0.7,0.7-1.1,0.8s-0.9,0.1-1.4-0.1s-0.9-0.5-1.2-1s-0.5-1.2-0.5-2
				c0-1,0.2-1.8,0.7-2.4s1.2-0.9,2.1-0.9c0.8,0,1.4,0.2,2.1,0.6s1,1.2,1,2.3v3.3c0,1.1-0.3,1.8-1,2.2s-1.3,0.6-2.1,0.6
				c-1.4,0-2.3-0.7-2.7-2h1.7c0.1,0.2,0.3,0.4,0.6,0.5s0.5,0.1,0.8,0.1s0.5-0.2,0.7-0.5S680.1,817.1,680.2,816.6z M677,810.5v-0.6
				c0-0.4,0.2-0.5,0.6-0.5h2.5v1.1H677z M677.5,813.9c0,1.1,0.3,1.7,0.9,1.8s1.1,0,1.4-0.4c0.1-0.2,0.2-0.4,0.3-0.8s0.1-0.7,0-1.1
				s-0.2-0.7-0.4-1s-0.5-0.4-0.9-0.4c-0.5,0-0.9,0.2-1.1,0.6S677.5,813.4,677.5,813.9z M678.8,810.5v-1.1h1.5c0.3,0,0.4,0.2,0.4,0.5
				v0.6H678.8z"/>
			<path class="st0" d="M685.4,817c-0.5,0-1.1,0-1.7,0s-0.9-0.4-0.9-1.1v-6.9h0.8c0.2,0,0.4,0.1,0.5,0.2s0.2,0.3,0.2,0.6v1.1h1v0.3
				c0,0.2-0.1,0.4-0.2,0.6s-0.3,0.2-0.6,0.2h-0.2v3.5c0,0.3,0.2,0.4,0.5,0.4h0.5V817z"/>
			<path class="st0" d="M615,826.6v-4.8c0-0.2,0.1-0.3,0.2-0.4s0.2-0.2,0.4-0.2h1.5c0.8,0,1.4,0.2,1.8,0.7c0.4,0.5,0.6,1.1,0.6,2
				c0,0.5-0.1,0.9-0.2,1.3c-0.2,0.4-0.4,0.7-0.7,0.9c-0.2,0.2-0.5,0.3-0.7,0.4c-0.3,0.1-0.6,0.1-1.1,0.1H615z M616.1,825.6h0.9
				c0.5,0,0.9-0.1,1.1-0.4c0.2-0.3,0.3-0.7,0.3-1.3c0-0.6-0.1-1-0.3-1.3c-0.2-0.3-0.5-0.4-1-0.4h-1V825.6z"/>
			<path class="st0" d="M620.2,821.2h0.6c0.1,0,0.3,0.1,0.4,0.2c0.1,0.1,0.2,0.2,0.2,0.4v0.3h-1.1V821.2z M620.2,822.4h0.6
				c0.1,0,0.3,0.1,0.4,0.2c0.1,0.1,0.2,0.2,0.2,0.4v3.6h-1.1V822.4z"/>
			<path class="st0" d="M622.5,828.1v-0.9h0.3c0.2,0,0.4,0,0.5-0.1c0.1-0.1,0.1-0.3,0.1-0.5l-1.5-4.1h1.2l0.8,2.9l0.7-2.6
				c0.1-0.3,0.2-0.4,0.5-0.4h0.8l-1.6,4.7c-0.1,0.3-0.3,0.6-0.5,0.7c-0.2,0.1-0.5,0.2-0.9,0.2c0,0-0.1,0-0.1,0c0,0-0.1,0-0.1,0
				c0,0-0.1,0-0.1,0C622.6,828.1,622.5,828.1,622.5,828.1z"/>
			<path class="st0" d="M629.4,825.3h0.8c-0.1,0.4-0.3,0.8-0.7,1c-0.3,0.2-0.7,0.4-1.2,0.4c-0.6,0-1.1-0.2-1.4-0.6
				c-0.3-0.4-0.5-0.9-0.5-1.6c0-0.7,0.2-1.2,0.5-1.6c0.3-0.4,0.8-0.6,1.4-0.6c0.6,0,1.1,0.2,1.5,0.6c0.3,0.4,0.5,0.9,0.5,1.6
				c0,0,0,0.1,0,0.1s0,0.1,0,0.1c0,0.1,0,0.1,0,0.1h-2.7c0,0.3,0.1,0.6,0.2,0.7c0.1,0.2,0.3,0.3,0.6,0.3c0.2,0,0.3,0,0.5-0.1
				c0,0,0.1,0,0.1-0.1c0,0,0.1-0.1,0.1-0.1c0,0,0-0.1,0.1-0.1C629.2,825.3,629.3,825.3,629.4,825.3z M627.5,824.1h1.6
				c0-0.3-0.1-0.5-0.2-0.6c-0.1-0.1-0.3-0.2-0.6-0.2c-0.2,0-0.4,0.1-0.6,0.2C627.6,823.6,627.5,823.8,627.5,824.1z"/>
			<path class="st0" d="M632.7,826.6c-0.3,0-0.7,0-1.1,0c-0.4,0-0.6-0.3-0.6-0.8v-4.6h0.6c0.1,0,0.3,0.1,0.4,0.2
				c0.1,0.1,0.2,0.2,0.2,0.4v0.7h0.6v0.2c0,0.2-0.1,0.3-0.2,0.4c-0.1,0.1-0.2,0.1-0.4,0.1H632v2.3c0,0.2,0.1,0.3,0.3,0.3h0.3V826.6z
				"/>
			<path class="st0" d="M635.4,826.6v-4.8c0-0.2,0.1-0.3,0.2-0.4s0.2-0.2,0.4-0.2h1.5c0.8,0,1.4,0.2,1.8,0.7c0.4,0.5,0.6,1.1,0.6,2
				c0,0.5-0.1,0.9-0.2,1.3c-0.2,0.4-0.4,0.7-0.7,0.9c-0.2,0.2-0.5,0.3-0.7,0.4c-0.3,0.1-0.6,0.1-1.1,0.1H635.4z M636.4,825.6h0.9
				c0.5,0,0.9-0.1,1.1-0.4c0.2-0.3,0.3-0.7,0.3-1.3c0-0.6-0.1-1-0.3-1.3c-0.2-0.3-0.5-0.4-1-0.4h-1V825.6z"/>
			<path class="st0" d="M643.2,826.4c-0.2,0.1-0.5,0.2-0.7,0.2c-0.2,0-0.5,0-0.6,0c-0.4,0-0.7-0.1-1-0.3s-0.4-0.5-0.4-1
				c0-0.4,0.1-0.8,0.4-0.9c0.3-0.2,0.6-0.3,1-0.4c0.1,0,0.1,0,0.2,0c0.1,0,0.2,0,0.3,0c0.5-0.1,0.7-0.2,0.7-0.4
				c0-0.2-0.1-0.3-0.2-0.3c-0.2,0-0.3-0.1-0.4-0.1c-0.1,0-0.3,0-0.4,0.1c-0.1,0-0.2,0.1-0.3,0.2h-1c0-0.3,0.2-0.6,0.4-0.8
				c0.3-0.2,0.7-0.4,1.2-0.4c0.6,0,1,0.1,1.3,0.3c0.3,0.2,0.5,0.5,0.5,0.9v1.4c0,0.4-0.1,0.7-0.2,1
				C643.6,826.1,643.4,826.3,643.2,826.4z M642.9,824.5c-0.1,0.1-0.3,0.1-0.6,0.2l-0.4,0.1c-0.2,0.1-0.3,0.1-0.4,0.2
				c-0.1,0.1-0.1,0.2-0.1,0.3c0,0.2,0,0.3,0.1,0.4c0.1,0.1,0.2,0.1,0.4,0.1c0.3,0,0.5-0.1,0.7-0.3c0.2-0.2,0.3-0.4,0.3-0.7V824.5z"
				/>
			<path class="st0" d="M648.1,826.6h-0.5c-0.2,0-0.3,0-0.4-0.1c-0.1-0.1-0.1-0.2-0.1-0.4v-2.1c0-0.3-0.1-0.4-0.2-0.5
				c-0.2-0.1-0.3-0.2-0.5-0.2s-0.4,0.1-0.5,0.2c-0.1,0.1-0.2,0.3-0.2,0.5v2.7h-1.1v-2.4c0-0.7,0.2-1.2,0.6-1.4
				c0.4-0.2,0.8-0.4,1.2-0.4c0.5,0,0.9,0.1,1.3,0.4c0.4,0.2,0.6,0.7,0.6,1.5V826.6z"/>
			<path class="st0" d="M648.9,822.4h0.6c0.1,0,0.3,0.1,0.4,0.2c0.1,0.1,0.2,0.2,0.2,0.4v3.6h-1.1V822.4z"/>
			<path class="st0" d="M650.5,825.2h1.1c0,0.2,0.1,0.4,0.2,0.5c0.2,0.1,0.4,0.2,0.6,0.2c0.2,0,0.3,0,0.5-0.1
				c0.1-0.1,0.2-0.2,0.2-0.3c0-0.2-0.2-0.3-0.7-0.4c-0.2,0-0.3-0.1-0.4-0.1c-0.6-0.1-0.9-0.3-1.1-0.5c-0.2-0.2-0.3-0.4-0.3-0.8
				c0-0.4,0.2-0.7,0.5-1c0.3-0.2,0.7-0.4,1.2-0.4c0.5,0,1,0.1,1.3,0.4c0.3,0.3,0.5,0.6,0.5,1h-0.7c-0.2,0-0.3-0.1-0.5-0.3
				c0,0-0.1-0.1-0.1-0.1c-0.1-0.1-0.3-0.1-0.5-0.1c-0.2,0-0.4,0-0.5,0.1c-0.1,0.1-0.1,0.2-0.1,0.3c0,0.2,0.3,0.3,0.8,0.4
				c0.1,0,0.1,0,0.2,0c0,0,0.1,0,0.1,0c0.5,0.1,0.9,0.3,1.1,0.5c0.2,0.2,0.3,0.4,0.3,0.8c0,0.5-0.2,0.8-0.5,1.1
				c-0.3,0.2-0.8,0.3-1.4,0.3c-0.6,0-1-0.1-1.3-0.4C650.7,826.1,650.5,825.7,650.5,825.2L650.5,825.2z M652.3,827h0.5v0.5
				c0,0.1-0.1,0.3-0.2,0.4c-0.2,0.1-0.4,0.2-0.7,0.2v-0.1c0-0.1,0.1-0.1,0.2-0.1c0.1,0,0.1,0,0.1-0.1c0.1-0.1,0.1-0.1,0.1-0.2
				c0,0,0-0.1-0.1-0.1H652v-0.3C652,827,652.1,827,652.3,827z"/>
			<path class="st0" d="M658.4,826.6h-1.1v-2.4v-0.2c0-0.3-0.1-0.4-0.2-0.5c-0.2-0.1-0.3-0.2-0.5-0.2s-0.4,0.1-0.5,0.2
				c-0.1,0.1-0.2,0.3-0.2,0.5v2.7h-1.1v-2.4c0-0.7,0.2-1.2,0.6-1.4c0.4-0.2,0.8-0.4,1.2-0.4c0.2,0,0.5,0,0.7,0.1
				c0.2,0.1,0.4,0.2,0.6,0.3c0.2-0.1,0.3-0.2,0.6-0.3c0.2-0.1,0.4-0.1,0.7-0.1c0.5,0,0.9,0.1,1.3,0.4c0.4,0.2,0.6,0.7,0.6,1.5v2.4
				h-0.5c-0.2,0-0.3,0-0.4-0.1c-0.1-0.1-0.1-0.2-0.1-0.4v-2.1c0-0.3-0.1-0.4-0.2-0.5c-0.2-0.1-0.3-0.2-0.5-0.2s-0.4,0.1-0.5,0.2
				c-0.2,0.1-0.2,0.3-0.2,0.5v0.2V826.6z"/>
			<path class="st0" d="M664.3,826.4c-0.2,0.1-0.5,0.2-0.7,0.2c-0.2,0-0.5,0-0.6,0c-0.4,0-0.7-0.1-1-0.3s-0.4-0.5-0.4-1
				c0-0.4,0.1-0.8,0.4-0.9c0.3-0.2,0.6-0.3,1-0.4c0.1,0,0.1,0,0.2,0c0.1,0,0.2,0,0.3,0c0.5-0.1,0.7-0.2,0.7-0.4
				c0-0.2-0.1-0.3-0.2-0.3c-0.2,0-0.3-0.1-0.4-0.1c-0.1,0-0.3,0-0.4,0.1c-0.1,0-0.2,0.1-0.3,0.2h-1c0-0.3,0.2-0.6,0.4-0.8
				c0.3-0.2,0.7-0.4,1.2-0.4c0.6,0,1,0.1,1.3,0.3c0.3,0.2,0.5,0.5,0.5,0.9v1.4c0,0.4-0.1,0.7-0.2,1
				C664.7,826.1,664.5,826.3,664.3,826.4z M664.1,824.5c-0.1,0.1-0.3,0.1-0.6,0.2l-0.4,0.1c-0.2,0.1-0.3,0.1-0.4,0.2
				c-0.1,0.1-0.1,0.2-0.1,0.3c0,0.2,0,0.3,0.1,0.4c0.1,0.1,0.2,0.1,0.4,0.1c0.3,0,0.5-0.1,0.7-0.3c0.2-0.2,0.3-0.4,0.3-0.7V824.5z"
				/>
			<path class="st0" d="M669.3,826.6h-0.5c-0.2,0-0.3,0-0.4-0.1c-0.1-0.1-0.1-0.2-0.1-0.4v-2.1c0-0.3-0.1-0.4-0.2-0.5
				c-0.2-0.1-0.3-0.2-0.5-0.2s-0.4,0.1-0.5,0.2c-0.1,0.1-0.2,0.3-0.2,0.5v2.7h-1.1v-2.4c0-0.7,0.2-1.2,0.6-1.4
				c0.4-0.2,0.8-0.4,1.2-0.4c0.5,0,0.9,0.1,1.3,0.4c0.4,0.2,0.6,0.7,0.6,1.5V826.6z"/>
			<path class="st0" d="M670.1,821.2h0.6c0.1,0,0.3,0,0.4,0.1c0.1,0.1,0.2,0.2,0.2,0.4v4.9h-1.1V821.2z"/>
			<path class="st0" d="M671.8,822.4h0.6c0.1,0,0.3,0.1,0.4,0.2c0.1,0.1,0.2,0.2,0.2,0.4v3.6h-1.1V822.4z"/>
			<path class="st0" d="M676.2,826.3v-0.3c-0.2,0.3-0.4,0.5-0.8,0.5c-0.3,0.1-0.6,0-0.9-0.1s-0.6-0.4-0.8-0.7
				c-0.2-0.3-0.3-0.8-0.3-1.3c0-0.6,0.1-1.2,0.4-1.6c0.3-0.4,0.8-0.6,1.4-0.6c0.5,0,1,0.1,1.4,0.4c0.4,0.3,0.6,0.8,0.6,1.5v2.2
				c0,0.7-0.2,1.2-0.6,1.5c-0.4,0.3-0.9,0.4-1.4,0.4c-1,0-1.6-0.4-1.8-1.3h1.1c0.1,0.1,0.2,0.3,0.4,0.3s0.3,0.1,0.5,0.1
				c0.2,0,0.3-0.1,0.5-0.3C676.1,826.9,676.2,826.7,676.2,826.3z M674.1,822.2v-0.4c0-0.2,0.1-0.4,0.4-0.4h1.7v0.8H674.1z
				 M674.5,824.5c0,0.7,0.2,1.1,0.6,1.2c0.4,0.1,0.7,0,0.9-0.3c0.1-0.1,0.2-0.3,0.2-0.5c0-0.2,0-0.5,0-0.7c0-0.2-0.1-0.5-0.3-0.6
				c-0.1-0.2-0.3-0.3-0.6-0.3c-0.4,0-0.6,0.1-0.7,0.4C674.5,823.9,674.5,824.2,674.5,824.5z M675.3,822.2v-0.8h1
				c0.2,0,0.3,0.1,0.3,0.4v0.4H675.3z"/>
			<path class="st0" d="M677.9,822.4h0.6c0.1,0,0.3,0.1,0.4,0.2c0.1,0.1,0.2,0.2,0.2,0.4v3.6h-1.1V822.4z"/>
		</g>
	</g>
	<path class="st0" d="M605.7,509.5h-0.2l-2.9,31l-2.2-31l-3.1,31l-2.4-31l-2.9,31l-3.1-31l-2,31.7c-0.4,6.8,0.8,13.6,3.6,19.9
		l0.8,1.8c1.8,4.1,2.7,8.5,2.8,12.9l0.1,31.2l0,3c0.2,2.2,2,3.9,4.2,3.9c2.4,0,4.3-1.9,4.3-4.3v-23.7l-0.1-9.4c0-0.8,0-1.7,0.1-2.5
		c0.2-4.1,0.9-8.1,2.2-12l1.7-5.2c1.2-3.6,1.7-7.3,1.4-11.1L605.7,509.5z"/>
	<path class="st0" d="M718.1,508.8c0,0-10.8,0-10.8,14.2v31.4v56c0,2.5,2,4.5,4.5,4.5c2.5,0,4.5-2,4.5-4.5v-46.1c0-1.5,0.7-3,2-3.8
		c2.1-1.3,3.4-3.6,3.4-6.2v-37.8V516v-3.6C721.7,510.4,720,508.8,718.1,508.8z"/>
	<path class="st0" d="M656.3,526.4c-24.4,0-44.2,19.8-44.2,44.2c0,24.4,19.8,44.2,44.2,44.2c24.4,0,44.2-19.8,44.2-44.2
		C700.4,546.3,680.6,526.4,656.3,526.4z M656.3,607.5c-20.3,0-36.9-16.5-36.9-36.9c0-20.3,16.5-36.9,36.9-36.9
		c20.3,0,36.9,16.5,36.9,36.9C693.1,591,676.6,607.5,656.3,607.5z"/>
	<path class="st0" d="M656.3,540.4c-16.7,0-30.2,13.6-30.2,30.2c0,16.7,13.6,30.2,30.2,30.2c16.7,0,30.2-13.6,30.2-30.2
		C686.5,554,672.9,540.4,656.3,540.4z M670.6,580.8c-0.4,0.6-1,1-1.7,1c-0.3,0-0.7-0.1-1-0.3c-3.3-1.9-6.7-2.9-10.3-2.9
		c-3.6,0-7,1-10.3,2.9c-1,0.6-2.2,0.2-2.7-0.7c-0.6-1-0.2-2.2,0.7-2.7c3.9-2.3,8-3.4,12.3-3.4c4.3,0,8.4,1.1,12.3,3.4
		C670.8,578.6,671.1,579.8,670.6,580.8z M673.4,571.8c-0.4,0.6-1,1-1.7,1c-0.3,0-0.7-0.1-1-0.3c-4.2-2.4-8.5-3.6-13.1-3.6
		c-4.5,0-8.9,1.2-13.1,3.6c-1,0.6-2.2,0.2-2.7-0.7c-0.6-1-0.2-2.2,0.7-2.7c4.8-2.8,9.8-4.2,15.1-4.2c5.2,0,10.3,1.4,15.1,4.2
		C673.6,569.6,673.9,570.9,673.4,571.8z M676.1,562.8c-0.4,0.6-1,1-1.7,1c-0.3,0-0.7-0.1-1-0.3c-5-2.9-10.4-4.4-15.8-4.4
		c-5.5,0-10.8,1.5-15.8,4.4c-1,0.6-2.2,0.2-2.7-0.7c-0.6-1-0.2-2.2,0.7-2.7c5.6-3.3,11.6-4.9,17.8-4.9c6.2,0,12.2,1.7,17.8,4.9
		C676.4,560.7,676.7,561.9,676.1,562.8z"/>
</g>
</svg>
