<?xml version="1.0" encoding="utf-8"?>
<!-- Generator: Adobe Illustrator 22.0.1, SVG Export Plug-In . SVG Version: 6.00 Build 0)  -->
<svg version="1.1" id="katman_1" xmlns="http://www.w3.org/2000/svg" xmlns:xlink="http://www.w3.org/1999/xlink" x="0px" y="0px"
	 viewBox="0 0 794 744" style="enable-background:new 0 0 794 744;" xml:space="preserve">
<style type="text/css">
	.st0{fill:#83C541;}
	.st1{fill:#D6D6D6;}
	.st2{fill:#F2F2F2;}
	.st3{fill:url(#SVGID_1_);}
	.st4{fill:url(#SVGID_2_);}
</style>
<g>
	<path class="st0" d="M498.4,266.1l-107.6-53.8l-107.6,53.8c-15.9,166.4,107.6,195.3,107.6,195.3S514.4,432.6,498.4,266.1z"/>
	<path class="st1" d="M484.7,275.2l-93.9-46.9l-93.9,46.9c-13.9,145.1,93.9,170.3,93.9,170.3S498.6,420.3,484.7,275.2z"/>
	<path class="st2" d="M390.1,445.5c0,0-107.8-25.2-93.9-170.3l93.9-46.9V445.5z"/>
	<g>
		<linearGradient id="SVGID_1_" gradientUnits="userSpaceOnUse" x1="363.3876" y1="309.1972" x2="417.2061" y2="309.1972">
			<stop  offset="0" style="stop-color:#03518B"/>
			<stop  offset="0.2972" style="stop-color:#16699B"/>
			<stop  offset="0.9217" style="stop-color:#48A6C4"/>
			<stop  offset="1" style="stop-color:#4FAEC9"/>
		</linearGradient>
		<path class="st3" d="M367.9,344.8c-2.5,0-4.5-2-4.5-4.5v-44.9c0-12.2,11.7-21.8,26.6-21.8h1.4c14.7,0,25.8,9.4,25.8,21.8v17.1
			c0,2.5-2,4.5-4.5,4.5c-2.5,0-4.5-2-4.5-4.5v-17.1c0-7.3-7.2-12.8-16.8-12.8H390c-9.7,0-17.7,5.7-17.7,12.8v44.9
			C372.4,342.8,370.3,344.8,367.9,344.8z"/>
		<linearGradient id="SVGID_2_" gradientUnits="userSpaceOnUse" x1="353.6169" y1="353.5355" x2="426.0166" y2="353.5355">
			<stop  offset="0" style="stop-color:#03518B"/>
			<stop  offset="0.2972" style="stop-color:#16699B"/>
			<stop  offset="0.9217" style="stop-color:#48A6C4"/>
			<stop  offset="1" style="stop-color:#4FAEC9"/>
		</linearGradient>
		<path class="st4" d="M426,374.1c0,5.6-4.7,10.5-11.3,10.5h-48.8c-6.6,0-12.3-4.9-12.3-10.5v-41.4c0-5.6,5.7-10.1,12.3-10.1h48.8
			c6.6,0,11.3,4.5,11.3,10.1V374.1z"/>
	</g>
	<path class="st2" d="M397.5,345.5c0-3.5-2.8-6.3-6.3-6.3h-0.3c-3.5,0-6.3,2.8-6.3,6.3v0.3c0,3.5,2.8,6.3,6.3,6.3h0.3
		c3.5,0,6.3-2.8,6.3-6.3V345.5z"/>
	<path class="st2" d="M394,366.1c0,1.7-1.3,3-3,3l0,0c-1.7,0-3-1.3-3-3v-16.9c0-1.7,1.3-3,3-3l0,0c1.7,0,3,1.3,3,3V366.1z"/>
</g>
</svg>
