<?xml version="1.0" encoding="utf-8"?>
<!-- Generator: Adobe Illustrator 16.0.0, SVG Export Plug-In . SVG Version: 6.00 Build 0)  -->
<!DOCTYPE svg PUBLIC "-//W3C//DTD SVG 1.1//EN" "http://www.w3.org/Graphics/SVG/1.1/DTD/svg11.dtd">
<svg version="1.1" id="Layer_1" xmlns="http://www.w3.org/2000/svg" xmlns:xlink="http://www.w3.org/1999/xlink" x="0px" y="0px"
	 width="1967.121px" height="421.233px" viewBox="0 0 1967.121 421.233" enable-background="new 0 0 1967.121 421.233"
	 xml:space="preserve">
<g>
	<path fill="#009BDF" d="M994.208,269.052c-28.436-5.001-42.502-13.231-42.502-23.745c0-10.492,10.734-15.952,32.18-15.952
		c18.131,0,29.256,5.026,32.999,13.973c3.349,8.215,11.577,12.493,24.378,12.908h34.678c-1.235-21.421-10.012-38.225-26.042-50.184
		c-16.535-11.789-38.835-17.617-66.836-17.617c-49.883,0.83-87.068,21.854-87.068,66.218c0.405,32.283,25.213,52.611,73.414,60.72
		c37.601,6.241,56.542,14.789,56.542,25.316c0,13.225-11.556,19.47-34.664,19.47c-26.78,0-44.179-7.797-45.415-30.405h-56.135
		c0,23.752,8.33,41.646,24.801,53.324c14.873,12.082,38.004,18.309,68.524,18.309c57.786,0,99.855-18.616,99.855-69.255
		c0-14.052-4.893-26.422-15.322-36.632C1055.628,284.979,1031.383,276.03,994.208,269.052z"/>
	<path fill="#009BDF" d="M1215.701,188.435c-66.443,0.399-99.863,35.529-99.863,105.481c0,70.087,33.027,106.352,99.04,108.337
		c53.635,0,83.322-24.183,95.276-67.819h-40.387c-7.508,0-13.657,2.409-18.627,7.386c-10.754,9.804-22.731,14.805-35.439,14.805
		c-26.855,0-41.325-15.936-43.406-47.476h141.184C1317.553,228.529,1284.955,188.435,1215.701,188.435z M1173.114,272.171
		c4.175-27.301,18.231-41.252,41.764-41.252c23.419,0,37.075,13.951,40.405,41.252H1173.114z"/>
	<path fill="#009BDF" d="M1436.711,188.435c-50.405,0-78.944,18.732-85.596,56.969h54.966c2.92-9.69,13.654-14.362,33.12-14.362
		c22.7,0,34.26,5.806,35.527,17.495c0,11.362-11.991,17.893-35.527,20.724c-55.389,4.985-93.523,18.323-94.653,67.766
		c0,45.744,36.341,68.739,88.822,64.797c59.171-3.87,95.489-29.265,95.489-86.212v-70.207
		C1527.729,207.167,1497.12,188.435,1436.711,188.435z M1475.551,313.298c0,29.269-18.538,46.474-49.147,46.474
		c-17.403,0-26.455-7.834-27.72-24.282c0-15.201,11.176-24.877,33.029-28.857c16.132-3.145,31.024-7.385,43.838-12.506V313.298z"/>
	<path fill="#009BDF" d="M1659.353,188.435c-62.287,0-93.591,29.274-93.591,87.98v124.971h55.703V265.923
		c0.421-21.339,12.792-31.847,37.182-31.847c24.251,0,36.663,10.508,37.914,31.847v109.764c0,16.338,9.045,24.568,27.262,25.699
		h28.015V276.416C1752.264,217.709,1721.75,188.435,1659.353,188.435z"/>
	<path fill="#009BDF" d="M1958.88,295.5c-11.981-10.521-36.354-19.47-73.515-26.447c-28.428-5.001-42.499-13.231-42.499-23.745
		c0-10.492,10.735-15.952,32.195-15.952c18.236,0,29.364,5.026,33.004,13.973c3.336,8.215,11.554,12.493,24.367,12.908h34.688
		c-1.264-21.421-9.899-38.225-26.043-50.184c-16.477-11.789-38.743-17.617-66.751-17.617c-49.979,0.83-87.15,21.854-87.15,66.218
		c0.392,32.283,25.182,52.611,73.527,60.72c37.474,6.241,56.529,14.789,56.529,25.316c0,13.225-11.563,19.47-34.688,19.47
		c-26.87,0-44.15-7.797-45.396-30.405h-56.132c0,23.752,8.23,41.646,24.774,53.324c14.808,12.082,37.912,18.309,68.536,18.309
		c57.69,0,99.782-18.616,99.782-69.255C1974.109,318.08,1969.199,305.709,1958.88,295.5z"/>
	<path fill="#47AA48" d="M81.324,168.761c13.457-5.796,27.719-8.906,42.364-9.296c14.169-0.292,28.093,1.979,41.437,6.771
		l9.077-23.023c-16.452-5.959-33.669-8.711-51.153-8.338c-18.105,0.438-35.686,4.32-52.269,11.488
		c-16.626,7.2-31.277,17.303-43.581,30.035C15.333,188.687,6.217,202.892,0,218.589l24.088,8.715
		c5.019-12.745,12.421-24.28,22.001-34.238C56.039,182.768,67.904,174.588,81.324,168.761z"/>
	<path fill="#47AA48" d="M98.033,204.001c8.453-3.701,17.471-5.64,26.697-5.821c8.937-0.229,17.707,1.206,26.114,4.253l9.096-23.051
		c-11.555-4.131-23.619-6.107-35.797-5.828c-12.712,0.314-25.09,3.01-36.728,8.052c-11.639,5.021-21.891,12.129-30.531,21.038
		c-8.304,8.645-14.675,18.604-19.066,29.613l24.101,8.664c3.178-8.042,7.827-15.302,13.91-21.604
		C82.071,212.832,89.523,207.689,98.033,204.001z"/>
	<path fill="#47AA48" d="M125.726,236.847c3.769-0.11,7.44,0.455,10.887,1.756l5.158-13.141l3.908-9.917
		c-6.553-2.365-13.47-3.472-20.529-3.292c-7.304,0.145-14.416,1.674-21.052,4.59c-6.681,2.902-12.578,6.977-17.539,12.116
		c-4.721,4.97-8.427,10.602-10.902,16.875l7.589,2.765l16.445,5.994c1.326-3.361,3.284-6.409,5.796-9.007
		c2.568-2.677,5.678-4.828,9.227-6.354C118.232,237.74,121.959,236.91,125.726,236.847z"/>
	<path fill="#47AA48" d="M713.337,218.837c0,0,0-125.196,0-125.35c0-6.387-1.309-12.786-3.627-18.738
		C693.27,31.122,651.104,0,601.825,0H197.728c-63.679,0-115.6,52.052-115.6,115.732v4.815c11.482-3.503,27.77-6.399,46.675-4.671
		v-0.145c0-38.09,30.833-69.066,68.925-69.066h404.097c22.535,0,42.586,10.916,55.244,27.782c5.094,6.983,6.688,15.713,6.688,24.282
		v298.384h50.165v-30.101l121.991,54.22V165.189L713.337,218.837z M793.312,355.673l-79.391-35.95v-55.336l79.391-36.49V355.673z"/>
	<path fill="#47AA48" d="M299.357,328.468l-45.509-140.033h-39.677l-45.378,140.033l-26.903-68.491
		c-15.63-3.723-24.757,3.198-29.469,9.05c-1.514,1.876-2.571,3.632-3.251,4.933l22.547,70.071l17.015,52.644l0.947,2.902h39.031
		l44.927-140.315l42.6,140.315h45.803l68.195-211.142h-45.791L299.357,328.468z"/>
	<path fill="#47AA48" d="M510.456,188.435c-69.204,0.399-104.019,35.08-104.019,104.162c0,69.224,34.406,105.022,103.152,106.979
		c55.854,0,86.766-23.868,99.223-66.962h-42.074c-7.808,0-14.208,2.375-19.395,7.308c-11.192,9.666-23.656,14.619-36.888,14.619
		c-27.983,0-43.057-15.744-45.204-46.897h147.024C616.525,228.026,582.568,188.435,510.456,188.435z M466.092,271.104
		c4.348-26.925,18.977-40.716,43.497-40.716c24.386,0,38.609,13.791,42.058,40.716H466.092z"/>
</g>
</svg>
